mtllib Center_Light_GRP_Clight_13.mtl
usemtl Center_Light_GRP_Clight_13

g Center_Light_GRP_Clight_13
v 11.00318 2.576183 -5.732637
v 10.99109 2.576183 -5.761834
v 10.95608 2.623237 -5.761834
v 10.97843 2.623237 -5.707884
v 10.97843 2.623237 -5.815784
v 11.00318 2.576183 -5.791032
v 11.03238 2.623237 -5.838131
v 11.03238 2.576183 -5.803126
v 11.08633 2.623237 -5.815784
v 11.06158 2.576183 -5.791032
v 11.10868 2.623237 -5.761834
v 11.07367 2.576183 -5.761834
v 11.08633 2.623237 -5.707884
v 11.06158 2.576183 -5.732637
v 11.03238 2.623237 -5.685537
v 11.03238 2.576183 -5.720543
v 10.97843 2.623237 -5.707884
v 11.00318 2.576183 -5.732637
v 10.93269 2.681038 -5.761834
v 10.96189 2.681038 -5.691345
v 11.03238 2.681038 -5.861521
v 11.10287 2.681038 -5.832323
v 11.13207 2.681038 -5.761834
v 11.10287 2.681038 -5.691345
v 11.03238 2.681038 -5.662148
v 10.96189 2.681038 -5.691345
v 10.92448 2.73061 -5.761834
v 10.95608 2.73061 -5.685537
v 10.95608 2.73061 -5.838131
v 10.96189 2.681038 -5.832323
v 11.03238 2.73061 -5.869734
v 11.10868 2.73061 -5.838131
v 11.14028 2.73061 -5.761834
v 11.10868 2.73061 -5.685537
v 11.03238 2.73061 -5.653934
v 10.95608 2.73061 -5.685537
v 10.93269 2.76966 -5.761834
v 10.96189 2.76966 -5.691345
v 10.96189 2.76966 -5.832323
v 11.03238 2.76966 -5.861521
v 11.10287 2.76966 -5.832323
v 11.13207 2.76966 -5.761834
v 11.10287 2.76966 -5.691345
v 11.03238 2.76966 -5.662148
v 10.96189 2.76966 -5.691345
v 10.95608 2.798494 -5.761834
v 10.97843 2.798494 -5.707884
v 10.97843 2.798494 -5.815784
v 11.03238 2.798494 -5.838131
v 11.08633 2.798494 -5.815784
v 11.10868 2.798494 -5.761834
v 11.08633 2.798494 -5.707884
v 11.03238 2.798494 -5.685537
v 10.97843 2.798494 -5.707884
v 10.99109 2.815477 -5.761834
v 11.00318 2.815477 -5.732637
v 11.00318 2.815477 -5.791032
v 11.03238 2.815477 -5.803126
v 11.06158 2.815477 -5.791032
v 11.07367 2.815477 -5.761834
v 11.06158 2.815477 -5.732637
v 11.03238 2.815477 -5.720543
v 11.00318 2.815477 -5.732637
v 11.03238 2.821003 -5.761834
v 11.03238 2.821003 -5.761834
v 11.03238 2.821003 -5.761834
v 11.03238 2.821003 -5.761834
v 11.03238 2.821003 -5.761834
v 11.03238 2.821003 -5.761834
v 11.03238 2.821003 -5.761834
v 11.03238 2.821003 -5.761834
v 11.03238 2.558041 -5.761834
v 11.03238 2.558041 -5.761834
v 11.03238 2.558041 -5.761834
v 11.03238 2.558041 -5.761834
v 11.03238 2.558041 -5.761834
v 11.03238 2.558041 -5.761834
v 11.03238 2.558041 -5.761834
v 11.03238 2.558041 -5.761834

vn -0.5329621 -0.6571931 0.5329621
vn -0.7537221 -0.6571931 0
vn -0.8923218 -0.4513999 0
vn -0.6309662 -0.4514001 0.6309672
vn -0.6309662 -0.4514001 -0.6309672
vn -0.5329621 -0.6571931 -0.5329621
vn 0 -0.4513999 -0.8923218
vn 0 -0.6571931 -0.7537221
vn 0.6309668 -0.4513998 -0.6309668
vn 0.5329621 -0.6571931 -0.5329621
vn 0.8923218 -0.4513999 0
vn 0.7537226 -0.6571926 0
vn 0.6309668 -0.4513998 0.6309668
vn 0.5329629 -0.6571928 0.5329618
vn 0 -0.4513999 0.8923218
vn 0 -0.6571931 0.7537221
vn -0.6309662 -0.4514001 0.6309672
vn -0.5329621 -0.6571931 0.5329621
vn -0.9638557 -0.266425 0
vn -0.6815488 -0.266425 0.6815488
vn 0 -0.266425 -0.9638557
vn 0.6815488 -0.266425 -0.6815488
vn 0.9638557 -0.266425 0
vn 0.6815488 -0.266425 0.6815488
vn 0 -0.266425 0.9638557
vn -0.6815488 -0.266425 0.6815488
vn -0.9999995 -0.001003999 0
vn -0.7071059 -0.001004 0.7071069
vn -0.7071059 -0.001004 -0.7071069
vn -0.6815488 -0.266425 -0.6815488
vn 0 -0.001004001 -0.9999995
vn 0.7071069 -0.001004 -0.7071059
vn 0.9999995 -0.001003999 0
vn 0.7071069 -0.001004 0.7071059
vn 0 -0.001003999 0.9999995
vn -0.7071059 -0.001004 0.7071069
vn -0.924734 0.380614 0
vn -0.6538857 0.3806138 0.6538857
vn -0.6538857 0.3806138 -0.6538857
vn 0 0.380614 -0.924734
vn 0.6538857 0.3806138 -0.6538857
vn 0.9247344 0.3806132 0
vn 0.653886 0.380613 0.653886
vn 0 0.380614 0.924734
vn -0.6538857 0.3806138 0.6538857
vn -0.6819059 0.7314399 0
vn -0.4821799 0.7314398 0.4821808
vn -0.4821799 0.7314398 -0.4821808
vn 0 0.7314399 -0.6819059
vn 0.4821801 0.7314402 -0.4821801
vn 0.6819059 0.7314399 0
vn 0.4821801 0.7314402 0.4821801
vn 0 0.7314399 0.6819059
vn -0.4821799 0.7314398 0.4821808
vn -0.382402 0.923996 0
vn -0.270399 0.923996 0.270399
vn -0.270399 0.923996 -0.270399
vn 0 0.923996 -0.382402
vn 0.270399 0.923996 -0.270399
vn 0.382402 0.923996 0
vn 0.270399 0.923996 0.270399
vn 0 0.923996 0.382402
vn -0.270399 0.923996 0.270399
vn 0 1 0
vn 0 1 0
vn 0 1 0
vn 0 1 0
vn 0 1 0
vn 0 1 0
vn 0 1 0
vn 0 1 0
vn 0 -1 0
vn 0 -1 0
vn 0 -1 0
vn 0 -1 0
vn 0 -1 0
vn 0 -1 0
vn 0 -1 0
vn 0 -1 0

vt 0 0.125
vt 0.125 0.125
vt 0.125 0.25
vt 0 0.25
vt 0.25 0.25
vt 0.25 0.125
vt 0.375 0.25
vt 0.375 0.125
vt 0.5 0.25
vt 0.5 0.125
vt 0.625 0.25
vt 0.625 0.125
vt 0.75 0.25
vt 0.75 0.125
vt 0.875 0.25
vt 0.875 0.125
vt 1 0.25
vt 1 0.125
vt 0.125 0.375
vt 0 0.375
vt 0.375 0.375
vt 0.5 0.375
vt 0.625 0.375
vt 0.75 0.375
vt 0.875 0.375
vt 1 0.375
vt 0.125 0.5
vt 0 0.5
vt 0.25 0.5
vt 0.25 0.375
vt 0.375 0.5
vt 0.5 0.5
vt 0.625 0.5
vt 0.75 0.5
vt 0.875 0.5
vt 1 0.5
vt 0.125 0.625
vt 0 0.625
vt 0.25 0.625
vt 0.375 0.625
vt 0.5 0.625
vt 0.625 0.625
vt 0.75 0.625
vt 0.875 0.625
vt 1 0.625
vt 0.125 0.75
vt 0 0.75
vt 0.25 0.75
vt 0.375 0.75
vt 0.5 0.75
vt 0.625 0.75
vt 0.75 0.75
vt 0.875 0.75
vt 1 0.75
vt 0.125 0.875
vt 0 0.875
vt 0.25 0.875
vt 0.375 0.875
vt 0.5 0.875
vt 0.625 0.875
vt 0.75 0.875
vt 0.875 0.875
vt 1 0.875
vt 0.0625 1
vt 0.1875 1
vt 0.3125 1
vt 0.4375 1
vt 0.5625 1
vt 0.6875 1
vt 0.8125 1
vt 0.9375 1
vt 0.0625 0
vt 0.1875 0
vt 0.3125 0
vt 0.4375 0
vt 0.5625 0
vt 0.6875 0
vt 0.8125 0
vt 0.9375 0
f 1/1/1 3/3/3 2/2/2
f 1/1/1 4/4/4 3/3/3
f 2/2/2 3/3/3 5/5/5
f 2/2/2 5/5/5 6/6/6
f 6/6/6 5/5/5 7/7/7
f 6/6/6 7/7/7 8/8/8
f 8/8/8 7/7/7 9/9/9
f 8/8/8 9/9/9 10/10/10
f 10/10/10 9/9/9 11/11/11
f 10/10/10 11/11/11 12/12/12
f 12/12/12 11/11/11 13/13/13
f 12/12/12 13/13/13 14/14/14
f 14/14/14 13/13/13 15/15/15
f 14/14/14 15/15/15 16/16/16
f 16/16/16 15/15/15 17/17/17
f 16/16/16 17/17/17 18/18/18
f 4/4/4 19/19/19 3/3/3
f 4/4/4 20/20/20 19/19/19
f 5/5/5 21/21/21 7/7/7
f 7/7/7 22/22/22 9/9/9
f 7/7/7 21/21/21 22/22/22
f 9/9/9 23/23/23 11/11/11
f 9/9/9 22/22/22 23/23/23
f 11/11/11 24/24/24 13/13/13
f 11/11/11 23/23/23 24/24/24
f 13/13/13 25/25/25 15/15/15
f 13/13/13 24/24/24 25/25/25
f 15/15/15 26/26/26 17/17/17
f 15/15/15 25/25/25 26/26/26
f 20/20/20 27/27/27 19/19/19
f 20/20/20 28/28/28 27/27/27
f 19/19/19 27/27/27 29/29/29
f 19/19/19 29/29/29 30/30/30
f 3/3/3 19/19/19 30/30/30
f 3/3/3 30/30/30 5/5/5
f 5/5/5 30/30/30 21/21/21
f 30/30/30 31/31/31 21/21/21
f 30/30/30 29/29/29 31/31/31
f 21/21/21 32/32/32 22/22/22
f 21/21/21 31/31/31 32/32/32
f 22/22/22 33/33/33 23/23/23
f 22/22/22 32/32/32 33/33/33
f 23/23/23 34/34/34 24/24/24
f 23/23/23 33/33/33 34/34/34
f 24/24/24 35/35/35 25/25/25
f 24/24/24 34/34/34 35/35/35
f 25/25/25 36/36/36 26/26/26
f 25/25/25 35/35/35 36/36/36
f 28/28/28 37/37/37 27/27/27
f 28/28/28 38/38/38 37/37/37
f 27/27/27 39/39/39 29/29/29
f 27/27/27 37/37/37 39/39/39
f 29/29/29 40/40/40 31/31/31
f 29/29/29 39/39/39 40/40/40
f 31/31/31 41/41/41 32/32/32
f 31/31/31 40/40/40 41/41/41
f 32/32/32 42/42/42 33/33/33
f 32/32/32 41/41/41 42/42/42
f 33/33/33 43/43/43 34/34/34
f 33/33/33 42/42/42 43/43/43
f 34/34/34 44/44/44 35/35/35
f 34/34/34 43/43/43 44/44/44
f 35/35/35 45/45/45 36/36/36
f 35/35/35 44/44/44 45/45/45
f 38/38/38 46/46/46 37/37/37
f 38/38/38 47/47/47 46/46/46
f 37/37/37 48/48/48 39/39/39
f 37/37/37 46/46/46 48/48/48
f 39/39/39 49/49/49 40/40/40
f 39/39/39 48/48/48 49/49/49
f 40/40/40 50/50/50 41/41/41
f 40/40/40 49/49/49 50/50/50
f 41/41/41 51/51/51 42/42/42
f 41/41/41 50/50/50 51/51/51
f 42/42/42 52/52/52 43/43/43
f 42/42/42 51/51/51 52/52/52
f 43/43/43 53/53/53 44/44/44
f 43/43/43 52/52/52 53/53/53
f 44/44/44 54/54/54 45/45/45
f 44/44/44 53/53/53 54/54/54
f 47/47/47 55/55/55 46/46/46
f 47/47/47 56/56/56 55/55/55
f 46/46/46 57/57/57 48/48/48
f 46/46/46 55/55/55 57/57/57
f 48/48/48 58/58/58 49/49/49
f 48/48/48 57/57/57 58/58/58
f 49/49/49 59/59/59 50/50/50
f 49/49/49 58/58/58 59/59/59
f 50/50/50 60/60/60 51/51/51
f 50/50/50 59/59/59 60/60/60
f 51/51/51 61/61/61 52/52/52
f 51/51/51 60/60/60 61/61/61
f 52/52/52 62/62/62 53/53/53
f 52/52/52 61/61/61 62/62/62
f 53/53/53 63/63/63 54/54/54
f 53/53/53 62/62/62 63/63/63
f 56/56/56 64/64/64 55/55/55
f 55/55/55 65/65/65 57/57/57
f 57/57/57 66/66/66 58/58/58
f 58/58/58 67/67/67 59/59/59
f 59/59/59 68/68/68 60/60/60
f 60/60/60 69/69/69 61/61/61
f 61/61/61 70/70/70 62/62/62
f 62/62/62 71/71/71 63/63/63
f 2/2/2 72/72/72 1/1/1
f 6/6/6 73/73/73 2/2/2
f 8/8/8 74/74/74 6/6/6
f 10/10/10 75/75/75 8/8/8
f 12/12/12 76/76/76 10/10/10
f 14/14/14 77/77/77 12/12/12
f 16/16/16 78/78/78 14/14/14
f 18/18/18 79/79/79 16/16/16
