mtllib Center_Light_GRP_Clight_12.mtl
usemtl Center_Light_GRP_Clight_12

g Center_Light_GRP_Clight_12
v 12.10738 2.576183 -6.044404
v 12.13821 2.576183 -6.051352
v 12.14417 2.623237 -6.085846
v 12.0872 2.623237 -6.073008
v 12.19353 2.623237 -6.054643
v 12.16492 2.576183 -6.034464
v 12.20637 2.623237 -5.997676
v 12.17187 2.576183 -6.003634
v 12.17516 2.623237 -5.948317
v 12.15499 2.576183 -5.976922
v 12.1182 2.623237 -5.935479
v 12.12416 2.576183 -5.969974
v 12.06884 2.623237 -5.966683
v 12.09744 2.576183 -5.986861
v 12.056 2.623237 -6.023649
v 12.0905 2.576183 -6.017691
v 12.0872 2.623237 -6.073008
v 12.10738 2.576183 -6.044404
v 12.14815 2.681038 -6.108894
v 12.07372 2.681038 -6.092121
v 12.22942 2.681038 -5.993695
v 12.18865 2.681038 -5.929204
v 12.11422 2.681038 -5.912431
v 12.04973 2.681038 -5.9532
v 12.03295 2.681038 -6.02763
v 12.07372 2.681038 -6.092121
v 12.14955 2.73061 -6.116988
v 12.06899 2.73061 -6.098832
v 12.21935 2.73061 -6.07286
v 12.21264 2.681038 -6.068125
v 12.23751 2.73061 -5.992297
v 12.19338 2.73061 -5.922493
v 12.11282 2.73061 -5.904337
v 12.04301 2.73061 -5.948466
v 12.02486 2.73061 -6.029028
v 12.06899 2.73061 -6.098832
v 12.14815 2.76966 -6.108894
v 12.07372 2.76966 -6.092121
v 12.21264 2.76966 -6.068125
v 12.22942 2.76966 -5.993695
v 12.18865 2.76966 -5.929204
v 12.11422 2.76966 -5.912431
v 12.04973 2.76966 -5.9532
v 12.03295 2.76966 -6.02763
v 12.07372 2.76966 -6.092121
v 12.14417 2.798494 -6.085846
v 12.0872 2.798494 -6.073008
v 12.19353 2.798494 -6.054643
v 12.20637 2.798494 -5.997676
v 12.17516 2.798494 -5.948317
v 12.1182 2.798494 -5.935479
v 12.06884 2.798494 -5.966683
v 12.056 2.798494 -6.023649
v 12.0872 2.798494 -6.073008
v 12.13821 2.815477 -6.051352
v 12.10738 2.815477 -6.044404
v 12.16492 2.815477 -6.034464
v 12.17187 2.815477 -6.003634
v 12.15499 2.815477 -5.976922
v 12.12416 2.815477 -5.969974
v 12.09744 2.815477 -5.986861
v 12.0905 2.815477 -6.017691
v 12.10738 2.815477 -6.044404
v 12.13118 2.821003 -6.010663
v 12.13118 2.821003 -6.010663
v 12.13118 2.821003 -6.010663
v 12.13118 2.821003 -6.010663
v 12.13118 2.821003 -6.010663
v 12.13118 2.821003 -6.010663
v 12.13118 2.821003 -6.010663
v 12.13118 2.821003 -6.010663
v 12.13118 2.558041 -6.010663
v 12.13118 2.558041 -6.010663
v 12.13118 2.558041 -6.010663
v 12.13118 2.558041 -6.010663
v 12.13118 2.558041 -6.010663
v 12.13118 2.558041 -6.010663
v 12.13118 2.558041 -6.010663
v 12.13118 2.558041 -6.010663

vn -0.4344701 -0.6571931 -0.6159001
vn 0.12829 -0.657193 -0.742724
vn 0.151881 -0.4514 -0.879301
vn -0.5143638 -0.4513998 -0.7291557
vn 0.7291557 -0.4513998 -0.5143638
vn 0.6159001 -0.6571931 -0.4344701
vn 0.879301 -0.4514 0.151881
vn 0.742724 -0.657193 0.12829
vn 0.5143639 -0.4514009 0.7291549
vn 0.4344701 -0.6571931 0.6159001
vn -0.1518809 -0.4514008 0.8793007
vn -0.12829 -0.657193 0.742724
vn -0.7291558 -0.4514008 0.5143628
vn -0.6158998 -0.6571928 0.4344709
vn -0.8793007 -0.4514008 -0.1518809
vn -0.742724 -0.657193 -0.12829
vn -0.5143638 -0.4513998 -0.7291557
vn -0.4344701 -0.6571931 -0.6159001
vn 0.164057 -0.266425 -0.9497911
vn -0.5555982 -0.2664251 -0.7876093
vn 0.9497913 -0.2664241 0.1640571
vn 0.5555982 -0.2664251 0.7876093
vn -0.164057 -0.266425 0.9497911
vn -0.7876093 -0.2664251 0.5555982
vn -0.9497911 -0.266425 -0.164057
vn -0.5555982 -0.2664251 -0.7876093
vn 0.1702091 -0.001004 -0.9854074
vn -0.5764322 -0.001004 -0.8171443
vn 0.8171439 -0.001004 -0.5764329
vn 0.7876099 -0.2664239 -0.555598
vn 0.9854074 -0.001004 0.1702091
vn 0.5764322 -0.001004 0.8171443
vn -0.1702091 -0.001004 0.9854074
vn -0.8171443 -0.001004 0.5764322
vn -0.9854074 -0.001004 -0.1702091
vn -0.5764322 -0.001004 -0.8171443
vn 0.157398 0.3806141 -0.9112402
vn -0.5330472 0.3806142 -0.7556412
vn 0.7556419 0.380613 -0.533047
vn 0.9112408 0.3806129 0.157398
vn 0.5330472 0.3806142 0.7556412
vn -0.157398 0.3806141 0.9112402
vn -0.7556412 0.3806142 0.5330472
vn -0.9112402 0.3806141 -0.157398
vn -0.5330472 0.3806142 -0.7556412
vn 0.116066 0.7314398 -0.6719558
vn -0.3930731 0.7314402 -0.5572152
vn 0.5572158 0.7314398 -0.3930729
vn 0.6719552 0.7314402 0.116066
vn 0.3930731 0.7314402 0.5572152
vn -0.116066 0.7314402 0.6719552
vn -0.5572153 0.7314405 0.3930723
vn -0.6719552 0.7314402 -0.116066
vn -0.3930731 0.7314402 -0.5572152
vn 0.065088 0.923996 -0.376822
vn -0.220429 0.9239959 -0.312478
vn 0.312478 0.9239959 -0.220429
vn 0.376822 0.923996 0.065088
vn 0.220429 0.9239959 0.312478
vn -0.065088 0.923996 0.376822
vn -0.312478 0.9239959 0.220429
vn -0.376822 0.923996 -0.065088
vn -0.220429 0.9239959 -0.312478
vn 0 1 0
vn 0 1 0
vn 0 1 0
vn 0 1 0
vn 0 1 0
vn 0 1 0
vn 0 1 0
vn 0 1 0
vn 0 -1 0
vn 0 -1 0
vn 0 -1 0
vn 0 -1 0
vn 0 -1 0
vn 0 -1 0
vn 0 -1 0
vn 0 -1 0

vt 0 0.125
vt 0.125 0.125
vt 0.125 0.25
vt 0 0.25
vt 0.25 0.25
vt 0.25 0.125
vt 0.375 0.25
vt 0.375 0.125
vt 0.5 0.25
vt 0.5 0.125
vt 0.625 0.25
vt 0.625 0.125
vt 0.75 0.25
vt 0.75 0.125
vt 0.875 0.25
vt 0.875 0.125
vt 1 0.25
vt 1 0.125
vt 0.125 0.375
vt 0 0.375
vt 0.375 0.375
vt 0.5 0.375
vt 0.625 0.375
vt 0.75 0.375
vt 0.875 0.375
vt 1 0.375
vt 0.125 0.5
vt 0 0.5
vt 0.25 0.5
vt 0.25 0.375
vt 0.375 0.5
vt 0.5 0.5
vt 0.625 0.5
vt 0.75 0.5
vt 0.875 0.5
vt 1 0.5
vt 0.125 0.625
vt 0 0.625
vt 0.25 0.625
vt 0.375 0.625
vt 0.5 0.625
vt 0.625 0.625
vt 0.75 0.625
vt 0.875 0.625
vt 1 0.625
vt 0.125 0.75
vt 0 0.75
vt 0.25 0.75
vt 0.375 0.75
vt 0.5 0.75
vt 0.625 0.75
vt 0.75 0.75
vt 0.875 0.75
vt 1 0.75
vt 0.125 0.875
vt 0 0.875
vt 0.25 0.875
vt 0.375 0.875
vt 0.5 0.875
vt 0.625 0.875
vt 0.75 0.875
vt 0.875 0.875
vt 1 0.875
vt 0.0625 1
vt 0.1875 1
vt 0.3125 1
vt 0.4375 1
vt 0.5625 1
vt 0.6875 1
vt 0.8125 1
vt 0.9375 1
vt 0.0625 0
vt 0.1875 0
vt 0.3125 0
vt 0.4375 0
vt 0.5625 0
vt 0.6875 0
vt 0.8125 0
vt 0.9375 0
f 1/1/1 3/3/3 2/2/2
f 1/1/1 4/4/4 3/3/3
f 2/2/2 3/3/3 5/5/5
f 2/2/2 5/5/5 6/6/6
f 6/6/6 5/5/5 7/7/7
f 6/6/6 7/7/7 8/8/8
f 8/8/8 7/7/7 9/9/9
f 8/8/8 9/9/9 10/10/10
f 10/10/10 9/9/9 11/11/11
f 10/10/10 11/11/11 12/12/12
f 12/12/12 11/11/11 13/13/13
f 12/12/12 13/13/13 14/14/14
f 14/14/14 13/13/13 15/15/15
f 14/14/14 15/15/15 16/16/16
f 16/16/16 15/15/15 17/17/17
f 16/16/16 17/17/17 18/18/18
f 4/4/4 19/19/19 3/3/3
f 4/4/4 20/20/20 19/19/19
f 5/5/5 21/21/21 7/7/7
f 7/7/7 22/22/22 9/9/9
f 7/7/7 21/21/21 22/22/22
f 9/9/9 23/23/23 11/11/11
f 9/9/9 22/22/22 23/23/23
f 11/11/11 24/24/24 13/13/13
f 11/11/11 23/23/23 24/24/24
f 13/13/13 25/25/25 15/15/15
f 13/13/13 24/24/24 25/25/25
f 15/15/15 26/26/26 17/17/17
f 15/15/15 25/25/25 26/26/26
f 20/20/20 27/27/27 19/19/19
f 20/20/20 28/28/28 27/27/27
f 19/19/19 27/27/27 29/29/29
f 19/19/19 29/29/29 30/30/30
f 3/3/3 19/19/19 30/30/30
f 3/3/3 30/30/30 5/5/5
f 5/5/5 30/30/30 21/21/21
f 30/30/30 31/31/31 21/21/21
f 30/30/30 29/29/29 31/31/31
f 21/21/21 32/32/32 22/22/22
f 21/21/21 31/31/31 32/32/32
f 22/22/22 33/33/33 23/23/23
f 22/22/22 32/32/32 33/33/33
f 23/23/23 34/34/34 24/24/24
f 23/23/23 33/33/33 34/34/34
f 24/24/24 35/35/35 25/25/25
f 24/24/24 34/34/34 35/35/35
f 25/25/25 36/36/36 26/26/26
f 25/25/25 35/35/35 36/36/36
f 28/28/28 37/37/37 27/27/27
f 28/28/28 38/38/38 37/37/37
f 27/27/27 39/39/39 29/29/29
f 27/27/27 37/37/37 39/39/39
f 29/29/29 40/40/40 31/31/31
f 29/29/29 39/39/39 40/40/40
f 31/31/31 41/41/41 32/32/32
f 31/31/31 40/40/40 41/41/41
f 32/32/32 42/42/42 33/33/33
f 32/32/32 41/41/41 42/42/42
f 33/33/33 43/43/43 34/34/34
f 33/33/33 42/42/42 43/43/43
f 34/34/34 44/44/44 35/35/35
f 34/34/34 43/43/43 44/44/44
f 35/35/35 45/45/45 36/36/36
f 35/35/35 44/44/44 45/45/45
f 38/38/38 46/46/46 37/37/37
f 38/38/38 47/47/47 46/46/46
f 37/37/37 48/48/48 39/39/39
f 37/37/37 46/46/46 48/48/48
f 39/39/39 49/49/49 40/40/40
f 39/39/39 48/48/48 49/49/49
f 40/40/40 50/50/50 41/41/41
f 40/40/40 49/49/49 50/50/50
f 41/41/41 51/51/51 42/42/42
f 41/41/41 50/50/50 51/51/51
f 42/42/42 52/52/52 43/43/43
f 42/42/42 51/51/51 52/52/52
f 43/43/43 53/53/53 44/44/44
f 43/43/43 52/52/52 53/53/53
f 44/44/44 54/54/54 45/45/45
f 44/44/44 53/53/53 54/54/54
f 47/47/47 55/55/55 46/46/46
f 47/47/47 56/56/56 55/55/55
f 46/46/46 57/57/57 48/48/48
f 46/46/46 55/55/55 57/57/57
f 48/48/48 58/58/58 49/49/49
f 48/48/48 57/57/57 58/58/58
f 49/49/49 59/59/59 50/50/50
f 49/49/49 58/58/58 59/59/59
f 50/50/50 60/60/60 51/51/51
f 50/50/50 59/59/59 60/60/60
f 51/51/51 61/61/61 52/52/52
f 51/51/51 60/60/60 61/61/61
f 52/52/52 62/62/62 53/53/53
f 52/52/52 61/61/61 62/62/62
f 53/53/53 63/63/63 54/54/54
f 53/53/53 62/62/62 63/63/63
f 56/56/56 64/64/64 55/55/55
f 55/55/55 65/65/65 57/57/57
f 57/57/57 66/66/66 58/58/58
f 58/58/58 67/67/67 59/59/59
f 59/59/59 68/68/68 60/60/60
f 60/60/60 69/69/69 61/61/61
f 61/61/61 70/70/70 62/62/62
f 62/62/62 71/71/71 63/63/63
f 2/2/2 72/72/72 1/1/1
f 6/6/6 73/73/73 2/2/2
f 8/8/8 74/74/74 6/6/6
f 10/10/10 75/75/75 8/8/8
f 12/12/12 76/76/76 10/10/10
f 14/14/14 77/77/77 12/12/12
f 16/16/16 78/78/78 14/14/14
f 18/18/18 79/79/79 16/16/16
