mtllib Center_Light_GRP_Clight_10.mtl
usemtl Center_Light_GRP_Clight_10

g Center_Light_GRP_Clight_10
v 11.86229 2.566749 -5.588535
v 11.91542 2.640582 -5.535407
v 12.00921 2.640582 -5.761834
v 11.93408 2.566749 -5.761834
v 11.91542 2.640582 -5.988262
v 11.86229 2.566749 -5.935134
v 11.68899 2.640582 -6.08205
v 11.68899 2.566749 -6.006917
v 11.46257 2.640582 -5.988262
v 11.51569 2.566749 -5.935134
v 11.36878 2.640582 -5.761834
v 11.44391 2.566749 -5.761834
v 11.46257 2.640582 -5.535407
v 11.51569 2.566749 -5.588535
v 11.68899 2.640582 -5.441618
v 11.68899 2.566749 -5.516751
v 11.91542 2.640582 -5.535407
v 11.86229 2.566749 -5.588535
v 11.93408 2.727677 -6.006917
v 11.68899 2.727677 -6.108433
v 11.44391 2.727677 -6.006917
v 11.34239 2.727677 -5.761834
v 11.44391 2.727677 -5.516751
v 11.68899 2.727677 -5.415235
v 11.93408 2.727677 -5.516751
v 11.68899 2.814772 -6.08205
v 11.91542 2.814772 -5.988262
v 12.03559 2.727677 -5.761834
v 11.93408 2.727677 -5.516751
v 12.00921 2.814772 -5.761834
v 11.91542 2.814772 -5.535407
v 11.46257 2.814772 -5.988262
v 11.36878 2.814772 -5.761834
v 11.46257 2.814772 -5.535407
v 11.68899 2.814772 -5.441618
v 11.91542 2.814772 -5.535407
v 11.93408 2.888607 -5.761834
v 11.86229 2.888607 -5.588535
v 11.86229 2.888607 -5.935134
v 11.68899 2.888607 -6.006917
v 11.51569 2.888607 -5.935134
v 11.44391 2.888607 -5.761834
v 11.51569 2.888607 -5.588535
v 11.68899 2.888607 -5.516751
v 11.86229 2.888607 -5.588535
v 11.86681 2.91812 -5.761834
v 11.81473 2.91812 -5.636097
v 11.81473 2.91812 -5.887572
v 11.68899 2.91812 -5.939653
v 11.56326 2.91812 -5.887572
v 11.51117 2.91812 -5.761834
v 11.56326 2.91812 -5.636097
v 11.68899 2.91812 -5.584015
v 11.81473 2.91812 -5.636097
v 11.80798 2.448978 -5.761834
v 11.68899 2.416633 -5.761834
v 11.77313 2.448978 -5.677699
v 11.83572 2.494612 -5.761834
v 11.79275 2.494612 -5.658079
v 11.7924 2.5059 -5.65843
v 11.83523 2.5059 -5.761834
v 11.79275 2.494612 -5.865589
v 11.7924 2.5059 -5.865238
v 11.68899 2.494612 -5.908566
v 11.68899 2.5059 -5.908069
v 11.58524 2.494612 -5.865589
v 11.58559 2.5059 -5.865238
v 11.54226 2.494612 -5.761834
v 11.54276 2.5059 -5.761834
v 11.58524 2.494612 -5.658079
v 11.58559 2.5059 -5.65843
v 11.68899 2.494612 -5.615102
v 11.68899 2.5059 -5.615599
v 11.79275 2.494612 -5.658079
v 11.7924 2.5059 -5.65843
v 11.77313 2.448978 -5.84597
v 11.68899 2.416633 -5.761834
v 11.68899 2.448978 -5.88082
v 11.68899 2.416633 -5.761834
v 11.60486 2.448978 -5.84597
v 11.68899 2.416633 -5.761834
v 11.57001 2.448978 -5.761834
v 11.68899 2.416633 -5.761834
v 11.60486 2.448978 -5.677699
v 11.68899 2.416633 -5.761834
v 11.68899 2.448978 -5.642849
v 11.68899 2.416633 -5.761834
v 11.77313 2.448978 -5.677699
v 11.68899 2.416633 -5.761834
v 11.77169 2.516153 -5.67914
v 11.68899 2.516153 -5.644887
v 11.77089 2.529778 -5.679943
v 11.68899 2.529778 -5.646023
v 11.6071 2.529778 -5.679943
v 11.57318 2.529778 -5.761834
v 11.6071 2.529778 -5.843725
v 11.68899 2.529778 -5.877645
v 11.77089 2.529778 -5.843725
v 11.8048 2.529778 -5.761834
v 11.77089 2.529778 -5.679943
v 11.77169 2.516153 -5.67914
v 11.80594 2.516153 -5.761834
v 11.77169 2.516153 -5.844528
v 11.68899 2.516153 -5.878781
v 11.6063 2.516153 -5.844528
v 11.57205 2.516153 -5.761834
v 11.6063 2.516153 -5.67914
v 11.56326 2.91812 -5.887572
v 11.62434 2.934183 -5.826488
v 11.59756 2.934183 -5.761834
v 11.51117 2.91812 -5.761834
v 11.68899 2.91812 -5.939653
v 11.68899 2.934183 -5.853268
v 11.62434 2.934183 -5.826488
v 11.56326 2.91812 -5.887572
v 11.81473 2.91812 -5.887572
v 11.75365 2.934183 -5.826488
v 11.68899 2.934183 -5.853268
v 11.68899 2.91812 -5.939653
v 11.86681 2.91812 -5.761834
v 11.78043 2.934183 -5.761834
v 11.75365 2.934183 -5.826488
v 11.81473 2.91812 -5.887572
v 11.81473 2.91812 -5.636097
v 11.75365 2.934183 -5.697181
v 11.78043 2.934183 -5.761834
v 11.86681 2.91812 -5.761834
v 11.68899 2.91812 -5.584015
v 11.68899 2.934183 -5.6704
v 11.75365 2.934183 -5.697181
v 11.81473 2.91812 -5.636097
v 11.56326 2.91812 -5.636097
v 11.62434 2.934183 -5.697181
v 11.68899 2.934183 -5.6704
v 11.68899 2.91812 -5.584015
v 11.51117 2.91812 -5.761834
v 11.59756 2.934183 -5.761834
v 11.62434 2.934183 -5.697181
v 11.56326 2.91812 -5.636097
v 11.62434 2.934183 -5.826488
v 11.62434 2.973216 -5.826488
v 11.59756 2.973216 -5.761834
v 11.59756 2.934183 -5.761834
v 11.68899 2.934183 -5.853268
v 11.68899 2.973216 -5.853268
v 11.62434 2.973216 -5.826488
v 11.62434 2.934183 -5.826488
v 11.75365 2.934183 -5.826488
v 11.75365 2.973216 -5.826488
v 11.68899 2.973216 -5.853268
v 11.68899 2.934183 -5.853268
v 11.78043 2.934183 -5.761834
v 11.78043 2.973216 -5.761834
v 11.75365 2.973216 -5.826488
v 11.75365 2.934183 -5.826488
v 11.75365 2.934183 -5.697181
v 11.75365 2.973216 -5.697181
v 11.78043 2.973216 -5.761834
v 11.78043 2.934183 -5.761834
v 11.68899 2.934183 -5.6704
v 11.68899 2.973216 -5.6704
v 11.75365 2.973216 -5.697181
v 11.75365 2.934183 -5.697181
v 11.62434 2.934183 -5.697181
v 11.62434 2.973216 -5.697181
v 11.68899 2.973216 -5.6704
v 11.68899 2.934183 -5.6704
v 11.59756 2.934183 -5.761834
v 11.59756 2.973216 -5.761834
v 11.62434 2.973216 -5.697181
v 11.62434 2.934183 -5.697181

vn 0.4029319 -0.8217618 0.4029309
vn 0.6176319 -0.4868899 0.6176319
vn 0.8734635 -0.4868897 0
vn 0.5698321 -0.8217611 0
vn 0.6176319 -0.4868899 -0.6176319
vn 0.4029317 -0.8217615 -0.4029317
vn 0 -0.4868901 -0.8734632
vn 0 -0.8217611 -0.5698321
vn -0.6176319 -0.4868899 -0.6176319
vn -0.4029317 -0.8217615 -0.4029317
vn -0.8734632 -0.4868901 0
vn -0.5698321 -0.8217611 0
vn -0.6176319 -0.4868899 0.6176319
vn -0.4029319 -0.8217618 0.4029309
vn 0 -0.4868901 0.8734632
vn 0 -0.8217611 0.5698321
vn 0.6176319 -0.4868899 0.6176319
vn 0.4029319 -0.8217618 0.4029309
vn 0.7071068 0 -0.7071068
vn 0 0 -1
vn -0.7071068 0 -0.7071068
vn -1 0 0
vn -0.7071068 0 0.7071068
vn 0 0 1
vn 0.7071068 0 0.7071068
vn 0 0.4868901 -0.8734632
vn 0.6176319 0.4868899 -0.6176319
vn 1 0 0
vn 0.7071068 0 0.7071068
vn 0.8734635 0.4868897 0
vn 0.6176319 0.4868899 0.6176319
vn -0.6176319 0.4868899 -0.6176319
vn -0.8734632 0.4868901 0
vn -0.6176319 0.4868899 0.6176319
vn 0 0.4868901 0.8734632
vn 0.6176319 0.4868899 0.6176319
vn 0.6324968 0.7745628 0
vn 0.4472429 0.7745628 0.4472429
vn 0.4472429 0.7745628 -0.4472429
vn 0 0.7745628 -0.6324968
vn -0.4472429 0.7745628 -0.4472429
vn -0.6324968 0.7745628 0
vn -0.4472429 0.7745628 0.4472429
vn 0 0.7745628 0.6324968
vn 0.4472429 0.7745628 0.4472429
vn 0.3338972 0.9426095 0
vn 0.2361011 0.9426095 0.2361011
vn 0.2361011 0.9426095 -0.2361011
vn 0 0.9426095 -0.3338972
vn -0.2361011 0.9426095 -0.2361011
vn -0.3338972 0.9426095 0
vn -0.2361011 0.9426095 0.2361011
vn 0 0.9426095 0.3338972
vn 0.2361011 0.9426095 0.2361011
vn 0.6565936 -0.7542445 0
vn 0 -1 0
vn 0.4642817 -0.7542446 0.4642817
vn 0.9105454 -0.4134092 0
vn 0.6438529 -0.4134089 0.6438529
vn 0.4714979 0.7452378 0.4714979
vn 0.6667988 0.7452378 0
vn 0.6438529 -0.4134089 -0.6438529
vn 0.4714979 0.7452378 -0.4714979
vn 0 -0.4134092 -0.9105454
vn 0 0.7452378 -0.6667988
vn -0.6438529 -0.4134089 -0.6438529
vn -0.4714979 0.7452378 -0.4714979
vn -0.9105454 -0.4134092 0
vn -0.6667988 0.7452378 0
vn -0.6438529 -0.4134089 0.6438529
vn -0.4714979 0.7452378 0.4714979
vn 0 -0.4134088 0.9105455
vn 0 0.7452378 0.6667988
vn 0.6438529 -0.4134089 0.6438529
vn 0.4714979 0.7452378 0.4714979
vn 0.4642817 -0.7542446 -0.4642817
vn 0 -1 0
vn 0 -0.754245 -0.6565931
vn 0 -1 0
vn -0.4642817 -0.7542446 -0.4642817
vn 0 -1 0
vn -0.6565936 -0.7542445 0
vn 0 -1 0
vn -0.4642817 -0.7542446 0.4642817
vn 0 -1 0
vn 0 -0.7542445 0.6565936
vn 0 -1 0
vn 0.4642817 -0.7542446 0.4642817
vn 0 -1 0
vn 0.3888832 0.8351884 0.3888832
vn 0 0.8351882 0.5499642
vn 0.2297351 -0.9457502 0.2297351
vn 0 -0.9457504 0.3248941
vn -0.2297351 -0.9457502 0.2297351
vn -0.3248941 -0.9457504 0
vn -0.2297351 -0.9457502 -0.2297351
vn 0 -0.9457504 -0.3248941
vn 0.2297351 -0.9457502 -0.2297351
vn 0.3248941 -0.9457504 0
vn 0.2297351 -0.9457502 0.2297351
vn 0.3888832 0.8351884 0.3888832
vn 0.549963 0.835189 0
vn 0.3888829 0.8351887 -0.3888829
vn 0 0.8351882 -0.5499642
vn -0.3888832 0.8351884 -0.3888832
vn -0.5499637 0.8351886 0
vn -0.3888832 0.8351884 0.3888832
vn -0.2361011 0.9426095 -0.2361011
vn -0.2806031 0.9178913 -0.2806021
vn -0.3968321 0.9178913 0
vn -0.3338972 0.9426095 0
vn 0 0.9426095 -0.3338972
vn 0 0.9178913 -0.3968321
vn -0.2806031 0.9178913 -0.2806021
vn -0.2361011 0.9426095 -0.2361011
vn 0.2361011 0.9426095 -0.2361011
vn 0.2806031 0.9178913 -0.2806021
vn 0 0.9178913 -0.3968321
vn 0 0.9426095 -0.3338972
vn 0.3338972 0.9426095 0
vn 0.3968321 0.9178913 0
vn 0.2806031 0.9178913 -0.2806021
vn 0.2361011 0.9426095 -0.2361011
vn 0.2361011 0.9426095 0.2361011
vn 0.280603 0.917891 0.280603
vn 0.3968321 0.9178913 0
vn 0.3338972 0.9426095 0
vn 0 0.9426095 0.3338972
vn 0 0.9178913 0.3968321
vn 0.280603 0.917891 0.280603
vn 0.2361011 0.9426095 0.2361011
vn -0.2361011 0.9426095 0.2361011
vn -0.2806031 0.9178913 0.2806021
vn 0 0.9178913 0.3968321
vn 0 0.9426095 0.3338972
vn -0.3338972 0.9426095 0
vn -0.3968321 0.9178913 0
vn -0.2806031 0.9178913 0.2806021
vn -0.2361011 0.9426095 0.2361011
vn -0.2806031 0.9178913 -0.2806021
vn -0.7071068 0 -0.7071068
vn -1 0 0
vn -0.3968321 0.9178913 0
vn 0 0.9178913 -0.3968321
vn 0 0 -1
vn -0.7071068 0 -0.7071068
vn -0.2806031 0.9178913 -0.2806021
vn 0.2806031 0.9178913 -0.2806021
vn 0.7071068 0 -0.7071068
vn 0 0 -1
vn 0 0.9178913 -0.3968321
vn 0.3968321 0.9178913 0
vn 1 0 0
vn 0.7071068 0 -0.7071068
vn 0.2806031 0.9178913 -0.2806021
vn 0.280603 0.917891 0.280603
vn 0.7071068 0 0.7071068
vn 1 0 0
vn 0.3968321 0.9178913 0
vn 0 0.9178913 0.3968321
vn 0 0 1
vn 0.7071068 0 0.7071068
vn 0.280603 0.917891 0.280603
vn -0.2806031 0.9178913 0.2806021
vn -0.7071068 0 0.7071068
vn 0 0 1
vn 0 0.9178913 0.3968321
vn -0.3968321 0.9178913 0
vn -1 0 0
vn -0.7071068 0 0.7071068
vn -0.2806031 0.9178913 0.2806021

vt 0 0.25
vt 0 0.375
vt 0.125 0.375
vt 0.125 0.25
vt 0.25 0.375
vt 0.25 0.25
vt 0.375 0.375
vt 0.375 0.25
vt 0.5 0.375
vt 0.5 0.25
vt 0.625 0.375
vt 0.625 0.25
vt 0.75 0.375
vt 0.75 0.25
vt 0.875 0.375
vt 0.875 0.25
vt 1 0.375
vt 1 0.25
vt 0.25 0.5
vt 0.375 0.5
vt 0.5 0.5
vt 0.625 0.5
vt 0.75 0.5
vt 0.875 0.5
vt 1 0.5
vt 0.375 0.625
vt 0.25 0.625
vt 0.125 0.5
vt 0 0.5
vt 0.125 0.625
vt 0 0.625
vt 0.5 0.625
vt 0.625 0.625
vt 0.75 0.625
vt 0.875 0.625
vt 1 0.625
vt 0.125 0.75
vt 0 0.75
vt 0.25 0.75
vt 0.375 0.75
vt 0.5 0.75
vt 0.625 0.75
vt 0.75 0.75
vt 0.875 0.75
vt 1 0.75
vt 0.125 0.824774
vt 0 0.824774
vt 0.25 0.824774
vt 0.375 0.824774
vt 0.5 0.824774
vt 0.625 0.824774
vt 0.75 0.824774
vt 0.875 0.824774
vt 1 0.824774
vt 0.125 0.125
vt 0.0625 0
vt 0 0.125
vt 0.125 0.140667
vt 0 0.140667
vt 0 0.156331
vt 0.125 0.156331
vt 0.25 0.140667
vt 0.25 0.156331
vt 0.375 0.140667
vt 0.375 0.156331
vt 0.5 0.140667
vt 0.5 0.156331
vt 0.625 0.140667
vt 0.625 0.156331
vt 0.75 0.140667
vt 0.75 0.156331
vt 0.875 0.140667
vt 0.875 0.156331
vt 1 0.140667
vt 1 0.156331
vt 0.25 0.125
vt 0.1875 0
vt 0.375 0.125
vt 0.3125 0
vt 0.5 0.125
vt 0.4375 0
vt 0.625 0.125
vt 0.5625 0
vt 0.75 0.125
vt 0.6875 0
vt 0.875 0.125
vt 0.8125 0
vt 1 0.125
vt 0.9375 0
vt 1 0.156331
vt 0.875 0.156331
vt 1 0.156331
vt 0.875 0.156331
vt 0.75 0.156331
vt 0.625 0.156331
vt 0.5 0.156331
vt 0.375 0.156331
vt 0.25 0.156331
vt 0.125 0.156331
vt 0 0.156331
vt 0 0.156331
vt 0.125 0.156331
vt 0.25 0.156331
vt 0.375 0.156331
vt 0.5 0.156331
vt 0.625 0.156331
vt 0.75 0.156331
vt 0 0
vt 0 1
vt 1 1
vt 1 0
vt 0 0
vt 0 1
vt 1 1
vt 1 0
vt 0 0
vt 0 1
vt 1 1
vt 1 0
vt 0 0
vt 0 1
vt 1 1
vt 1 0
vt 0 0
vt 0 1
vt 1 1
vt 1 0
vt 0 0
vt 0 1
vt 1 1
vt 1 0
vt 0 0
vt 0 1
vt 1 1
vt 1 0
vt 0 0
vt 0 1
vt 1 1
vt 1 0
vt 0 0
vt 0 1
vt 1 1
vt 1 0
vt 0 0
vt 0 1
vt 1 1
vt 1 0
vt 0 0
vt 0 1
vt 1 1
vt 1 0
vt 0 0
vt 0 1
vt 1 1
vt 1 0
vt 0 0
vt 0 1
vt 1 1
vt 1 0
vt 0 0
vt 0 1
vt 1 1
vt 1 0
vt 0 0
vt 0 1
vt 1 1
vt 1 0
vt 0 0
vt 0 1
vt 1 1
vt 1 0
f 1/1/1 3/3/3 2/2/2
f 1/1/1 4/4/4 3/3/3
f 4/4/4 5/5/5 3/3/3
f 4/4/4 6/6/6 5/5/5
f 6/6/6 7/7/7 5/5/5
f 6/6/6 8/8/8 7/7/7
f 8/8/8 9/9/9 7/7/7
f 8/8/8 10/10/10 9/9/9
f 10/10/10 11/11/11 9/9/9
f 10/10/10 12/12/12 11/11/11
f 12/12/12 13/13/13 11/11/11
f 12/12/12 14/14/14 13/13/13
f 14/14/14 15/15/15 13/13/13
f 14/14/14 16/16/16 15/15/15
f 16/16/16 17/17/17 15/15/15
f 16/16/16 18/18/18 17/17/17
f 3/3/3 5/5/5 19/19/19
f 5/5/5 20/20/20 19/19/19
f 5/5/5 7/7/7 20/20/20
f 7/7/7 21/21/21 20/20/20
f 7/7/7 9/9/9 21/21/21
f 9/9/9 22/22/22 21/21/21
f 9/9/9 11/11/11 22/22/22
f 11/11/11 23/23/23 22/22/22
f 11/11/11 13/13/13 23/23/23
f 13/13/13 24/24/24 23/23/23
f 13/13/13 15/15/15 24/24/24
f 15/15/15 25/25/25 24/24/24
f 15/15/15 17/17/17 25/25/25
f 19/19/19 20/20/20 26/26/26
f 19/19/19 26/26/26 27/27/27
f 28/28/28 19/19/19 27/27/27
f 3/3/3 19/19/19 28/28/28
f 2/2/2 3/3/3 28/28/28
f 2/2/2 28/28/28 29/29/29
f 29/29/29 28/28/28 30/30/30
f 28/28/28 27/27/27 30/30/30
f 29/29/29 30/30/30 31/31/31
f 20/20/20 32/32/32 26/26/26
f 20/20/20 21/21/21 32/32/32
f 21/21/21 33/33/33 32/32/32
f 21/21/21 22/22/22 33/33/33
f 22/22/22 34/34/34 33/33/33
f 22/22/22 23/23/23 34/34/34
f 23/23/23 35/35/35 34/34/34
f 23/23/23 24/24/24 35/35/35
f 24/24/24 36/36/36 35/35/35
f 24/24/24 25/25/25 36/36/36
f 31/31/31 30/30/30 37/37/37
f 31/31/31 37/37/37 38/38/38
f 30/30/30 39/39/39 37/37/37
f 30/30/30 27/27/27 39/39/39
f 27/27/27 40/40/40 39/39/39
f 27/27/27 26/26/26 40/40/40
f 26/26/26 41/41/41 40/40/40
f 26/26/26 32/32/32 41/41/41
f 32/32/32 42/42/42 41/41/41
f 32/32/32 33/33/33 42/42/42
f 33/33/33 43/43/43 42/42/42
f 33/33/33 34/34/34 43/43/43
f 34/34/34 44/44/44 43/43/43
f 34/34/34 35/35/35 44/44/44
f 35/35/35 45/45/45 44/44/44
f 35/35/35 36/36/36 45/45/45
f 38/38/38 37/37/37 46/46/46
f 38/38/38 46/46/46 47/47/47
f 37/37/37 48/48/48 46/46/46
f 37/37/37 39/39/39 48/48/48
f 39/39/39 49/49/49 48/48/48
f 39/39/39 40/40/40 49/49/49
f 40/40/40 50/50/50 49/49/49
f 40/40/40 41/41/41 50/50/50
f 41/41/41 51/51/51 50/50/50
f 41/41/41 42/42/42 51/51/51
f 42/42/42 52/52/52 51/51/51
f 42/42/42 43/43/43 52/52/52
f 43/43/43 53/53/53 52/52/52
f 43/43/43 44/44/44 53/53/53
f 44/44/44 54/54/54 53/53/53
f 44/44/44 45/45/45 54/54/54
f 55/55/55 57/57/57 56/56/56
f 57/57/57 55/55/55 58/58/58
f 57/57/57 58/58/58 59/59/59
f 58/58/58 60/60/60 59/59/59
f 58/58/58 61/61/61 60/60/60
f 61/61/61 58/58/58 62/62/62
f 55/55/55 62/62/62 58/58/58
f 61/61/61 62/62/62 63/63/63
f 63/63/63 62/62/62 64/64/64
f 63/63/63 64/64/64 65/65/65
f 65/65/65 64/64/64 66/66/66
f 65/65/65 66/66/66 67/67/67
f 67/67/67 66/66/66 68/68/68
f 67/67/67 68/68/68 69/69/69
f 69/69/69 68/68/68 70/70/70
f 69/69/69 70/70/70 71/71/71
f 71/71/71 70/70/70 72/72/72
f 71/71/71 72/72/72 73/73/73
f 74/74/74 73/73/73 72/72/72
f 74/74/74 75/75/75 73/73/73
f 76/76/76 64/64/64 62/62/62
f 55/55/55 76/76/76 62/62/62
f 76/76/76 55/55/55 77/77/77
f 76/76/76 78/78/78 64/64/64
f 78/78/78 66/66/66 64/64/64
f 78/78/78 76/76/76 79/79/79
f 78/78/78 80/80/80 66/66/66
f 80/80/80 68/68/68 66/66/66
f 80/80/80 78/78/78 81/81/81
f 80/80/80 82/82/82 68/68/68
f 82/82/82 70/70/70 68/68/68
f 82/82/82 80/80/80 83/83/83
f 82/82/82 84/84/84 70/70/70
f 84/84/84 72/72/72 70/70/70
f 84/84/84 82/82/82 85/85/85
f 84/84/84 86/86/86 72/72/72
f 86/86/86 74/74/74 72/72/72
f 86/86/86 84/84/84 87/87/87
f 86/86/86 88/88/88 74/74/74
f 88/88/88 86/86/86 89/89/89
f 90/90/90 73/73/73 75/75/75
f 90/90/90 91/91/91 73/73/73
f 92/92/92 91/91/91 90/90/90
f 92/92/92 93/93/93 91/91/91
f 93/93/93 92/92/92 18/18/18
f 93/93/93 18/18/18 16/16/16
f 94/94/94 93/93/93 16/16/16
f 94/94/94 16/16/16 14/14/14
f 95/95/95 94/94/94 14/14/14
f 95/95/95 14/14/14 12/12/12
f 96/96/96 95/95/95 12/12/12
f 96/96/96 12/12/12 10/10/10
f 97/97/97 96/96/96 10/10/10
f 97/97/97 10/10/10 8/8/8
f 98/98/98 97/97/97 8/8/8
f 98/98/98 8/8/8 6/6/6
f 99/99/99 98/98/98 6/6/6
f 99/99/99 6/6/6 4/4/4
f 100/100/100 99/99/99 4/4/4
f 100/100/100 4/4/4 1/1/1
f 99/99/99 100/100/100 101/101/101
f 99/99/99 101/101/101 102/102/102
f 98/98/98 99/99/99 102/102/102
f 98/98/98 102/102/102 103/103/103
f 97/97/97 98/98/98 103/103/103
f 97/97/97 103/103/103 104/104/104
f 96/96/96 97/97/97 104/104/104
f 96/96/96 104/104/104 105/105/105
f 95/95/95 96/96/96 105/105/105
f 95/95/95 105/105/105 106/106/106
f 94/94/94 95/95/95 106/106/106
f 94/94/94 106/106/106 107/107/107
f 93/93/93 94/94/94 107/107/107
f 93/93/93 107/107/107 91/91/91
f 91/91/91 107/107/107 71/71/71
f 91/91/91 71/71/71 73/73/73
f 102/102/102 101/101/101 60/60/60
f 102/102/102 60/60/60 61/61/61
f 103/103/103 102/102/102 61/61/61
f 103/103/103 61/61/61 63/63/63
f 104/104/104 103/103/103 63/63/63
f 104/104/104 63/63/63 65/65/65
f 105/105/105 104/104/104 65/65/65
f 105/105/105 65/65/65 67/67/67
f 106/106/106 105/105/105 67/67/67
f 106/106/106 67/67/67 69/69/69
f 107/107/107 69/69/69 71/71/71
f 107/107/107 106/106/106 69/69/69
f 108/108/108 110/110/110 109/109/109
f 108/108/108 111/111/111 110/110/110
f 112/112/112 114/114/114 113/113/113
f 112/112/112 115/115/115 114/114/114
f 116/116/116 118/118/118 117/117/117
f 116/116/116 119/119/119 118/118/118
f 120/120/120 122/122/122 121/121/121
f 120/120/120 123/123/123 122/122/122
f 124/124/124 126/126/126 125/125/125
f 124/124/124 127/127/127 126/126/126
f 128/128/128 130/130/130 129/129/129
f 128/128/128 131/131/131 130/130/130
f 132/132/132 134/134/134 133/133/133
f 132/132/132 135/135/135 134/134/134
f 136/136/136 138/138/138 137/137/137
f 136/136/136 139/139/139 138/138/138
f 140/140/140 142/142/142 141/141/141
f 140/140/140 143/143/143 142/142/142
f 144/144/144 146/146/146 145/145/145
f 144/144/144 147/147/147 146/146/146
f 148/148/148 150/150/150 149/149/149
f 148/148/148 151/151/151 150/150/150
f 152/152/152 154/154/154 153/153/153
f 152/152/152 155/155/155 154/154/154
f 156/156/156 158/158/158 157/157/157
f 156/156/156 159/159/159 158/158/158
f 160/160/160 162/162/162 161/161/161
f 160/160/160 163/163/163 162/162/162
f 164/164/164 166/166/166 165/165/165
f 164/164/164 167/167/167 166/166/166
f 168/168/168 170/170/170 169/169/169
f 168/168/168 171/171/171 170/170/170
