mtllib Hallway_01_Kitchen_GEO_GRP1.mtl
usemtl Hallway_01_Kitchen_GEO_GRP1

g Hallway_01_Kitchen_GEO_GRP1
v 13.77668 -0.006972 -1.652025
v 13.77668 -0.006972 -2.00547
v 13.77668 2.369841 -2.00547
v 13.77668 2.369841 -1.652025
v 15.02911 -0.006972 -1.652025
v 15.02911 -0.006972 -2.00547
v 13.77668 -0.006972 -2.00547
v 13.77668 -0.006972 -1.652025
v 15.02911 2.369841 -1.652025
v 15.02911 2.369841 -2.00547
v 15.02911 -0.006972 -2.00547
v 15.02911 -0.006972 -1.652025
v 13.77668 2.369841 -1.652025
v 13.77668 2.369841 -2.00547
v 15.02911 2.369841 -2.00547
v 15.02911 2.369841 -1.652025
v 15.47941 -0.006972 -1.652025
v 15.47941 2.369841 -1.652025
v 15.02911 2.369841 -1.652025
v 15.02911 -0.006972 -1.652025
v 15.02911 3.513836 -1.652025
v 13.77668 2.369841 -1.652025
v 13.77668 3.513836 -1.652025
v 10.51354 2.369841 -1.652025
v 10.51354 -0.006972 -1.652025
v 13.77668 -0.006972 -1.652025
v 10.51354 3.513836 -1.652025
v 15.47941 3.513836 -1.652025
v 13.77668 4.821098 -1.652025
v 10.51354 4.821098 -1.652025
v 8.592287 3.513836 -1.652025
v 8.592287 4.821098 -1.652025
v 7.404178 3.513836 -1.652025
v 7.404178 2.369841 -1.652025
v 8.592287 2.369841 -1.652025
v 8.592287 -0.006972 -1.652025
v 7.404178 -0.006972 -1.652025
v 7.404178 4.821098 -1.652025
v 15.02911 4.821098 -1.652025
v 15.47941 4.821098 -1.652025
v 15.47941 4.821098 -1.652025
v 15.47941 4.821098 4.266488
v 15.02911 4.821098 4.266488
v 15.02911 4.821098 -1.652025
v 13.77668 4.821098 4.266488
v 13.77668 4.821098 -1.652025
v 10.51354 4.821098 4.266488
v 10.51354 4.821098 -1.652025
v 8.592287 4.821098 4.266488
v 8.592287 4.821098 -1.652025
v 7.404178 4.821098 4.266488
v 7.404178 4.821098 -1.652025
v 15.47941 2.369841 4.266488
v 15.47941 -0.006972 4.266488
v 15.02911 -0.006972 4.266488
v 15.02911 2.369841 4.266488
v 13.77668 2.369841 4.266488
v 13.77668 -0.006972 4.266488
v 10.51354 2.369841 4.266488
v 10.51354 -0.006972 4.266488
v 8.592287 2.369841 4.266488
v 8.592287 -0.006972 4.266488
v 7.404178 2.369841 4.266488
v 7.404178 -0.006972 4.266488
v 15.47941 3.513836 4.266488
v 15.02911 3.513836 4.266488
v 13.77668 3.513836 4.266488
v 10.51354 3.513836 4.266488
v 8.592287 3.513836 4.266488
v 7.404178 3.513836 4.266488
v 15.47941 4.821098 4.266488
v 15.02911 4.821098 4.266488
v 13.77668 4.821098 4.266488
v 10.51354 4.821098 4.266488
v 8.592287 4.821098 4.266488
v 7.404178 4.821098 4.266488
v 15.47941 -0.006972 4.266488
v 15.47941 -0.006972 -1.652025
v 15.02911 -0.006972 -1.652025
v 15.02911 -0.006972 4.266488
v 13.77668 -0.006972 4.266488
v 13.77668 -0.006972 -1.652025
v 10.51354 -0.006972 4.266488
v 10.51354 -0.006972 -1.652025
v 8.592287 -0.006972 4.266488
v 8.592287 -0.006972 -1.652025
v 7.404178 -0.006972 4.266488
v 7.404178 -0.006972 -1.652025
v 7.404178 -0.006972 -1.652025
v 7.404178 2.369841 -1.652025
v 7.404178 2.369841 4.266488
v 7.404178 -0.006972 4.266488
v 7.404178 3.513836 4.266488
v 7.404178 3.513836 -1.652025
v 7.404178 4.821098 4.266488
v 7.404178 4.821098 -1.652025
v 15.47941 -0.006972 4.266488
v 15.47941 2.369841 4.266488
v 15.47941 2.369841 -1.652025
v 15.47941 -0.006972 -1.652025
v 15.47941 3.513836 -1.652025
v 15.47941 3.513836 4.266488
v 15.47941 4.821098 -1.652025
v 15.47941 4.821098 4.266488

vn -1 0 0
vn -1 0 0
vn -1 0 0
vn -1 0 0
vn 0 -1 0
vn 0 -1 0
vn 0 -1 0
vn 0 -1 0
vn 1 0 0
vn 1 0 0
vn 1 0 0
vn 1 0 0
vn 0 1 0
vn 0 1 0
vn 0 1 0
vn 0 1 0
vn 0 0 -1
vn 0 0 -1
vn 0 0 -1
vn 0 0 -1
vn 0 0 -1
vn 0 0 -1
vn 0 0 -1
vn 0 0 -1
vn 0 0 -1
vn 0 0 -1
vn 0 0 -1
vn 0 0 -1
vn 0 0 -1
vn 0 0 -1
vn 0 0 -1
vn 0 0 -1
vn 0 0 -1
vn 0 0 -1
vn 0 0 -1
vn 0 0 -1
vn 0 0 -1
vn 0 0 -1
vn 0 0 -1
vn 0 0 -1
vn 0 1 0
vn 0 1 0
vn 0 1 0
vn 0 1 0
vn 0 1 0
vn 0 1 0
vn 0 1 0
vn 0 1 0
vn 0 1 0
vn 0 1 0
vn 0 1 0
vn 0 1 0
vn 0 0 1
vn 0 0 1
vn 0 0 1
vn 0 0 1
vn 0 0 1
vn 0 0 1
vn 0 0 1
vn 0 0 1
vn 0 0 1
vn 0 0 1
vn 0 0 1
vn 0 0 1
vn 0 0 1
vn 0 0 1
vn 0 0 1
vn 0 0 1
vn 0 0 1
vn 0 0 1
vn 0 0 1
vn 0 0 1
vn 0 0 1
vn 0 0 1
vn 0 0 1
vn 0 0 1
vn 0 -1 0
vn 0 -1 0
vn 0 -1 0
vn 0 -1 0
vn 0 -1 0
vn 0 -1 0
vn 0 -1 0
vn 0 -1 0
vn 0 -1 0
vn 0 -1 0
vn 0 -1 0
vn 0 -1 0
vn -1 0 0
vn -1 0 0
vn -1 0 0
vn -1 0 0
vn -1 0 0
vn -1 0 0
vn -1 0 0
vn -1 0 0
vn 1 0 0
vn 1 0 0
vn 1 0 0
vn 1 0 0
vn 1 0 0
vn 1 0 0
vn 1 0 0
vn 1 0 0

vt 0 0
vt 0 1
vt 1 1
vt 1 0
vt 0 0
vt 0 1
vt 1 1
vt 1 0
vt 0 0
vt 0 1
vt 1 1
vt 1 0
vt 0 0
vt 0 1
vt 1 1
vt 1 0
vt 0.375 0
vt 0.375 0.123073
vt 0.388941 0.123073
vt 0.388941 0
vt 0.388941 0.182309
vt 0.427715 0.123073
vt 0.427715 0.182309
vt 0.528738 0.123073
vt 0.528738 0
vt 0.427715 0
vt 0.528738 0.182309
vt 0.375 0.182309
vt 0.427715 0.25
vt 0.528738 0.25
vt 0.588217 0.182309
vt 0.588217 0.25
vt 0.625 0.182309
vt 0.625 0.123073
vt 0.588217 0.123073
vt 0.588217 0
vt 0.625 0
vt 0.625 0.25
vt 0.388941 0.25
vt 0.375 0.25
vt 0.375 0.25
vt 0.375 0.5
vt 0.388941 0.5
vt 0.388941 0.25
vt 0.427715 0.5
vt 0.427715 0.25
vt 0.528738 0.5
vt 0.528738 0.25
vt 0.588217 0.5
vt 0.588217 0.25
vt 0.625 0.5
vt 0.625 0.25
vt 0.375 0.626927
vt 0.375 0.75
vt 0.388941 0.75
vt 0.388941 0.626927
vt 0.427715 0.626927
vt 0.427715 0.75
vt 0.528738 0.626927
vt 0.528738 0.75
vt 0.588217 0.626927
vt 0.588217 0.75
vt 0.625 0.626927
vt 0.625 0.75
vt 0.375 0.567691
vt 0.388941 0.567691
vt 0.427715 0.567691
vt 0.528738 0.567691
vt 0.588217 0.567691
vt 0.625 0.567691
vt 0.375 0.5
vt 0.388941 0.5
vt 0.427715 0.5
vt 0.528738 0.5
vt 0.588217 0.5
vt 0.625 0.5
vt 0.375 0.75
vt 0.375 1
vt 0.388941 1
vt 0.388941 0.75
vt 0.427715 0.75
vt 0.427715 1
vt 0.528738 0.75
vt 0.528738 1
vt 0.588217 0.75
vt 0.588217 1
vt 0.625 0.75
vt 0.625 1
vt 0.625 0
vt 0.625 0.123073
vt 0.875 0.123073
vt 0.875 0
vt 0.875 0.182309
vt 0.625 0.182309
vt 0.875 0.25
vt 0.625 0.25
vt 0.125 0
vt 0.125 0.123073
vt 0.375 0.123073
vt 0.375 0
vt 0.375 0.182309
vt 0.125 0.182309
vt 0.375 0.25
vt 0.125 0.25
f 1/1/1 3/3/3 2/2/2
f 1/1/1 4/4/4 3/3/3
f 5/5/5 7/7/7 6/6/6
f 5/5/5 8/8/8 7/7/7
f 9/9/9 11/11/11 10/10/10
f 9/9/9 12/12/12 11/11/11
f 13/13/13 15/15/15 14/14/14
f 13/13/13 16/16/16 15/15/15
f 17/17/17 19/19/19 18/18/18
f 17/17/17 20/20/20 19/19/19
f 18/18/18 19/19/19 21/21/21
f 21/21/21 19/19/19 22/22/22
f 21/21/21 22/22/22 23/23/23
f 23/23/23 22/22/22 24/24/24
f 22/22/22 25/25/25 24/24/24
f 22/22/22 26/26/26 25/25/25
f 23/23/23 24/24/24 27/27/27
f 18/18/18 21/21/21 28/28/28
f 29/29/29 23/23/23 27/27/27
f 29/29/29 27/27/27 30/30/30
f 30/30/30 27/27/27 31/31/31
f 30/30/30 31/31/31 32/32/32
f 32/32/32 31/31/31 33/33/33
f 31/31/31 34/34/34 33/33/33
f 31/31/31 35/35/35 34/34/34
f 34/34/34 35/35/35 36/36/36
f 34/34/34 36/36/36 37/37/37
f 32/32/32 33/33/33 38/38/38
f 39/39/39 23/23/23 29/29/29
f 39/39/39 21/21/21 23/23/23
f 28/28/28 21/21/21 39/39/39
f 28/28/28 39/39/39 40/40/40
f 41/41/41 43/43/43 42/42/42
f 41/41/41 44/44/44 43/43/43
f 44/44/44 45/45/45 43/43/43
f 44/44/44 46/46/46 45/45/45
f 46/46/46 47/47/47 45/45/45
f 46/46/46 48/48/48 47/47/47
f 48/48/48 49/49/49 47/47/47
f 48/48/48 50/50/50 49/49/49
f 50/50/50 51/51/51 49/49/49
f 50/50/50 52/52/52 51/51/51
f 53/53/53 55/55/55 54/54/54
f 53/53/53 56/56/56 55/55/55
f 55/55/55 56/56/56 57/57/57
f 55/55/55 57/57/57 58/58/58
f 58/58/58 57/57/57 59/59/59
f 58/58/58 59/59/59 60/60/60
f 60/60/60 59/59/59 61/61/61
f 60/60/60 61/61/61 62/62/62
f 62/62/62 61/61/61 63/63/63
f 62/62/62 63/63/63 64/64/64
f 65/65/65 56/56/56 53/53/53
f 65/65/65 66/66/66 56/56/56
f 57/57/57 56/56/56 66/66/66
f 57/57/57 66/66/66 67/67/67
f 59/59/59 57/57/57 67/67/67
f 59/59/59 67/67/67 68/68/68
f 61/61/61 59/59/59 68/68/68
f 61/61/61 68/68/68 69/69/69
f 63/63/63 61/61/61 69/69/69
f 63/63/63 69/69/69 70/70/70
f 71/71/71 66/66/66 65/65/65
f 71/71/71 72/72/72 66/66/66
f 67/67/67 66/66/66 72/72/72
f 67/67/67 72/72/72 73/73/73
f 68/68/68 67/67/67 73/73/73
f 68/68/68 73/73/73 74/74/74
f 69/69/69 68/68/68 74/74/74
f 69/69/69 74/74/74 75/75/75
f 70/70/70 69/69/69 75/75/75
f 70/70/70 75/75/75 76/76/76
f 77/77/77 79/79/79 78/78/78
f 77/77/77 80/80/80 79/79/79
f 79/79/79 80/80/80 81/81/81
f 79/79/79 81/81/81 82/82/82
f 82/82/82 81/81/81 83/83/83
f 82/82/82 83/83/83 84/84/84
f 84/84/84 83/83/83 85/85/85
f 84/84/84 85/85/85 86/86/86
f 86/86/86 85/85/85 87/87/87
f 86/86/86 87/87/87 88/88/88
f 89/89/89 91/91/91 90/90/90
f 89/89/89 92/92/92 91/91/91
f 90/90/90 91/91/91 93/93/93
f 90/90/90 93/93/93 94/94/94
f 94/94/94 93/93/93 95/95/95
f 94/94/94 95/95/95 96/96/96
f 97/97/97 99/99/99 98/98/98
f 97/97/97 100/100/100 99/99/99
f 98/98/98 99/99/99 101/101/101
f 98/98/98 101/101/101 102/102/102
f 102/102/102 101/101/101 103/103/103
f 102/102/102 103/103/103 104/104/104
