mtllib Kitchen_GEO_GRP1_polySurface125_Window_Frame.mtl
usemtl Kitchen_GEO_GRP1_polySurface125_Window_Frame

g Kitchen_GEO_GRP1_polySurface125_Window_Frame
v 12.11728 1.0361 -8.710027
v 12.11728 2.36012 -8.653451
v 11.02499 2.36012 -8.653451
v 11.02499 1.0361 -8.710027
v 12.11728 2.36012 -8.653451
v 12.11728 2.358468 -8.614785
v 11.02499 2.358468 -8.614785
v 11.02499 2.36012 -8.653451
v 11.02499 1.0361 -8.710027
v 11.02499 2.36012 -8.653451
v 11.02499 2.358468 -8.614785
v 11.02499 1.034448 -8.671361
v 12.11728 1.034448 -8.671361
v 12.11728 2.358468 -8.614785
v 12.11728 2.36012 -8.653451
v 12.11728 1.0361 -8.710027
v 12.11728 2.358468 -8.614785
v 11.91546 2.113832 -8.625238
v 11.22681 2.113832 -8.625238
v 11.02499 2.358468 -8.614785
v 11.22681 1.279084 -8.660908
v 11.02499 1.034448 -8.671361
v 12.11728 1.034448 -8.671361
v 11.91546 1.279084 -8.660908
v 11.02499 1.034448 -8.671361
v 11.22681 1.279084 -8.660908
v 11.91546 1.279084 -8.660908
v 12.11728 1.034448 -8.671361
v 12.11728 1.034448 -8.671361
v 12.11728 1.0361 -8.710027
v 11.02499 1.0361 -8.710027
v 11.02499 1.034448 -8.671361

vn 0 0.04269201 -0.9990883
vn 0 0.04269201 -0.9990883
vn 0 0.04269201 -0.9990883
vn 0 0.04269201 -0.9990883
vn 0 0.9990886 0.04268198
vn 0 0.9990886 0.04268198
vn 0 0.9990886 0.04268198
vn 0 0.9990886 0.04268198
vn -1 0 0
vn -1 0 0
vn -1 0 0
vn -1 0 0
vn 1 0 0
vn 1 0 0
vn 1 0 0
vn 1 0 0
vn 0 -0.04269101 0.9990883
vn 0 -0.04269101 0.9990883
vn 0 -0.04269101 0.9990883
vn 0 -0.04269101 0.9990883
vn 0 -0.04269201 0.9990883
vn 0 -0.04269201 0.9990883
vn 0 -0.04269201 0.9990883
vn 0 -0.04269201 0.9990883
vn 0 -0.04269101 0.9990883
vn 0 -0.04269101 0.9990883
vn 0 -0.04269101 0.9990883
vn 0 -0.04269101 0.9990883
vn 0 -0.9990884 -0.04268798
vn 0 -0.9990884 -0.04268798
vn 0 -0.9990884 -0.04268798
vn 0 -0.9990884 -0.04268798

vt 0.435006 0.184569
vt 0.428747 0.353757
vt 0.581493 0.354042
vt 0.582916 0.178595
vt 0.428747 0.353757
vt 0.428747 0.353757
vt 0.581493 0.354042
vt 0.581493 0.354042
vt 0.582916 0.178595
vt 0.581493 0.354042
vt 0.581493 0.354042
vt 0.582916 0.178595
vt 0.435006 0.184569
vt 0.428747 0.353757
vt 0.428747 0.353757
vt 0.435006 0.184569
vt 0.428747 0.353757
vt 0.463376 0.322302
vt 0.546011 0.322018
vt 0.581493 0.354042
vt 0.548571 0.209766
vt 0.582916 0.178595
vt 0.435006 0.184569
vt 0.465083 0.211188
vt 0.582916 0.178595
vt 0.548571 0.209766
vt 0.465083 0.211188
vt 0.435006 0.184569
vt 0.435006 0.184569
vt 0.435006 0.184569
vt 0.582916 0.178595
vt 0.582916 0.178595
f 1/1/1 3/3/3 2/2/2
f 1/1/1 4/4/4 3/3/3
f 5/5/5 7/7/7 6/6/6
f 5/5/5 8/8/8 7/7/7
f 9/9/9 11/11/11 10/10/10
f 9/9/9 12/12/12 11/11/11
f 13/13/13 15/15/15 14/14/14
f 13/13/13 16/16/16 15/15/15
f 17/17/17 19/19/19 18/18/18
f 17/17/17 20/20/20 19/19/19
f 20/20/20 21/21/21 19/19/19
f 20/20/20 22/22/22 21/21/21
f 23/23/23 17/17/17 18/18/18
f 23/23/23 18/18/18 24/24/24
f 25/25/25 27/27/27 26/26/26
f 25/25/25 28/28/28 27/27/27
f 29/29/29 31/31/31 30/30/30
f 29/29/29 32/32/32 31/31/31
