mtllib Kitchen_GEO_GRP1_Window_Wall.mtl
usemtl Kitchen_GEO_GRP1_Window_Wall

g Kitchen_GEO_GRP1_Window_Wall
v 10.1618 0.609558 -8.853086
v 10.54533 0.922535 -8.609891
v 10.53785 0.034389 -8.592807
v 10.1792 -0.000613 -8.540797
v 10.43071 3.609435 -8.792521
v 10.48291 2.782936 -8.631515
v 9.954346 2.953668 -8.643916
v 9.920602 3.601172 -8.793528
v 8.807931 3.584805 -8.794791
v 8.824517 2.867256 -8.645576
v 9.995305 2.095495 -8.711518
v 8.861104 1.913949 -8.718257
v 10.54576 1.682188 -8.698853
v 7.935897 2.796145 -8.849581
v 7.918434 3.572827 -8.769412
v 7.956448 1.769836 -8.849573
v 7.970253 1.087917 -8.850296
v 8.877226 1.278551 -8.679595
v 8.940042 0.414665 -8.581282
v 10.1618 0.609558 -8.853086
v 10.02302 1.52293 -8.700092
v 10.58739 0.951112 -8.752914
v 10.54533 0.922535 -8.609891
v 7.997893 0.053166 -8.742107
v 8.940042 0.414665 -8.581282
v 10.1618 0.609558 -8.853086
v 10.1792 -0.000613 -8.540797
v 9.244676 0.04515 -8.451805
v 8.347334 0.000669 -8.339473
v 7.997893 0.053166 -8.742107
v 11.47173 3.607307 -8.757899
v 12.38369 3.590187 -8.801772
v 12.43025 2.772191 -8.625524
v 11.5217 2.767344 -8.760507
v 11.57113 1.697284 -8.718988
v 12.46354 1.689504 -8.73698
v 10.48291 2.782936 -8.631515
v 10.43071 3.609435 -8.792521
v 10.54576 1.682188 -8.698853
v 11.60402 0.986304 -8.693748
v 10.58739 0.951112 -8.752914
v 12.49625 0.965432 -8.699007
v 15.10905 3.547976 -8.811716
v 15.11678 2.757135 -8.851946
v 14.63861 2.757421 -8.85135
v 14.64073 3.55521 -8.810289
v 14.65668 1.711897 -8.850983
v 15.1313 1.713311 -8.844377
v 14.67236 1.011298 -8.845809
v 15.14096 1.019742 -8.83932
v 14.09368 3.563701 -8.808133
v 14.11427 2.766589 -8.634595
v 13.52961 3.572443 -8.805917
v 13.55865 2.762961 -8.647787
v 14.14324 1.709624 -8.649388
v 13.61173 1.703597 -8.886072
v 14.16211 1.007822 -8.67067
v 13.63801 0.980954 -8.897171
v 12.95498 2.758832 -8.665433
v 12.91661 3.581944 -8.803508
v 12.43025 2.772191 -8.625524
v 12.38369 3.590187 -8.801772
v 12.46354 1.689504 -8.73698
v 12.99177 1.669955 -8.817994
v 13.01642 0.946171 -8.915961
v 12.49625 0.965432 -8.699007
v 15.11116 0.435527 -8.83559
v 14.64299 0.428142 -8.84205
v 14.16211 1.007822 -8.67067
v 14.16323 0.457424 -8.576785
v 13.63801 0.980954 -8.897171
v 13.62468 0.312806 -8.814989
v 13.01642 0.946171 -8.915961
v 13.01191 0.203958 -8.967679
v 12.49625 0.965432 -8.699007
v 12.51962 0.365783 -8.52249
v 14.64299 0.428142 -8.84205
v 15.11116 0.435527 -8.83559
v 15.04048 0.01694 -8.725539
v 14.59496 0.000712 -8.71803
v 14.16323 0.457424 -8.576785
v 14.1342 0.026305 -8.488736
v 13.62468 0.312806 -8.814989
v 13.62979 -0.008527 -8.408933
v 13.01191 0.203958 -8.967679
v 13.07373 -0.008894 -8.287045
v 12.59951 0.013718 -8.1392
v 12.51962 0.365783 -8.52249

vn -0.3314729 0.2004689 0.9219208
vn -0.3314729 0.2004689 0.9219208
vn -0.3314729 0.2004689 0.9219208
vn -0.3314729 0.2004689 0.9219208
vn 0.019795 0.207267 0.9780841
vn -0.036391 0.016882 0.999195
vn -0.006995 0.06097 0.9981151
vn -0.001164 0.211488 0.97738
vn -0.05327601 0.135586 0.9893322
vn -0.068226 0.022151 0.997424
vn -0.014774 -0.04400001 0.9989223
vn -0.08235501 -0.021359 0.9963742
vn -0.01785499 -0.04673698 0.9987476
vn -0.1480331 -0.007023003 0.9889575
vn -0.101877 0.043603 0.9938409
vn -0.1744889 -0.01203699 0.9845856
vn -0.1915201 0.07135902 0.9788912
vn -0.04258702 0.03187301 0.9985843
vn -0.04453302 0.04231302 0.9981115
vn 0.08653397 -0.01819599 0.9960827
vn 0.04768401 -0.002182 0.9988601
vn -0.1127709 -0.03197398 0.9931064
vn -0.205047 -0.03141 0.9782481
vn -0.2034369 0.09628095 0.9743425
vn -0.023724 0.562657 0.82635
vn 0.1184691 0.4402742 0.8900133
vn 0.1184689 0.4402738 0.8900135
vn 0.06017303 0.4930452 0.8679203
vn -0.1656451 0.6633723 0.7297253
vn -0.1656451 0.6633723 0.7297253
vn 0.003818 0.09915299 0.9950649
vn -0.04904702 0.101211 0.9936553
vn -0.05827702 0.02287601 0.9980384
vn 0.006008 0.031775 0.999477
vn 0.002500999 -0.009271999 0.9999539
vn -0.032548 -0.002162 0.9994679
vn 0.06018999 0.04018399 0.9973778
vn 0.04593899 0.09731498 0.9941929
vn 0.03735799 -0.013054 0.9992167
vn -0.00315 0.010395 0.999941
vn -0.018591 -0.020939 0.999608
vn 0.013732 0.04462901 0.9989092
vn 0.001728 -0.05109801 0.9986922
vn -0.002884 -0.019691 0.9998019
vn 0.164856 0.010459 0.9862622
vn 0.110371 0.021918 0.9936487
vn 0.194868 0.002523 0.9808261
vn -0.009381002 0.005058001 0.9999433
vn 0.181326 0.002115 0.9834208
vn -0.01395499 0.007083997 0.9998776
vn 0.09157903 0.146635 0.9849423
vn 0.08170097 0.02683699 0.9962955
vn -0.010221 0.1890539 0.9819135
vn -0.04892098 -0.004910998 0.9987906
vn 0.030828 -0.046787 0.998429
vn -0.117097 -0.114512 0.9864964
vn -0.044943 -0.01992 0.9987909
vn -0.1697131 -0.05620603 0.9838895
vn 0.04997101 -0.006359003 0.9987304
vn 0.01474199 0.1839579 0.9828236
vn 0.080249 0.022713 0.996516
vn 0.04250601 0.1900631 0.9808513
vn 0.172457 -0.08346099 0.9814749
vn 0.108015 -0.109622 0.9880869
vn 0.147735 -0.053885 0.987558
vn 0.272273 -0.029065 0.961781
vn -0.01394099 0.007120996 0.9998775
vn 0.218462 0.041135 0.9749781
vn -0.03378601 0.113439 0.9929703
vn -0.06534798 0.115808 0.9911197
vn -0.2710709 0.07558998 0.9595867
vn -0.2508579 0.06744596 0.9656714
vn 0.2088 0.05655 0.9763219
vn 0.197488 0.05554099 0.9787307
vn 0.555936 0.084715 0.826897
vn 0.555936 0.084715 0.826897
vn 0.2331901 0.2277481 0.9453852
vn -0.005803999 0.267408 0.9635659
vn -0.005803999 0.267408 0.9635659
vn 0.280599 0.217938 0.9347552
vn 0.169456 0.368412 0.9140881
vn 0.100373 0.4056441 0.9085032
vn -0.1436409 0.7893855 0.5968567
vn -0.142728 0.7916731 0.5940391
vn 0.121722 0.8929518 0.4333829
vn 0.17252 0.8872169 0.4278819
vn 0.397097 0.831454 0.388585
vn 0.397097 0.831454 0.388585

vt 0.300489 0.117506
vt 0.361431 0.153872
vt 0.351107 0.034917
vt 0.301742 0.027766
vt 0.352131 0.524913
vt 0.357751 0.411859
vt 0.287767 0.4351
vt 0.284682 0.524514
vt 0.137367 0.525415
vt 0.137502 0.427128
vt 0.291397 0.318527
vt 0.137458 0.298464
vt 0.366223 0.263716
vt 0.015928 0.422092
vt 0.018828 0.526405
vt 0.01415 0.286498
vt 0.010251 0.19738
vt 0.135297 0.212368
vt 0.135241 0.091903
vt 0.300489 0.117506
vt 0.294194 0.240615
vt 0.375994 0.166549
vt 0.361431 0.153872
vt 0 0.06169
vt 0.135241 0.091903
vt 0.300489 0.117506
vt 0.301742 0.027766
vt 0.175758 0.037346
vt 0.058296 0.02218
vt 0 0.06169
vt 0.49066 0.523657
vt 0.612999 0.523503
vt 0.620582 0.412072
vt 0.497669 0.411045
vt 0.505027 0.267393
vt 0.625232 0.267033
vt 0.357751 0.411859
vt 0.352131 0.524913
vt 0.366223 0.263716
vt 0.510987 0.171869
vt 0.375994 0.166549
vt 0.629476 0.168257
vt 0.981715 0.5239
vt 0.988471 0.417348
vt 0.924415 0.414849
vt 0.918661 0.521852
vt 0.932493 0.274092
vt 0.996017 0.276044
vt 0.937164 0.179315
vt 1 0.181902
vt 0.844618 0.522907
vt 0.848174 0.413745
vt 0.76809 0.523453
vt 0.773024 0.413279
vt 0.85891 0.272243
vt 0.781609 0.269741
vt 0.864148 0.176394
vt 0.787347 0.175729
vt 0.691329 0.41173
vt 0.685128 0.523549
vt 0.620582 0.412072
vt 0.612999 0.523503
vt 0.625232 0.267033
vt 0.697122 0.26585
vt 0.704005 0.171917
vt 0.629476 0.168257
vt 0.998495 0.102315
vt 0.936301 0.100714
vt 0.864148 0.176394
vt 0.864387 0.098917
vt 0.787347 0.175729
vt 0.786971 0.08612
vt 0.704005 0.171917
vt 0.710408 0.084696
vt 0.629476 0.168257
vt 0.629322 0.075241
vt 0.936301 0.100714
vt 0.998495 0.102315
vt 0.988554 0.043253
vt 0.928085 0.041071
vt 0.864387 0.098917
vt 0.858372 0.038481
vt 0.786971 0.08612
vt 0.788592 0.017676
vt 0.710408 0.084696
vt 0.706031 8.2E-05
vt 0.635465 0
vt 0.629322 0.075241
f 1/1/1 3/3/3 2/2/2
f 1/1/1 4/4/4 3/3/3
f 5/5/5 7/7/7 6/6/6
f 5/5/5 8/8/8 7/7/7
f 9/9/9 7/7/7 8/8/8
f 9/9/9 10/10/10 7/7/7
f 10/10/10 11/11/11 7/7/7
f 6/6/6 7/7/7 11/11/11
f 10/10/10 12/12/12 11/11/11
f 6/6/6 11/11/11 13/13/13
f 14/14/14 10/10/10 9/9/9
f 14/14/14 9/9/9 15/15/15
f 16/16/16 10/10/10 14/14/14
f 16/16/16 12/12/12 10/10/10
f 17/17/17 12/12/12 16/16/16
f 17/17/17 18/18/18 12/12/12
f 11/11/11 12/12/12 18/18/18
f 19/19/19 18/18/18 17/17/17
f 20/20/20 18/18/18 19/19/19
f 20/20/20 21/21/21 18/18/18
f 11/11/11 18/18/18 21/21/21
f 13/13/13 11/11/11 21/21/21
f 22/22/22 21/21/21 20/20/20
f 13/13/13 21/21/21 22/22/22
f 22/22/22 20/20/20 23/23/23
f 19/19/19 17/17/17 24/24/24
f 25/25/25 27/27/27 26/26/26
f 25/25/25 28/28/28 27/27/27
f 29/29/29 28/28/28 25/25/25
f 29/29/29 25/25/25 30/30/30
f 31/31/31 33/33/33 32/32/32
f 31/31/31 34/34/34 33/33/33
f 35/35/35 33/33/33 34/34/34
f 35/35/35 36/36/36 33/33/33
f 37/37/37 34/34/34 31/31/31
f 37/37/37 31/31/31 38/38/38
f 39/39/39 34/34/34 37/37/37
f 39/39/39 35/35/35 34/34/34
f 40/40/40 35/35/35 39/39/39
f 40/40/40 39/39/39 41/41/41
f 42/42/42 35/35/35 40/40/40
f 42/42/42 36/36/36 35/35/35
f 43/43/43 45/45/45 44/44/44
f 43/43/43 46/46/46 45/45/45
f 44/44/44 45/45/45 47/47/47
f 44/44/44 47/47/47 48/48/48
f 48/48/48 47/47/47 49/49/49
f 48/48/48 49/49/49 50/50/50
f 45/45/45 46/46/46 51/51/51
f 45/45/45 51/51/51 52/52/52
f 47/47/47 45/45/45 52/52/52
f 53/53/53 52/52/52 51/51/51
f 53/53/53 54/54/54 52/52/52
f 54/54/54 55/55/55 52/52/52
f 47/47/47 52/52/52 55/55/55
f 49/49/49 47/47/47 55/55/55
f 54/54/54 56/56/56 55/55/55
f 57/57/57 55/55/55 56/56/56
f 49/49/49 55/55/55 57/57/57
f 57/57/57 56/56/56 58/58/58
f 59/59/59 54/54/54 53/53/53
f 59/59/59 53/53/53 60/60/60
f 61/61/61 59/59/59 60/60/60
f 61/61/61 60/60/60 62/62/62
f 63/63/63 59/59/59 61/61/61
f 63/63/63 64/64/64 59/59/59
f 64/64/64 54/54/54 59/59/59
f 64/64/64 56/56/56 54/54/54
f 58/58/58 56/56/56 64/64/64
f 65/65/65 64/64/64 63/63/63
f 58/58/58 64/64/64 65/65/65
f 65/65/65 63/63/63 66/66/66
f 50/50/50 68/68/68 67/67/67
f 50/50/50 49/49/49 68/68/68
f 68/68/68 49/49/49 69/69/69
f 68/68/68 69/69/69 70/70/70
f 70/70/70 69/69/69 71/71/71
f 70/70/70 71/71/71 72/72/72
f 72/72/72 71/71/71 73/73/73
f 72/72/72 73/73/73 74/74/74
f 74/74/74 73/73/73 75/75/75
f 74/74/74 75/75/75 76/76/76
f 77/77/77 79/79/79 78/78/78
f 77/77/77 80/80/80 79/79/79
f 81/81/81 80/80/80 77/77/77
f 81/81/81 82/82/82 80/80/80
f 83/83/83 82/82/82 81/81/81
f 83/83/83 84/84/84 82/82/82
f 85/85/85 84/84/84 83/83/83
f 85/85/85 86/86/86 84/84/84
f 87/87/87 86/86/86 85/85/85
f 87/87/87 85/85/85 88/88/88
