mtllib Kitchen_GEO_GRP1_Frame_R.mtl
usemtl Kitchen_GEO_GRP1_Frame_R

g Kitchen_GEO_GRP1_Frame_R
v 15.09149 1.231675 -3.223867
v 15.04045 1.208292 -3.203239
v 15.04045 1.208292 -3.929383
v 15.09149 1.231675 -3.908755
v 15.09149 2.008031 -3.908755
v 15.04045 2.031414 -3.929383
v 15.04045 2.031414 -3.203239
v 15.09149 2.008031 -3.223867
v 15.09149 2.008031 -3.908755
v 15.09149 2.008031 -3.223867
v 15.09149 1.619853 -3.223867
v 15.09149 1.619853 -3.908755
v 15.09149 1.231675 -3.908755
v 15.09149 1.231675 -3.223867
v 15.17135 2.119476 -4.019813
v 15.09439 2.134177 -4.033157
v 15.09439 1.619853 -4.033157
v 15.17135 1.619853 -4.019813
v 15.03756 1.619853 -4.019813
v 15.03756 2.119475 -4.019813
v 15.09439 1.105529 -4.033157
v 15.17135 1.120231 -4.019813
v 15.03756 1.120231 -4.019813
v 15.17135 1.120231 -4.019813
v 15.09439 1.105529 -4.033157
v 15.09439 1.105529 -3.099465
v 15.17135 1.120231 -3.112809
v 15.03756 1.120231 -3.112809
v 15.03756 1.120231 -4.019813
v 15.17135 1.619853 -3.112809
v 15.09439 1.619853 -3.099465
v 15.09439 2.134177 -3.099465
v 15.17135 2.119476 -3.112809
v 15.03756 2.119475 -3.112809
v 15.03756 1.619853 -3.112809
v 15.09439 1.105529 -3.099465
v 15.03756 1.120231 -3.112809
v 15.17135 1.120231 -3.112809
v 15.17135 2.119476 -3.112809
v 15.09439 2.134177 -3.099465
v 15.09439 2.134177 -4.033157
v 15.17135 2.119476 -4.019813
v 15.03756 2.119475 -4.019813
v 15.03756 2.119475 -3.112809
v 15.04045 1.619853 -3.929383
v 15.03756 1.619853 -4.019813
v 15.03756 2.119475 -4.019813
v 15.04045 2.031414 -3.929383
v 15.03756 2.119475 -3.112809
v 15.04045 2.031414 -3.203239
v 15.03756 1.619853 -3.112809
v 15.04045 1.619853 -3.203239
v 15.04045 1.208292 -3.929383
v 15.03756 1.120231 -4.019813
v 15.04045 1.208292 -3.203239
v 15.03756 1.120231 -3.112809
v 15.09149 1.619853 -3.908755
v 15.04045 1.619853 -3.929383
v 15.04045 2.031414 -3.929383
v 15.09149 2.008031 -3.908755
v 15.09149 1.231675 -3.908755
v 15.04045 1.208292 -3.929383
v 15.09149 2.008031 -3.223867
v 15.04045 2.031414 -3.203239
v 15.04045 1.619853 -3.203239
v 15.09149 1.619853 -3.223867
v 15.09149 1.231675 -3.223867
v 15.04045 1.208292 -3.203239

vn -0.4165149 0.9091289 0
vn -0.4165149 0.9091289 0
vn -0.4165149 0.9091289 0
vn -0.4165149 0.9091289 0
vn -0.4165149 -0.9091289 0
vn -0.4165149 -0.9091289 0
vn -0.4165149 -0.9091289 0
vn -0.4165149 -0.9091289 0
vn -1 0 0
vn -1 0 0
vn -1 0 0
vn -1 0 0
vn -1 0 0
vn -1 0 0
vn 0.170843 0 -0.9852983
vn 0.004452 0 -0.9999901
vn 0 0 -1
vn 0.170843 0 -0.9852983
vn -0.2285819 0 -0.9735247
vn -0.2285819 0 -0.9735247
vn 0.004452 0 -0.9999901
vn 0.170843 0 -0.9852983
vn -0.2285819 0 -0.9735247
vn 0.187633 -0.9822392 0
vn 0.004368003 -0.9999905 0
vn 0.004368003 -0.9999905 0
vn 0.187633 -0.9822392 0
vn -0.250437 -0.9681329 0
vn -0.250437 -0.9681329 0
vn 0.170843 0 0.9852983
vn 0 0 1
vn 0.004452 0 0.9999901
vn 0.170843 0 0.9852983
vn -0.2285819 0 0.9735247
vn -0.2285819 0 0.9735247
vn 0.004452 0 0.9999901
vn -0.2285819 0 0.9735247
vn 0.170843 0 0.9852983
vn 0.187633 0.9822392 0
vn 0.004367002 0.9999905 0
vn 0.004367002 0.9999905 0
vn 0.187633 0.9822392 0
vn -0.2504379 0.9681327 0
vn -0.2504379 0.9681327 0
vn -0.9994872 0 0.03202101
vn -0.9994872 0 0.03202101
vn -0.9997156 -0.02065099 0.011918
vn -0.9997124 -0.02099499 0.01158299
vn -0.9997156 -0.02065099 -0.011918
vn -0.9997124 -0.02099499 -0.01158299
vn -0.9994872 0 -0.03202101
vn -0.9994872 0 -0.03202101
vn -0.9997124 0.02099499 0.01158299
vn -0.9997156 0.02065099 0.011918
vn -0.9997124 0.02099499 -0.01158299
vn -0.9997156 0.02065099 -0.011918
vn -0.3747241 0 0.9271363
vn -0.3747241 0 0.9271363
vn -0.3747238 0 0.9271365
vn -0.3747238 0 0.9271365
vn -0.3747238 0 0.9271365
vn -0.3747238 0 0.9271365
vn -0.3747238 0 -0.9271365
vn -0.3747238 0 -0.9271365
vn -0.3747238 0 -0.9271365
vn -0.3747238 0 -0.9271365
vn -0.3747238 0 -0.9271365
vn -0.3747241 0 -0.9271363

vt 0.414529 0.52753
vt 0.435566 0.504947
vt 0.071557 0.504856
vt 0.093689 0.526275
vt 0.092207 0.890674
vt 0.071171 0.913254
vt 0.435357 0.913371
vt 0.413161 0.891997
vt 0.092207 0.890674
vt 0.413161 0.891997
vt 0.415336 0.709764
vt 0.091457 0.708475
vt 0.093689 0.526275
vt 0.414529 0.52753
vt -0.001676 0.98324
vt 0.014805 0.968846
vt 0.012194 0.709583
vt -0.004296 0.709413
vt 0.025151 0.708825
vt 0.026904 0.956124
vt 0.014025 0.45032
vt -0.002171 0.435587
vt 0.0276 0.461525
vt -0.002171 0.435587
vt 0.014025 0.45032
vt 0.491922 0.449317
vt 0.508394 0.434902
vt 0.479824 0.462053
vt 0.0276 0.461525
vt 0.511122 0.708746
vt 0.494632 0.708597
vt 0.4929 0.967877
vt 0.509106 0.982589
vt 0.47932 0.956683
vt 0.481674 0.709368
vt 0.491922 0.449317
vt 0.479824 0.462053
vt 0.508394 0.434902
vt 0.509106 0.982589
vt 0.4929 0.967877
vt 0.014805 0.968846
vt -0.001676 0.98324
vt 0.026904 0.956124
vt 0.47932 0.956683
vt 0.069672 0.709055
vt 0.025151 0.708825
vt 0.026904 0.956124
vt 0.071171 0.913254
vt 0.47932 0.956683
vt 0.435357 0.913371
vt 0.481674 0.709368
vt 0.437153 0.709159
vt 0.071557 0.504856
vt 0.0276 0.461525
vt 0.435566 0.504947
vt 0.479824 0.462053
vt 0.091457 0.708475
vt 0.069672 0.709055
vt 0.071171 0.913254
vt 0.092207 0.890674
vt 0.093689 0.526275
vt 0.071557 0.504856
vt 0.413161 0.891997
vt 0.435357 0.913371
vt 0.437153 0.709159
vt 0.415336 0.709764
vt 0.414529 0.52753
vt 0.435566 0.504947
f 1/1/1 3/3/3 2/2/2
f 1/1/1 4/4/4 3/3/3
f 5/5/5 7/7/7 6/6/6
f 5/5/5 8/8/8 7/7/7
f 9/9/9 11/11/11 10/10/10
f 9/9/9 12/12/12 11/11/11
f 11/11/11 12/12/12 13/13/13
f 11/11/11 13/13/13 14/14/14
f 15/15/15 17/17/17 16/16/16
f 15/15/15 18/18/18 17/17/17
f 16/16/16 17/17/17 19/19/19
f 16/16/16 19/19/19 20/20/20
f 18/18/18 21/21/21 17/17/17
f 19/19/19 17/17/17 21/21/21
f 18/18/18 22/22/22 21/21/21
f 19/19/19 21/21/21 23/23/23
f 24/24/24 26/26/26 25/25/25
f 24/24/24 27/27/27 26/26/26
f 25/25/25 26/26/26 28/28/28
f 25/25/25 28/28/28 29/29/29
f 30/30/30 32/32/32 31/31/31
f 30/30/30 33/33/33 32/32/32
f 31/31/31 32/32/32 34/34/34
f 31/31/31 34/34/34 35/35/35
f 36/36/36 31/31/31 35/35/35
f 36/36/36 35/35/35 37/37/37
f 38/38/38 31/31/31 36/36/36
f 38/38/38 30/30/30 31/31/31
f 39/39/39 41/41/41 40/40/40
f 39/39/39 42/42/42 41/41/41
f 40/40/40 41/41/41 43/43/43
f 40/40/40 43/43/43 44/44/44
f 45/45/45 47/47/47 46/46/46
f 45/45/45 48/48/48 47/47/47
f 48/48/48 49/49/49 47/47/47
f 48/48/48 50/50/50 49/49/49
f 50/50/50 51/51/51 49/49/49
f 50/50/50 52/52/52 51/51/51
f 53/53/53 45/45/45 46/46/46
f 53/53/53 46/46/46 54/54/54
f 55/55/55 53/53/53 54/54/54
f 51/51/51 52/52/52 55/55/55
f 55/55/55 54/54/54 56/56/56
f 51/51/51 55/55/55 56/56/56
f 57/57/57 59/59/59 58/58/58
f 57/57/57 60/60/60 59/59/59
f 61/61/61 57/57/57 58/58/58
f 61/61/61 58/58/58 62/62/62
f 63/63/63 65/65/65 64/64/64
f 63/63/63 66/66/66 65/65/65
f 65/65/65 66/66/66 67/67/67
f 65/65/65 67/67/67 68/68/68
