mtllib Kitchen_GEO_GRP1_Kitchen_116.mtl
usemtl Kitchen_GEO_GRP1_Kitchen_116

g Kitchen_GEO_GRP1_Kitchen_116
v 7.947795 2.918773 -4.068277
v 7.966594 3.585094 -4.025381
v 7.961968 3.581995 -4.276209
v 7.947795 3.020607 -4.248273
v 7.947795 3.179279 -4.698518
v 7.961968 3.581995 -4.276209
v 7.961557 3.582 -4.73195
v 7.961126 3.582006 -5.209382
v 7.947795 3.275036 -5.199595
v 7.960671 3.582023 -5.731511
v 7.947795 3.326285 -5.733323
v 7.947794 3.131697 -7.07169
v 7.945165 3.574352 -7.051491
v 7.941956 3.573406 -7.517492
v 7.947794 2.950549 -7.471069
v 7.945165 3.574352 -7.051491
v 7.947795 3.239392 -6.432397
v 7.954585 3.578167 -6.40283
v 7.960671 3.582023 -5.731511
v 7.947795 3.326285 -5.733323
v 7.937655 3.57346 -8.86691
v 7.943955 2.864873 -8.890909
v 7.947794 2.950549 -7.471069
v 7.941956 3.573406 -7.517492
v 7.928695 1.568311 -7.507305
v 7.931082 1.658164 -8.891285
v 7.932444 0.957378 -7.499105
v 7.935241 1.037829 -8.885848
v 7.93644 0.374345 -7.491276
v 7.943134 0.445851 -8.880643
v 7.93692 0.0289 -8.716163
v 7.939218 0.011828 -7.486208
v 7.961879 0.029544 -2.679855
v 7.9316 0.7328 -2.676959
v 7.933954 0.714873 -4.036496
v 7.967744 0.007719 -4.034899
v 7.9266 2.743243 -2.670381
v 7.947795 2.918773 -4.068277
v 7.966594 3.585094 -4.025381
v 7.952585 3.583103 -2.663405

vn 0.9995034 -0.02663801 -0.016838
vn 0.9995034 -0.02663801 -0.016838
vn 0.9995034 -0.02663801 -0.016838
vn 0.9995034 -0.02663801 -0.016838
vn 0.9994609 -0.032432 -0.005111999
vn 0.9995545 -0.02931798 -0.005587997
vn 0.9994235 -0.03359202 -0.004935002
vn 0.9989119 -0.04655999 -0.002691
vn 0.9989119 -0.04655999 -0.002691
vn 0.9989119 -0.04655999 -0.002691
vn 0.9989119 -0.04655999 -0.002691
vn 0.9999552 0.007815002 -0.005351001
vn 0.9999552 0.007815002 -0.005351001
vn 0.9999552 0.007815002 -0.005351001
vn 0.9999552 0.007815002 -0.005351001
vn 0.9999644 -0.004884002 -0.006892002
vn 0.9998672 -0.015461 -0.005145001
vn 0.999822 -0.018283 -0.004679
vn 0.9994547 -0.03294199 -0.002256999
vn 0.9994547 -0.03294199 -0.002256999
vn 0.9999537 0.009060998 -0.003219999
vn 0.9999537 0.009060998 -0.003219999
vn 0.9999537 0.009060998 -0.003219999
vn 0.9999537 0.009060998 -0.003219999
vn 0.9999237 -0.012341 -0.0005359998
vn 0.9999237 -0.012341 -0.0005359998
vn 0.9999603 0.008348003 0.003140001
vn 0.9999619 0.008184999 0.003065
vn 0.9999858 0.004423999 0.002993
vn 0.9999777 0.005840998 0.003235999
vn 0.9999906 -0.004071998 0.001540999
vn 0.9999906 -0.004071998 0.001540999
vn 0.9989672 0.04537701 0.002360001
vn 0.9999305 0.009528995 0.006943997
vn 0.9999284 0.009774004 0.006913002
vn 0.9989672 0.04537701 0.002360001
vn 0.9999222 -0.008651002 0.008987002
vn 0.9999065 -0.010184 0.009117995
vn 0.9994892 -0.03007501 0.010815
vn 0.9994892 -0.03007501 0.010815

vt 0.224424 0.476843
vt 0.220366 0.543658
vt 0.258323 0.542759
vt 0.252662 0.493004
vt 0.323816 0.518328
vt 0.258323 0.542759
vt 0.329422 0.54545
vt 0.406389 0.54841
vt 0.404693 0.529712
vt 0.493178 0.551601
vt 0.492766 0.536037
vt 0.709936 0.507014
vt 0.706282 0.54881
vt 0.777774 0.548939
vt 0.772805 0.48015
vt 0.706282 0.54881
vt 0.607025 0.521976
vt 0.603831 0.549716
vt 0.493178 0.551601
vt 0.492766 0.536037
vt 0.977281 0.554413
vt 0.983762 0.473765
vt 0.772805 0.48015
vt 0.777774 0.548939
vt 0.784828 0.250408
vt 0.996834 0.270048
vt 0.78597 0.153171
vt 0.998455 0.171326
vt 0.78706 0.060374
vt 1 0.077111
vt 0.975742 0.008061
vt 0.787975 0
vt 0 0.020756
vt 0.002142 0.123565
vt 0.200403 0.115666
vt 0.197528 0.012175
vt 0.019183 0.446843
vt 0.224424 0.476843
vt 0.220366 0.543658
vt 0.020884 0.546604
f 1/1/1 3/3/3 2/2/2
f 1/1/1 4/4/4 3/3/3
f 5/5/5 6/6/6 4/4/4
f 5/5/5 7/7/7 6/6/6
f 8/8/8 7/7/7 5/5/5
f 8/8/8 5/5/5 9/9/9
f 10/10/10 8/8/8 9/9/9
f 10/10/10 9/9/9 11/11/11
f 12/12/12 14/14/14 13/13/13
f 12/12/12 15/15/15 14/14/14
f 16/16/16 17/17/17 12/12/12
f 16/16/16 18/18/18 17/17/17
f 17/17/17 18/18/18 19/19/19
f 17/17/17 19/19/19 20/20/20
f 21/21/21 23/23/23 22/22/22
f 21/21/21 24/24/24 23/23/23
f 25/25/25 22/22/22 23/23/23
f 25/25/25 26/26/26 22/22/22
f 27/27/27 26/26/26 25/25/25
f 27/27/27 28/28/28 26/26/26
f 29/29/29 28/28/28 27/27/27
f 29/29/29 30/30/30 28/28/28
f 31/31/31 30/30/30 29/29/29
f 31/31/31 29/29/29 32/32/32
f 33/33/33 35/35/35 34/34/34
f 33/33/33 36/36/36 35/35/35
f 37/37/37 34/34/34 35/35/35
f 37/37/37 35/35/35 38/38/38
f 39/39/39 37/37/37 38/38/38
f 39/39/39 40/40/40 37/37/37
