mtllib Kitchen_GEO_GRP1_Base_Wall.mtl
usemtl Kitchen_GEO_GRP1_Base_Wall

g Kitchen_GEO_GRP1_Base_Wall
v 16.49537 2.972949 -5.772929
v 16.49537 3.684999 -5.772929
v 16.49537 3.684999 -4.319966
v 16.49537 2.972949 -4.319966
v 16.49537 2.972949 -7.203736
v 16.49537 3.684999 -7.203736
v 16.49537 3.684999 -4.319966
v 16.49537 3.684999 -7.203736
v 15.19463 3.684999 -7.203736
v 15.19463 3.684999 -4.319967
v 13.76298 0.300671 -2.679024
v 13.76298 2.527584 -2.679024
v 12.67661 2.527584 -2.679024
v 12.67661 0.300671 -2.679024
v 12.67661 2.972949 -2.679024
v 13.76298 2.972949 -2.679024
v 12.67661 3.684999 -2.679024
v 13.76298 3.684999 -2.679024
v 14.17168 2.972949 -2.679024
v 14.17168 2.761256 -2.679024
v 14.17168 3.684999 -2.679024
v 11.52999 0.300671 -2.679024
v 11.52999 2.527584 -2.679024
v 11.52999 2.972949 -2.679024
v 11.52999 3.684999 -2.679024
v 14.58168 2.761256 -2.679024
v 14.58168 2.972949 -2.679024
v 14.99168 2.527584 -2.679024
v 14.99168 2.972949 -2.679024
v 15.19463 2.527584 -2.679024
v 15.19463 2.972949 -2.679024
v 15.19463 0.300671 -2.679024
v 14.99168 0.300671 -2.679024
v 14.58168 3.684999 -2.679024
v 14.99168 3.684999 -2.679024
v 15.19463 3.684999 -2.679024
v 10.60199 2.385764 -2.679024
v 10.60199 0.300671 -2.679024
v 10.60199 2.972949 -2.679024
v 10.37071 2.385764 -2.679024
v 10.37071 2.972949 -2.679024
v 10.60199 3.684999 -2.679024
v 10.37071 3.684999 -2.679024
v 10.02621 2.972949 -2.679024
v 10.02621 3.684999 -2.679024
v 9.681709 2.972949 -2.679024
v 9.681709 3.684999 -2.679024
v 9.681709 2.542158 -2.679024
v 10.02621 2.488511 -2.679024
v 9.33721 2.972949 -2.679024
v 9.33721 3.684999 -2.679024
v 8.992711 2.972949 -2.679024
v 8.992711 2.488511 -2.679024
v 8.571443 2.385764 -2.679024
v 8.571443 2.972949 -2.679024
v 8.992711 3.684999 -2.679024
v 8.571443 3.684999 -2.679024
v 9.33721 2.542158 -2.679024
v 7.920493 2.527584 -2.679024
v 7.920493 0.300671 -2.679024
v 8.571443 0.300671 -2.679024
v 7.920493 2.972949 -2.679024
v 7.920493 3.684999 -2.679024
v 15.19463 0.300671 -4.319967
v 15.19463 2.527584 -4.319967
v 15.19463 2.527584 -4.069508
v 15.19463 0.300671 -4.069508
v 15.19463 2.972949 -4.069508
v 15.19463 2.972949 -4.319967
v 15.19463 3.684999 -4.069508
v 15.19463 3.684999 -4.319967
v 15.19463 0.300671 -2.679024
v 15.19463 2.527584 -2.679024
v 15.19463 2.972949 -2.679024
v 15.19463 3.684999 -2.679024
v 10.63701 0.300671 -8.94421
v 10.63701 2.527584 -8.94421
v 11.52999 2.527584 -8.94421
v 11.52999 0.300671 -8.94421
v 11.52999 2.972949 -8.94421
v 10.63701 2.972949 -8.94421
v 11.52999 3.684999 -8.94421
v 10.63701 3.684999 -8.94421
v 10.39775 2.972949 -8.94421
v 10.39775 3.684999 -8.94421
v 8.972224 2.972949 -8.94421
v 8.972224 3.684999 -8.94421
v 8.536427 2.972949 -8.94421
v 8.536427 3.684999 -8.94421
v 8.536427 2.527584 -8.94421
v 8.972224 2.527584 -8.94421
v 8.536427 0.300671 -8.94421
v 8.972224 0.300671 -8.94421
v 7.920493 2.972949 -8.94421
v 7.920493 3.684999 -8.94421
v 7.920493 2.527584 -8.94421
v 7.920493 0.300671 -8.94421
v 10.39775 2.527584 -8.94421
v 10.39775 0.300671 -8.94421
v 15.19463 0.300671 -8.94421
v 15.19463 2.527584 -8.94421
v 15.19463 2.527584 -7.433801
v 15.19463 0.300671 -7.433801
v 15.19463 2.972949 -7.433801
v 15.19463 2.972949 -8.94421
v 15.19463 3.684999 -7.433801
v 15.19463 3.684999 -8.94421
v 15.19463 0.300671 -7.203736
v 15.19463 2.527584 -7.203736
v 15.19463 2.972949 -7.203736
v 15.19463 3.684999 -7.203736
v 7.920493 0.300671 -7.433801
v 7.920493 2.527584 -7.433801
v 7.920493 2.527584 -8.94421
v 7.920493 0.300671 -8.94421
v 7.920493 2.972949 -8.94421
v 7.920493 2.972949 -7.433801
v 7.920493 3.684999 -8.94421
v 7.920493 3.684999 -7.433801
v 7.920493 2.972949 -7.203736
v 7.920493 3.684999 -7.203736
v 7.920493 3.210342 -6.488332
v 7.920493 3.684999 -6.488332
v 7.920493 3.253495 -5.772929
v 7.920493 3.684999 -5.772929
v 7.920493 3.210342 -5.046448
v 7.920493 3.684999 -5.046448
v 7.920493 2.972949 -4.319967
v 7.920493 3.684999 -4.319967
v 7.920493 2.972949 -4.069508
v 7.920493 3.684999 -4.069508
v 7.920493 2.972949 -2.679024
v 7.920493 3.684999 -2.679024
v 7.920493 2.527584 -2.679024
v 7.920493 2.527584 -4.069508
v 7.920493 0.300671 -2.679024
v 7.920493 0.300671 -4.069508
v 16.49537 0.300671 -4.319966
v 16.49537 2.527584 -4.319966
v 15.19463 2.527584 -4.319967
v 15.19463 0.300671 -4.319967
v 15.19463 2.972949 -4.319967
v 16.49537 2.972949 -4.319966
v 15.19463 3.684999 -4.319967
v 16.49537 3.684999 -4.319966
v 15.19463 0.300671 -7.203736
v 15.19463 2.527584 -7.203736
v 16.49537 2.527584 -7.203736
v 16.49537 0.300671 -7.203736
v 16.49537 2.972949 -7.203736
v 15.19463 2.972949 -7.203736
v 16.49537 3.684999 -7.203736
v 15.19463 3.684999 -7.203736
v 14.17168 2.527584 -8.94421
v 14.99168 2.527584 -8.944209
v 14.99168 0.300671 -8.944209
v 14.17168 0.300671 -8.94421
v 14.17168 2.972949 -8.94421
v 14.99168 2.972949 -8.944209
v 15.19463 0.300671 -8.94421
v 15.19463 2.527584 -8.94421
v 15.19463 2.972949 -8.94421
v 14.99168 3.684999 -8.944209
v 15.19463 3.684999 -8.94421
v 14.17168 3.684999 -8.94421
v 13.79951 3.684999 -8.94421
v 13.79951 2.972949 -8.94421
v 12.67661 2.972949 -8.944209
v 12.67661 3.684999 -8.944209
v 12.67661 2.527584 -8.944209
v 12.67661 0.300671 -8.944209

vn -1 0 0
vn -1 0 0
vn -1 0 0
vn -1 0 0
vn -1 0 0
vn -1 0 0
vn 0 -1 0
vn 0 -1 0
vn 0 -1 0
vn 0 -1 0
vn 0 0 -1
vn 0 0 -1
vn 0 0 -1
vn 0 0 -1
vn 0 0 -1
vn 0 0 -1
vn 0 0 -1
vn 0 0 -1
vn 0 0 -1
vn 0 0 -1
vn 0 0 -1
vn 0 0 -1
vn 0 0 -1
vn 0 0 -1
vn 0 0 -1
vn 0 0 -1
vn 0 0 -1
vn 0 0 -1
vn 0 0 -1
vn 0 0 -1
vn 0 0 -1
vn 0 0 -1
vn 0 0 -1
vn 0 0 -1
vn 0 0 -1
vn 0 0 -1
vn 0 0 -1
vn 0 0 -1
vn 0 0 -1
vn 0 0 -1
vn 0 0 -1
vn 0 0 -1
vn 0 0 -1
vn 0 0 -1
vn 0 0 -1
vn 0 0 -1
vn 0 0 -1
vn 0 0 -1
vn 0 0 -1
vn 0 0 -1
vn 0 0 -1
vn 0 0 -1
vn 0 0 -1
vn 0 0 -1
vn 0 0 -1
vn 0 0 -1
vn 0 0 -1
vn 0 0 -1
vn 0 0 -1
vn 0 0 -1
vn 0 0 -1
vn 0 0 -1
vn 0 0 -1
vn -1 0 0
vn -1 0 0
vn -1 0 0
vn -1 0 0
vn -1 0 0
vn -1 0 0
vn -1 0 0
vn -1 0 0
vn -1 0 0
vn -1 0 0
vn -1 0 0
vn -1 0 0
vn 0 0 1
vn 0 0 1
vn 0 0 1
vn 0 0 1
vn 0 0 1
vn 0 0 1
vn 0 0 1
vn 0 0 1
vn 0 0 1
vn 0 0 1
vn 0 0 1
vn 0 0 1
vn 0 0 1
vn 0 0 1
vn 0 0 1
vn 0 0 1
vn 0 0 1
vn 0 0 1
vn 0 0 1
vn 0 0 1
vn 0 0 1
vn 0 0 1
vn 0 0 1
vn 0 0 1
vn -1 0 0
vn -1 0 0
vn -1 0 0
vn -1 0 0
vn -1 0 0
vn -1 0 0
vn -1 0 0
vn -1 0 0
vn -1 0 0
vn -1 0 0
vn -1 0 0
vn -1 0 0
vn 1 0 0
vn 1 0 0
vn 1 0 0
vn 1 0 0
vn 1 0 0
vn 1 0 0
vn 1 0 0
vn 1 0 0
vn 1 0 0
vn 1 0 0
vn 1 0 0
vn 1 0 0
vn 1 0 0
vn 1 0 0
vn 1 0 0
vn 1 0 0
vn 1 0 0
vn 1 0 0
vn 1 0 0
vn 1 0 0
vn 1 0 0
vn 1 0 0
vn 1 0 0
vn 1 0 0
vn 1 0 0
vn 1 0 0
vn 0 0 -1
vn 0 0 -1
vn 0 0 -1
vn 0 0 -1
vn 0 0 -1
vn 0 0 -1
vn 0 0 -1
vn 0 0 -1
vn 0 0 1
vn 0 0 1
vn 0 0 1
vn 0 0 1
vn 0 0 1
vn 0 0 1
vn 0 0 1
vn 0 0 1
vn 0 0 1
vn 0 0 1
vn 0 0 1
vn 0 0 1
vn 0 0 1
vn 0 0 1
vn 0 0 1
vn 0 0 1
vn 0 0 1
vn 0 0 1
vn 0 0 1
vn 0 0 1
vn 0 0 1
vn 0 0 1
vn 0 0 1
vn 0 0 1
vn 0 0 1
vn 0 0 1

vt -0.134077 0.680264
vt -0.134077 0.743218
vt -0.005617 0.743218
vt -0.005617 0.680264
vt -0.260578 0.680264
vt -0.260578 0.743218
vt 0.317593 0.169335
vt 0.051686 0.169335
vt 0.051686 0.289274
vt 0.317593 0.289274
vt -0.106527 0.24715
vt -0.106527 0.680269
vt 0.104766 0.680269
vt 0.104766 0.24715
vt 0.104766 0.76689
vt -0.106527 0.76689
vt 0.104766 0.905378
vt -0.106527 0.905378
vt -0.186015 0.76689
vt -0.186015 0.725717
vt -0.186015 0.905378
vt 0.327776 0.24715
vt 0.327776 0.680269
vt 0.327776 0.76689
vt 0.327776 0.905378
vt -0.265758 0.725717
vt -0.265758 0.76689
vt -0.3455 0.680269
vt -0.3455 0.76689
vt -0.384972 0.680269
vt -0.384972 0.76689
vt -0.384972 0.24715
vt -0.3455 0.24715
vt -0.265758 0.905378
vt -0.3455 0.905378
vt -0.384972 0.905378
vt 0.508265 0.652686
vt 0.508265 0.24715
vt 0.508265 0.76689
vt 0.553248 0.652686
vt 0.553248 0.76689
vt 0.508265 0.905378
vt 0.553248 0.905378
vt 0.620251 0.76689
vt 0.620251 0.905378
vt 0.687253 0.76689
vt 0.687253 0.905378
vt 0.687253 0.683104
vt 0.620251 0.67267
vt 0.754256 0.76689
vt 0.754256 0.905378
vt 0.821259 0.76689
vt 0.821259 0.67267
vt 0.903193 0.652686
vt 0.903193 0.76689
vt 0.821259 0.905378
vt 0.903193 0.905378
vt 0.754256 0.683104
vt 1.029798 0.680269
vt 1.029798 0.24715
vt 0.903193 0.24715
vt 1.029798 0.76689
vt 1.029798 0.905378
vt 0.3065 0.994611
vt 0.3065 0.539214
vt 0.261306 0.539214
vt 0.261306 0.994611
vt 0.261306 0.45885
vt 0.3065 0.45885
vt 0.261306 0.330365
vt 0.3065 0.330365
vt 0.0104 0.994611
vt 0.0104 0.539214
vt 0.0104 0.45885
vt 0.0104 0.330365
vt 1.685977 0.199585
vt 1.685977 0.423836
vt 1.765324 0.423836
vt 1.765324 0.199585
vt 1.765325 0.46341
vt 1.685977 0.46341
vt 1.765324 0.52668
vt 1.685978 0.52668
vt 1.664718 0.46341
vt 1.664718 0.52668
vt 1.538051 0.46341
vt 1.538051 0.52668
vt 1.499327 0.46341
vt 1.499327 0.52668
vt 1.499327 0.423836
vt 1.538051 0.423836
vt 1.499327 0.199585
vt 1.538051 0.199585
vt 1.444597 0.46341
vt 1.444597 0.52668
vt 1.444597 0.423837
vt 1.444597 0.199585
vt 1.664718 0.423837
vt 1.664718 0.199585
vt -0.014807 0.329989
vt -0.014807 0.778286
vt 0.263359 0.778286
vt 0.263359 0.329989
vt 0.263359 0.857397
vt -0.014807 0.857397
vt 0.263359 0.98388
vt -0.014807 0.98388
vt 0.304226 0.329989
vt 0.304226 0.778286
vt 0.304226 0.857397
vt 0.304226 0.98388
vt 0.838201 0.673838
vt 0.838201 0.896599
vt 0.976422 0.896599
vt 0.976422 0.673838
vt 0.976422 0.93591
vt 0.838201 0.93591
vt 0.976422 0.998759
vt 0.838201 0.998759
vt 0.817894 0.935909
vt 0.817894 0.998759
vt 0.754748 0.956863
vt 0.754748 0.998759
vt 0.691602 0.960672
vt 0.691602 0.998759
vt 0.627479 0.956863
vt 0.627479 0.998759
vt 0.563355 0.935909
vt 0.563355 0.998759
vt 0.541248 0.935909
vt 0.541248 0.998759
vt 0.418516 0.935909
vt 0.418516 0.998759
vt 0.418516 0.896599
vt 0.541248 0.896599
vt 0.418516 0.673838
vt 0.541248 0.673838
vt 0.324192 0.497995
vt 0.101062 0.497995
vt 0.101062 0.612997
vt 0.324192 0.612997
vt 0.061687 0.612997
vt 0.061686 0.497995
vt -0.001268 0.612997
vt -0.001267 0.497995
vt 0.101983 0.512088
vt 0.101983 0.735218
vt 0.216984 0.735218
vt 0.216984 0.512088
vt 0.216984 0.774594
vt 0.101983 0.774594
vt 0.216984 0.837548
vt 0.101983 0.837548
vt 2.000057 0.423836
vt 2.072919 0.423836
vt 2.072919 0.199585
vt 2.000057 0.199585
vt 2.000057 0.46341
vt 2.072919 0.46341
vt 2.090953 0.199585
vt 2.090952 0.423836
vt 2.090952 0.46341
vt 2.072919 0.52668
vt 2.090952 0.52668
vt 2.000057 0.52668
vt 1.966987 0.52668
vt 1.966987 0.46341
vt 1.86721 0.46341
vt 1.86721 0.52668
vt 1.86721 0.423836
vt 1.86721 0.199585
f 1/1/1 3/3/3 2/2/2
f 1/1/1 4/4/4 3/3/3
f 5/5/5 1/1/1 2/2/2
f 5/5/5 2/2/2 6/6/6
f 7/7/7 9/9/9 8/8/8
f 7/7/7 10/10/10 9/9/9
f 11/11/11 13/13/13 12/12/12
f 11/11/11 14/14/14 13/13/13
f 12/12/12 13/13/13 15/15/15
f 12/12/12 15/15/15 16/16/16
f 16/16/16 15/15/15 17/17/17
f 16/16/16 17/17/17 18/18/18
f 19/19/19 12/12/12 16/16/16
f 19/19/19 20/20/20 12/12/12
f 21/21/21 16/16/16 18/18/18
f 21/21/21 19/19/19 16/16/16
f 13/13/13 14/14/14 22/22/22
f 13/13/13 22/22/22 23/23/23
f 15/15/15 13/13/13 23/23/23
f 15/15/15 23/23/23 24/24/24
f 17/17/17 15/15/15 24/24/24
f 17/17/17 24/24/24 25/25/25
f 26/26/26 20/20/20 19/19/19
f 26/26/26 19/19/19 27/27/27
f 28/28/28 26/26/26 27/27/27
f 28/28/28 27/27/27 29/29/29
f 30/30/30 28/28/28 29/29/29
f 30/30/30 29/29/29 31/31/31
f 32/32/32 28/28/28 30/30/30
f 32/32/32 33/33/33 28/28/28
f 29/29/29 27/27/27 34/34/34
f 34/34/34 19/19/19 21/21/21
f 34/34/34 27/27/27 19/19/19
f 29/29/29 34/34/34 35/35/35
f 31/31/31 29/29/29 35/35/35
f 31/31/31 35/35/35 36/36/36
f 22/22/22 37/37/37 23/23/23
f 22/22/22 38/38/38 37/37/37
f 23/23/23 39/39/39 24/24/24
f 23/23/23 37/37/37 39/39/39
f 39/39/39 37/37/37 40/40/40
f 39/39/39 40/40/40 41/41/41
f 42/42/42 39/39/39 41/41/41
f 24/24/24 39/39/39 42/42/42
f 24/24/24 42/42/42 25/25/25
f 42/42/42 41/41/41 43/43/43
f 43/43/43 41/41/41 44/44/44
f 43/43/43 44/44/44 45/45/45
f 45/45/45 44/44/44 46/46/46
f 45/45/45 46/46/46 47/47/47
f 44/44/44 48/48/48 46/46/46
f 44/44/44 49/49/49 48/48/48
f 41/41/41 49/49/49 44/44/44
f 41/41/41 40/40/40 49/49/49
f 47/47/47 46/46/46 50/50/50
f 47/47/47 50/50/50 51/51/51
f 51/51/51 50/50/50 52/52/52
f 50/50/50 53/53/53 52/52/52
f 52/52/52 53/53/53 54/54/54
f 52/52/52 54/54/54 55/55/55
f 56/56/56 52/52/52 55/55/55
f 51/51/51 52/52/52 56/56/56
f 56/56/56 55/55/55 57/57/57
f 50/50/50 58/58/58 53/53/53
f 46/46/46 58/58/58 50/50/50
f 46/46/46 48/48/48 58/58/58
f 55/55/55 54/54/54 59/59/59
f 54/54/54 60/60/60 59/59/59
f 54/54/54 61/61/61 60/60/60
f 55/55/55 59/59/59 62/62/62
f 57/57/57 55/55/55 62/62/62
f 57/57/57 62/62/62 63/63/63
f 64/64/64 66/66/66 65/65/65
f 64/64/64 67/67/67 66/66/66
f 65/65/65 66/66/66 68/68/68
f 65/65/65 68/68/68 69/69/69
f 69/69/69 68/68/68 70/70/70
f 69/69/69 70/70/70 71/71/71
f 66/66/66 67/67/67 72/72/72
f 66/66/66 72/72/72 73/73/73
f 68/68/68 66/66/66 73/73/73
f 68/68/68 73/73/73 74/74/74
f 70/70/70 68/68/68 74/74/74
f 70/70/70 74/74/74 75/75/75
f 76/76/76 78/78/78 77/77/77
f 76/76/76 79/79/79 78/78/78
f 77/77/77 78/78/78 80/80/80
f 77/77/77 80/80/80 81/81/81
f 81/81/81 80/80/80 82/82/82
f 81/81/81 82/82/82 83/83/83
f 84/84/84 81/81/81 83/83/83
f 84/84/84 83/83/83 85/85/85
f 86/86/86 84/84/84 85/85/85
f 86/86/86 85/85/85 87/87/87
f 88/88/88 86/86/86 87/87/87
f 88/88/88 87/87/87 89/89/89
f 90/90/90 86/86/86 88/88/88
f 90/90/90 91/91/91 86/86/86
f 92/92/92 91/91/91 90/90/90
f 92/92/92 93/93/93 91/91/91
f 94/94/94 88/88/88 89/89/89
f 94/94/94 89/89/89 95/95/95
f 96/96/96 88/88/88 94/94/94
f 96/96/96 90/90/90 88/88/88
f 97/97/97 90/90/90 96/96/96
f 97/97/97 92/92/92 90/90/90
f 98/98/98 81/81/81 84/84/84
f 98/98/98 77/77/77 81/81/81
f 99/99/99 77/77/77 98/98/98
f 99/99/99 76/76/76 77/77/77
f 100/100/100 102/102/102 101/101/101
f 100/100/100 103/103/103 102/102/102
f 101/101/101 102/102/102 104/104/104
f 101/101/101 104/104/104 105/105/105
f 105/105/105 104/104/104 106/106/106
f 105/105/105 106/106/106 107/107/107
f 102/102/102 103/103/103 108/108/108
f 102/102/102 108/108/108 109/109/109
f 104/104/104 102/102/102 109/109/109
f 104/104/104 109/109/109 110/110/110
f 106/106/106 104/104/104 110/110/110
f 106/106/106 110/110/110 111/111/111
f 112/112/112 114/114/114 113/113/113
f 112/112/112 115/115/115 114/114/114
f 113/113/113 114/114/114 116/116/116
f 113/113/113 116/116/116 117/117/117
f 117/117/117 116/116/116 118/118/118
f 117/117/117 118/118/118 119/119/119
f 120/120/120 117/117/117 119/119/119
f 120/120/120 119/119/119 121/121/121
f 122/122/122 120/120/120 121/121/121
f 122/122/122 121/121/121 123/123/123
f 124/124/124 122/122/122 123/123/123
f 124/124/124 123/123/123 125/125/125
f 126/126/126 124/124/124 125/125/125
f 126/126/126 125/125/125 127/127/127
f 128/128/128 126/126/126 127/127/127
f 128/128/128 127/127/127 129/129/129
f 130/130/130 128/128/128 129/129/129
f 130/130/130 129/129/129 131/131/131
f 132/132/132 130/130/130 131/131/131
f 132/132/132 131/131/131 133/133/133
f 134/134/134 130/130/130 132/132/132
f 134/134/134 135/135/135 130/130/130
f 136/136/136 135/135/135 134/134/134
f 136/136/136 137/137/137 135/135/135
f 138/138/138 140/140/140 139/139/139
f 138/138/138 141/141/141 140/140/140
f 139/139/139 140/140/140 142/142/142
f 139/139/139 142/142/142 143/143/143
f 143/143/143 142/142/142 144/144/144
f 143/143/143 144/144/144 145/145/145
f 146/146/146 148/148/148 147/147/147
f 146/146/146 149/149/149 148/148/148
f 147/147/147 148/148/148 150/150/150
f 147/147/147 150/150/150 151/151/151
f 151/151/151 150/150/150 152/152/152
f 151/151/151 152/152/152 153/153/153
f 154/154/154 156/156/156 155/155/155
f 154/154/154 157/157/157 156/156/156
f 158/158/158 154/154/154 155/155/155
f 158/158/158 155/155/155 159/159/159
f 155/155/155 156/156/156 160/160/160
f 155/155/155 160/160/160 161/161/161
f 159/159/159 155/155/155 161/161/161
f 159/159/159 161/161/161 162/162/162
f 163/163/163 159/159/159 162/162/162
f 163/163/163 162/162/162 164/164/164
f 165/165/165 159/159/159 163/163/163
f 165/165/165 158/158/158 159/159/159
f 166/166/166 158/158/158 165/165/165
f 166/166/166 167/167/167 158/158/158
f 168/168/168 167/167/167 166/166/166
f 168/168/168 166/166/166 169/169/169
f 80/80/80 168/168/168 169/169/169
f 80/80/80 169/169/169 82/82/82
f 78/78/78 168/168/168 80/80/80
f 78/78/78 170/170/170 168/168/168
f 79/79/79 170/170/170 78/78/78
f 79/79/79 171/171/171 170/170/170
