mtllib Kitchen_GEO_GRP1_Kitchen_115.mtl
usemtl Kitchen_GEO_GRP1_Kitchen_115

g Kitchen_GEO_GRP1_Kitchen_115
v 15.88074 0.026563 -5.029707
v 15.55032 -0.007529 -5.063281
v 15.55032 0.688545 -5.063282
v 16.0004 0.210322 -5.053299
v 15.55032 1.256503 -5.063282
v 16.04685 1.297267 -5.072573
v 15.5499 0.674144 -6.391528
v 16.09189 0.386252 -6.449193
v 16.16498 1.225265 -6.537872
v 15.53925 1.252434 -6.415481
v 16.09189 0.386252 -6.449193
v 15.5499 0.674144 -6.391528
v 15.52355 0.000844 -6.398197
v 15.92881 0.001656 -6.428071
v 15.54874 1.255081 -5.736341
v 16.1722 1.264491 -5.789257
v 16.04685 1.297267 -5.072573
v 15.55032 1.256503 -5.063282
v 16.16498 1.225265 -6.537872
v 16.1722 1.264491 -5.789257
v 15.54874 1.255081 -5.736341
v 15.53925 1.252434 -6.415481
v 16.07001 3.039984 -6.930484
v 16.04314 3.056281 -6.478381
v 16.0465 2.634213 -6.491815
v 16.02204 2.626226 -6.935144
v 16.02031 3.051744 -5.796475
v 16.03474 2.639424 -5.795558
v 16.02957 3.048568 -5.136665
v 16.0145 2.645244 -5.120374
v 16.05637 1.923984 -6.510979
v 16.10728 1.942367 -6.95464
v 16.21791 1.958933 -5.786544
v 16.10922 1.972671 -5.101453
v 16.16498 1.225265 -6.537872
v 16.12087 1.253688 -6.961009
v 16.09189 0.386252 -6.449193
v 15.9847 0.411771 -6.896331
v 15.75409 -0.000847 -6.870457
v 15.92881 0.001656 -6.428071
v 16.1722 1.264491 -5.789257
v 16.04685 1.297267 -5.072573
v 16.02506 3.040167 -4.746358
v 16.00761 2.627951 -4.74235
v 16.17651 2.613622 -4.405002
v 16.18521 3.026636 -4.400436
v 16.16747 1.920028 -4.391752
v 16.16617 1.94664 -4.758269
v 16.20376 1.231281 -4.392528
v 16.19607 1.260937 -4.762715
v 16.08993 0.101346 -4.448112
v 16.0334 0.162017 -4.780695
v 15.79384 -0.002792 -4.472504
v 15.8434 0.002707 -4.79608
v 16.0004 0.210322 -5.053299
v 15.88074 0.026563 -5.029707
v 15.94475 2.622111 -7.399124
v 16.09835 3.022797 -7.40729
v 15.94816 1.949134 -7.39285
v 15.9831 1.281848 -7.391656
v 15.95801 0.417606 -7.382557
v 15.71037 0.000133 -7.405063
v 15.55032 0.688545 -5.063282
v 15.55119 0.681344 -5.737785
v 15.54874 1.255081 -5.736341
v 15.55032 1.256503 -5.063282
v 15.53925 1.252434 -6.415481
v 15.5499 0.674144 -6.391528
v 15.55032 -0.007529 -5.063281
v 15.52355 -0.003342 -5.720359
v 15.5499 0.674144 -6.391528
v 15.52355 0.000844 -6.398197

vn -0.03758801 0.03189501 0.9987842
vn -0.03758801 0.03189501 0.9987842
vn -0.03758801 0.03189501 0.9987842
vn -0.03758801 0.03189501 0.9987842
vn 0.004592001 0.011517 0.9999231
vn 0.004592001 0.011517 0.9999231
vn -0.1705889 -0.07058897 -0.9828106
vn -0.1705889 -0.07058897 -0.9828106
vn -0.1705889 -0.07058897 -0.9828106
vn -0.1705889 -0.07058897 -0.9828106
vn -0.09120197 0.002725999 -0.9958287
vn -0.09120197 0.002725999 -0.9958287
vn -0.09120197 0.002725999 -0.9958287
vn -0.09120197 0.002725999 -0.9958287
vn -0.046325 0.9985141 -0.028697
vn -0.046325 0.9985141 -0.028697
vn -0.046325 0.9985141 -0.028697
vn -0.046325 0.9985141 -0.028697
vn 0.010079 0.9995159 -0.029432
vn 0.010079 0.9995159 -0.029432
vn 0.010079 0.9995159 -0.029432
vn 0.010079 0.9995159 -0.029432
vn -0.9888331 0.147601 0.020572
vn -0.9998267 0.007301998 -0.017126
vn -0.997288 -0.067302 0.029784
vn -0.9968336 0.01643699 0.07779797
vn -0.9998016 -0.010518 -0.01692199
vn -0.993727 -0.111824 0.001473
vn -0.9998484 0.01420701 -0.010073
vn -0.9926864 -0.1170711 -0.02946401
vn -0.9944078 -0.08540298 0.06212598
vn -0.98849 -0.064287 0.136948
vn -0.9970187 -0.07688798 -0.006483998
vn -0.9969645 -0.07137597 -0.03109998
vn -0.9942888 0.006660999 0.106514
vn -0.9850504 0.03777802 0.1680731
vn -0.9414284 0.2552021 0.2204191
vn -0.9507614 0.2552021 0.1758541
vn -0.8653072 0.4749851 0.160102
vn -0.8535734 0.4381447 0.2818538
vn -0.9997976 0.010183 -0.01735099
vn -0.993431 0.07036401 0.09024201
vn -0.976636 0.034909 0.212046
vn -0.9820061 -0.077167 0.172364
vn -0.9498023 -0.05589401 0.3078171
vn -0.9001572 0.02823501 0.4346491
vn -0.990768 -0.075712 0.112456
vn -0.9851887 -0.07752397 0.152948
vn -0.9959376 0.05700398 0.06970497
vn -0.9820857 0.05856198 0.1791039
vn -0.9560186 0.2718159 0.110202
vn -0.953916 0.23787 0.182927
vn -0.4802901 0.8721601 0.093049
vn -0.5809878 0.8086118 0.09273697
vn -0.9430239 0.164295 0.289332
vn -0.7383284 0.6685473 0.08897005
vn -0.9828522 0.05046101 0.177356
vn -0.9696841 0.240181 0.045011
vn -0.9567099 -0.05077699 0.28658
vn -0.9684694 0.03807998 0.2462049
vn -0.9557865 0.2600228 0.1373329
vn -0.8646458 0.4984209 0.06296199
vn -0.9999976 -0.002144999 0.0005489998
vn -0.9999678 -0.006716999 0.004384999
vn -0.9999684 -0.006662003 0.004339002
vn -0.9999976 -0.002144999 0.0005489998
vn -0.9999038 -0.011219 0.008163
vn -0.9999038 -0.011219 0.008163
vn -0.9996068 0.020248 0.01939899
vn -0.9995042 0.029721 0.010394
vn -0.9992101 0.03972901 0.0008720001
vn -0.9992101 0.03972901 0.0008720001

vt 0.474849 0.639041
vt 0.415427 0.634483
vt 0.417362 0.758816
vt 0.496404 0.67198
vt 0.419503 0.860108
vt 0.508278 0.865806
vt 0.178569 0.760475
vt 0.079362 0.711083
vt 0.065452 0.860305
vt 0.17825 0.864702
vt 0.079362 0.711083
vt 0.178569 0.760475
vt 0.177668 0.639512
vt 0.105658 0.641774
vt 0.299176 0.862408
vt 0.293071 0.974248
vt 0.420251 0.948907
vt 0.419503 0.860108
vt 0.159477 0.977277
vt 0.293071 0.974248
vt 0.299176 0.862408
vt 0.17825 0.864702
vt 0.130457 0.607947
vt 0.210717 0.611463
vt 0.209228 0.536073
vt 0.129225 0.533511
vt 0.332534 0.613744
vt 0.334328 0.540297
vt 0.450027 0.615782
vt 0.454251 0.543888
vt 0.207495 0.408997
vt 0.128495 0.410161
vt 0.338535 0.416014
vt 0.462053 0.421854
vt 0.205436 0.282898
vt 0.129622 0.287785
vt 0.220352 0.132728
vt 0.138301 0.135681
vt 0.141224 0.05969
vt 0.220124 0.058207
vt 0.339002 0.292639
vt 0.469136 0.300175
vt 0.519873 0.61561
vt 0.520771 0.542606
vt 0.587341 0.539133
vt 0.588397 0.613557
vt 0.586869 0.415762
vt 0.524984 0.418619
vt 0.589021 0.292805
vt 0.530396 0.296462
vt 0.577696 0.090599
vt 0.529163 0.098074
vt 0.554083 0.039851
vt 0.516942 0.054665
vt 0.479914 0.106673
vt 0.47929 0.068203
vt 0.044796 0.531198
vt 0.045741 0.607113
vt 0.045922 0.41151
vt 0.048937 0.291888
vt 0.051471 0.137697
vt 0.045631 0.060501
vt 0.417362 0.758816
vt 0.296465 0.759947
vt 0.299176 0.862408
vt 0.419503 0.860108
vt 0.17825 0.864702
vt 0.178569 0.760475
vt 0.415427 0.634483
vt 0.298133 0.637323
vt 0.178569 0.760475
vt 0.177668 0.639512
f 1/1/1 3/3/3 2/2/2
f 1/1/1 4/4/4 3/3/3
f 5/5/5 3/3/3 4/4/4
f 5/5/5 4/4/4 6/6/6
f 7/7/7 9/9/9 8/8/8
f 7/7/7 10/10/10 9/9/9
f 11/11/11 13/13/13 12/12/12
f 11/11/11 14/14/14 13/13/13
f 15/15/15 17/17/17 16/16/16
f 15/15/15 18/18/18 17/17/17
f 19/19/19 21/21/21 20/20/20
f 19/19/19 22/22/22 21/21/21
f 23/23/23 25/25/25 24/24/24
f 23/23/23 26/26/26 25/25/25
f 25/25/25 27/27/27 24/24/24
f 25/25/25 28/28/28 27/27/27
f 28/28/28 29/29/29 27/27/27
f 28/28/28 30/30/30 29/29/29
f 26/26/26 31/31/31 25/25/25
f 31/31/31 28/28/28 25/25/25
f 26/26/26 32/32/32 31/31/31
f 31/31/31 33/33/33 28/28/28
f 33/33/33 30/30/30 28/28/28
f 33/33/33 34/34/34 30/30/30
f 32/32/32 35/35/35 31/31/31
f 32/32/32 36/36/36 35/35/35
f 36/36/36 37/37/37 35/35/35
f 36/36/36 38/38/38 37/37/37
f 37/37/37 38/38/38 39/39/39
f 37/37/37 39/39/39 40/40/40
f 41/41/41 31/31/31 35/35/35
f 41/41/41 33/33/33 31/31/31
f 42/42/42 33/33/33 41/41/41
f 42/42/42 34/34/34 33/33/33
f 30/30/30 43/43/43 29/29/29
f 30/30/30 44/44/44 43/43/43
f 34/34/34 44/44/44 30/30/30
f 43/43/43 44/44/44 45/45/45
f 43/43/43 45/45/45 46/46/46
f 44/44/44 47/47/47 45/45/45
f 44/44/44 48/48/48 47/47/47
f 34/34/34 48/48/48 44/44/44
f 49/49/49 47/47/47 48/48/48
f 49/49/49 48/48/48 50/50/50
f 50/50/50 51/51/51 49/49/49
f 50/50/50 52/52/52 51/51/51
f 42/42/42 52/52/52 50/50/50
f 52/52/52 53/53/53 51/51/51
f 52/52/52 54/54/54 53/53/53
f 50/50/50 34/34/34 42/42/42
f 50/50/50 48/48/48 34/34/34
f 42/42/42 55/55/55 52/52/52
f 56/56/56 52/52/52 55/55/55
f 56/56/56 54/54/54 52/52/52
f 57/57/57 23/23/23 58/58/58
f 57/57/57 26/26/26 23/23/23
f 59/59/59 26/26/26 57/57/57
f 59/59/59 32/32/32 26/26/26
f 60/60/60 32/32/32 59/59/59
f 60/60/60 36/36/36 32/32/32
f 61/61/61 36/36/36 60/60/60
f 61/61/61 38/38/38 36/36/36
f 39/39/39 38/38/38 61/61/61
f 39/39/39 61/61/61 62/62/62
f 63/63/63 65/65/65 64/64/64
f 63/63/63 66/66/66 65/65/65
f 64/64/64 65/65/65 67/67/67
f 64/64/64 67/67/67 68/68/68
f 69/69/69 63/63/63 64/64/64
f 69/69/69 64/64/64 70/70/70
f 70/70/70 64/64/64 71/71/71
f 70/70/70 71/71/71 72/72/72
