mtllib Kitchen_GEO_GRP1_Floor_02.mtl
usemtl Kitchen_GEO_GRP1_Floor_02

g Kitchen_GEO_GRP1_Floor_02
v 15.19463 0.003838 -5.772929
v 16.49537 0.003838 -5.772929
v 16.49537 0.003838 -4.319966
v 15.19463 0.003838 -4.319967
v 15.19463 0.003838 -7.203736
v 16.49537 0.003838 -7.203736
v 14.99168 0.003838 -4.319967
v 14.99168 0.003838 -4.069508
v 14.88704 0.003838 -4.069508
v 14.88704 0.003838 -4.319967
v 14.99168 0.003838 -5.772929
v 14.88704 0.003838 -5.772929
v 14.88704 0.003838 -7.203736
v 14.99168 0.003838 -7.203736
v 15.19463 0.003838 -4.069508
v 14.88704 0.003838 -7.433801
v 14.99168 0.003838 -7.433801
v 15.19463 0.003838 -7.433801
v 14.88704 0.003838 -8.70384
v 14.99168 0.003838 -8.70384
v 14.88704 0.003838 -8.999769
v 14.99168 0.003838 -8.999769
v 15.19463 0.003838 -8.703842
v 15.19463 0.003838 -8.99977
v 14.17168 0.003838 -8.99977
v 14.17168 0.003838 -8.703842
v 13.79951 0.003838 -8.99977
v 14.17168 0.003838 -9.868634
v 13.79951 0.003838 -9.868634
v 12.67661 0.003838 -8.999769
v 12.67661 0.003838 -9.868633
v 13.79951 0.003838 -8.703842
v 12.67661 0.003838 -8.70384
v 11.52999 0.003838 -8.99977
v 11.52999 0.003838 -8.703842
v 10.63701 0.003838 -8.99977
v 10.63701 0.003838 -8.703842
v 10.39775 0.003838 -8.99977
v 10.39775 0.003838 -8.703842
v 8.972224 0.003838 -8.99977
v 10.39775 0.003838 -9.879277
v 8.972224 0.003838 -9.879277
v 8.972224 0.003838 -8.703842
v 8.536427 0.003838 -8.99977
v 8.536427 0.003838 -8.703842
v 7.97549 0.003838 -8.99977
v 7.97549 0.003838 -8.703842
v 7.920493 0.003838 -8.99977
v 7.920493 0.003838 -8.703842
v 7.97549 0.003838 -7.433801
v 7.920493 0.003838 -7.433801
v 7.97549 0.003838 -7.203736
v 7.920493 0.003838 -7.203736
v 7.97549 0.003838 -5.772929
v 7.920493 0.003838 -5.772929
v 7.97549 0.003838 -4.319968
v 7.920493 0.003838 -4.319967
v 7.97549 0.003838 -4.069508
v 7.920493 0.003838 -4.069508
v 7.920493 0.003838 -2.727731
v 7.97549 0.003838 -2.727731
v 7.97549 0.003838 -2.679024
v 8.536427 0.003838 -2.679024
v 8.536427 0.003838 -2.727731
v 8.972224 0.003838 -2.679024
v 8.536427 0.003838 1.179627
v 8.972224 0.003838 1.179627
v 10.39775 0.003838 -2.679024
v 10.39775 0.003838 1.179627
v 10.63701 0.003838 -2.679024
v 10.63701 0.003838 1.179627
v 11.52999 0.003838 -2.679024
v 11.52999 0.003838 1.179627
v 12.67661 0.003838 -2.679024
v 12.67661 0.003838 1.179627
v 13.79951 0.003838 -2.679024
v 13.79951 0.003838 1.179627
v 14.17168 0.003838 -2.679024
v 14.17168 0.003838 1.179627
v 8.972224 0.003838 -2.727731
v 10.39775 0.003838 -2.727731
v 11.52999 0.003838 -2.727731
v 10.63701 0.003838 -2.727731
v 12.67661 0.003838 -2.727731
v 13.79951 0.003838 -2.727731
v 14.17168 0.003838 -2.727731
v 14.88704 0.003838 -2.679024
v 14.88704 0.003838 -2.727731
v 14.99168 0.003838 -2.727731
v 14.99168 0.003838 -2.679024
v 15.19463 0.003838 -2.727731
v 15.19463 0.003838 -2.679024
v 14.99168 0.003838 1.179627
v 15.19463 0.003838 1.179627
v 14.88704 0.003838 1.179627
v 10.39775 0.003838 -8.99977
v 10.39775 0.003838 -9.879277
v 8.972224 0.003838 -9.879277
v 8.972224 0.003838 -8.99977
v 7.920493 0.003838 -2.679024
v 7.97549 0.003838 1.179627
v 7.920493 0.003838 1.179627

vn 0 1 0
vn 0 1 0
vn 0 1 0
vn 0 1 0
vn 0 1 0
vn 0 1 0
vn 0 1 0
vn 0 1 0
vn 0 1 0
vn 0 1 0
vn 0 1 0
vn 0 1 0
vn 0 1 0
vn 0 1 0
vn 0 1 0
vn 0 1 0
vn 0 1 0
vn 0 1 0
vn 0 1 0
vn 0 1 0
vn 0 1 0
vn 0 1 0
vn 0 1 0
vn 0 1 0
vn 0 1 0
vn 0 1 0
vn 0 1 0
vn 0 1 0
vn 0 1 0
vn 0 1 0
vn 0 1 0
vn 0 1 0
vn 0 1 0
vn 0 1 0
vn 0 1 0
vn 0 1 0
vn 0 1 0
vn 0 1 0
vn 0 1 0
vn 0 1 0
vn 0 1 0
vn 0 1 0
vn 0 1 0
vn 0 1 0
vn 0 1 0
vn 0 1 0
vn 0 1 0
vn 0 1 0
vn 0 1 0
vn 0 1 0
vn 0 1 0
vn 0 1 0
vn 0 1 0
vn 0 1 0
vn 0 1 0
vn 0 1 0
vn 0 1 0
vn 0 1 0
vn 0 1 0
vn 0 1 0
vn 0 1 0
vn 0 1 0
vn 0 1 0
vn 0 1 0
vn 0 1 0
vn 0 1 0
vn 0 1 0
vn 0 1 0
vn 0 1 0
vn 0 1 0
vn 0 1 0
vn 0 1 0
vn 0 1 0
vn 0 1 0
vn 0 1 0
vn 0 1 0
vn 0 1 0
vn 0 1 0
vn 0 1 0
vn 0 1 0
vn 0 1 0
vn 0 1 0
vn 0 1 0
vn 0 1 0
vn 0 1 0
vn 0 1 0
vn 0 1 0
vn 0 1 0
vn 0 1 0
vn 0 1 0
vn 0 1 0
vn 0 1 0
vn 0 1 0
vn 0 1 0
vn 0 1 0
vn 0 -1 0
vn 0 -1 0
vn 0 -1 0
vn 0 -1 0
vn 0 1 0
vn 0 1 0
vn 0 1 0

vt 0.604341 0.854538
vt 0.604341 0.997341
vt 0.741966 0.997341
vt 0.741966 0.854538
vt 0.468815 0.854538
vt 0.468815 0.997341
vt 0.741966 0.832257
vt 0.76569 0.832257
vt 0.76569 0.82077
vt 0.741966 0.82077
vt 0.604341 0.832257
vt 0.604341 0.82077
vt 0.468815 0.82077
vt 0.468815 0.832257
vt 0.765689 0.854538
vt 0.447023 0.82077
vt 0.447023 0.832257
vt 0.447023 0.854538
vt 0.326725 0.82077
vt 0.326725 0.832257
vt 0.298694 0.82077
vt 0.298694 0.832257
vt 0.326725 0.854538
vt 0.298694 0.854538
vt 0.298694 0.742233
vt 0.326725 0.742233
vt 0.298694 0.701375
vt 0.216396 0.742233
vt 0.216396 0.701375
vt 0.298695 0.578097
vt 0.216396 0.578097
vt 0.326725 0.701375
vt 0.326725 0.578097
vt 0.298694 0.452214
vt 0.326725 0.452214
vt 0.298694 0.354178
vt 0.326725 0.354178
vt 0.298694 0.327911
vt 0.326725 0.327911
vt 0.298694 0.171409
vt 0.215387 0.327911
vt 0.215388 0.171409
vt 0.326725 0.171409
vt 0.298694 0.123565
vt 0.326725 0.123565
vt 0.298694 0.061982
vt 0.326725 0.061982
vt 0.298694 0.055945
vt 0.326725 0.055945
vt 0.447023 0.061982
vt 0.447023 0.055945
vt 0.468815 0.061982
vt 0.468815 0.055945
vt 0.604341 0.061982
vt 0.604341 0.055945
vt 0.741966 0.061982
vt 0.741966 0.055945
vt 0.76569 0.061982
vt 0.76569 0.055945
vt 0.892783 0.055951
vt 0.892783 0.061988
vt 0.897396 0.061989
vt 0.897396 0.12357
vt 0.892783 0.12357
vt 0.897396 0.171414
vt 1.1122 0.123576
vt 1.112199 0.171419
vt 0.897396 0.327913
vt 1.1122 0.327915
vt 0.897396 0.35418
vt 1.1122 0.354182
vt 0.897396 0.452214
vt 1.1122 0.452215
vt 0.897396 0.578095
vt 1.112199 0.578093
vt 0.897396 0.701372
vt 1.1122 0.701368
vt 0.897396 0.742229
vt 1.1122 0.742225
vt 0.892783 0.171414
vt 0.892783 0.327913
vt 0.892783 0.452214
vt 0.892783 0.35418
vt 0.892783 0.578095
vt 0.892783 0.701372
vt 0.892783 0.742229
vt 0.897396 0.820765
vt 0.892783 0.820765
vt 0.892783 0.832252
vt 0.897396 0.832252
vt 0.892783 0.854533
vt 0.897396 0.854532
vt 1.1122 0.832247
vt 1.1122 0.854527
vt 1.1122 0.82076
vt 0.298694 0.327911
vt 0.215387 0.327911
vt 0.215388 0.171409
vt 0.298694 0.171409
vt 0.897396 0.055951
vt 1.1122 0.061995
vt 1.1122 0.055957
f 1/1/1 3/3/3 2/2/2
f 1/1/1 4/4/4 3/3/3
f 5/5/5 1/1/1 2/2/2
f 5/5/5 2/2/2 6/6/6
f 1/1/1 7/7/7 4/4/4
f 4/4/4 7/7/7 8/8/8
f 7/7/7 9/9/9 8/8/8
f 7/7/7 10/10/10 9/9/9
f 11/11/11 10/10/10 7/7/7
f 1/1/1 11/11/11 7/7/7
f 11/11/11 12/12/12 10/10/10
f 11/11/11 13/13/13 12/12/12
f 11/11/11 14/14/14 13/13/13
f 1/1/1 14/14/14 11/11/11
f 1/1/1 5/5/5 14/14/14
f 4/4/4 8/8/8 15/15/15
f 14/14/14 16/16/16 13/13/13
f 14/14/14 17/17/17 16/16/16
f 5/5/5 17/17/17 14/14/14
f 5/5/5 18/18/18 17/17/17
f 17/17/17 19/19/19 16/16/16
f 17/17/17 20/20/20 19/19/19
f 18/18/18 20/20/20 17/17/17
f 20/20/20 21/21/21 19/19/19
f 20/20/20 22/22/22 21/21/21
f 23/23/23 22/22/22 20/20/20
f 18/18/18 23/23/23 20/20/20
f 23/23/23 24/24/24 22/22/22
f 19/19/19 21/21/21 25/25/25
f 19/19/19 25/25/25 26/26/26
f 26/26/26 25/25/25 27/27/27
f 27/27/27 25/25/25 28/28/28
f 27/27/27 28/28/28 29/29/29
f 30/30/30 27/27/27 29/29/29
f 30/30/30 29/29/29 31/31/31
f 32/32/32 27/27/27 30/30/30
f 26/26/26 27/27/27 32/32/32
f 32/32/32 30/30/30 33/33/33
f 33/33/33 30/30/30 34/34/34
f 33/33/33 34/34/34 35/35/35
f 35/35/35 34/34/34 36/36/36
f 35/35/35 36/36/36 37/37/37
f 37/37/37 36/36/36 38/38/38
f 37/37/37 38/38/38 39/39/39
f 39/39/39 38/38/38 40/40/40
f 40/40/40 38/38/38 41/41/41
f 40/40/40 41/41/41 42/42/42
f 39/39/39 40/40/40 43/43/43
f 43/43/43 40/40/40 44/44/44
f 43/43/43 44/44/44 45/45/45
f 45/45/45 44/44/44 46/46/46
f 45/45/45 46/46/46 47/47/47
f 47/47/47 46/46/46 48/48/48
f 47/47/47 48/48/48 49/49/49
f 50/50/50 47/47/47 49/49/49
f 50/50/50 49/49/49 51/51/51
f 52/52/52 50/50/50 51/51/51
f 52/52/52 51/51/51 53/53/53
f 54/54/54 52/52/52 53/53/53
f 54/54/54 53/53/53 55/55/55
f 56/56/56 54/54/54 55/55/55
f 56/56/56 55/55/55 57/57/57
f 58/58/58 56/56/56 57/57/57
f 58/58/58 57/57/57 59/59/59
f 60/60/60 58/58/58 59/59/59
f 60/60/60 61/61/61 58/58/58
f 62/62/62 61/61/61 60/60/60
f 63/63/63 61/61/61 62/62/62
f 63/63/63 64/64/64 61/61/61
f 65/65/65 64/64/64 63/63/63
f 65/65/65 63/63/63 66/66/66
f 65/65/65 66/66/66 67/67/67
f 68/68/68 65/65/65 67/67/67
f 68/68/68 67/67/67 69/69/69
f 70/70/70 68/68/68 69/69/69
f 70/70/70 69/69/69 71/71/71
f 72/72/72 70/70/70 71/71/71
f 72/72/72 71/71/71 73/73/73
f 74/74/74 72/72/72 73/73/73
f 74/74/74 73/73/73 75/75/75
f 76/76/76 74/74/74 75/75/75
f 76/76/76 75/75/75 77/77/77
f 78/78/78 76/76/76 77/77/77
f 78/78/78 77/77/77 79/79/79
f 65/65/65 80/80/80 64/64/64
f 68/68/68 80/80/80 65/65/65
f 68/68/68 81/81/81 80/80/80
f 70/70/70 81/81/81 68/68/68
f 82/82/82 70/70/70 72/72/72
f 74/74/74 82/82/82 72/72/72
f 82/82/82 83/83/83 70/70/70
f 70/70/70 83/83/83 81/81/81
f 74/74/74 84/84/84 82/82/82
f 85/85/85 74/74/74 76/76/76
f 85/85/85 84/84/84 74/74/74
f 78/78/78 85/85/85 76/76/76
f 78/78/78 86/86/86 85/85/85
f 87/87/87 86/86/86 78/78/78
f 87/87/87 88/88/88 86/86/86
f 89/89/89 88/88/88 87/87/87
f 89/89/89 87/87/87 90/90/90
f 91/91/91 89/89/89 90/90/90
f 91/91/91 90/90/90 92/92/92
f 92/92/92 90/90/90 93/93/93
f 92/92/92 93/93/93 94/94/94
f 15/15/15 89/89/89 91/91/91
f 15/15/15 8/8/8 89/89/89
f 8/8/8 88/88/88 89/89/89
f 8/8/8 9/9/9 88/88/88
f 90/90/90 95/95/95 93/93/93
f 90/90/90 87/87/87 95/95/95
f 95/95/95 87/87/87 78/78/78
f 95/95/95 78/78/78 79/79/79
f 96/96/96 98/98/98 97/97/97
f 96/96/96 99/99/99 98/98/98
f 62/62/62 60/60/60 100/100/100
f 101/101/101 62/62/62 100/100/100
f 63/63/63 62/62/62 101/101/101
f 63/63/63 101/101/101 66/66/66
f 101/101/101 100/100/100 102/102/102
