mtllib Kitchen_GEO_GRP1_Frame_L.mtl
usemtl Kitchen_GEO_GRP1_Frame_L

g Kitchen_GEO_GRP1_Frame_L
v 15.0736 2.272317 -8.444756
v 15.0736 2.272317 -7.655854
v 15.0736 1.148701 -7.655854
v 15.0736 1.148701 -8.444756
v 15.0736 1.148701 -8.444756
v 15.01677 1.101279 -8.478052
v 15.01677 2.319739 -8.478052
v 15.0736 2.272317 -8.444756
v 15.0736 1.148701 -7.655854
v 15.01677 1.101279 -7.622558
v 15.01677 1.101279 -8.478052
v 15.0736 1.148701 -8.444756
v 15.0736 2.272317 -7.655854
v 15.01677 2.319739 -7.622558
v 15.01677 1.101279 -7.622558
v 15.0736 1.148701 -7.655854
v 15.0736 2.272317 -8.444756
v 15.01677 2.319739 -8.478052
v 15.01677 2.319739 -7.622558
v 15.0736 2.272317 -7.655854
v 15.15056 2.374694 -8.530119
v 15.0736 2.374694 -8.530119
v 15.0736 1.046324 -8.530119
v 15.15056 1.046324 -8.530119
v 15.01677 1.046324 -8.530119
v 15.01677 2.374694 -8.530119
v 15.15056 1.046324 -8.530119
v 15.0736 1.046324 -8.530119
v 15.0736 1.046324 -7.570491
v 15.15056 1.046324 -7.570491
v 15.0736 1.046324 -8.530119
v 15.01677 1.046324 -8.530119
v 15.01677 1.046324 -7.570491
v 15.0736 1.046324 -7.570491
v 15.15056 1.046324 -7.570491
v 15.0736 1.046324 -7.570491
v 15.0736 2.374694 -7.570491
v 15.15056 2.374694 -7.570491
v 15.01677 2.374694 -7.570491
v 15.01677 1.046324 -7.570491
v 15.15056 2.374694 -7.570491
v 15.0736 2.374694 -7.570491
v 15.0736 2.374694 -8.530119
v 15.15056 2.374694 -8.530119
v 15.0736 2.374694 -7.570491
v 15.01677 2.374694 -7.570491
v 15.01677 2.374694 -8.530119
v 15.0736 2.374694 -8.530119
v 15.01677 1.101279 -8.478052
v 15.01677 1.046324 -8.530119
v 15.01677 2.374694 -8.530119
v 15.01677 2.319739 -8.478052
v 15.01677 1.101279 -7.622558
v 15.01677 1.046324 -7.570491
v 15.01677 2.319739 -7.622558
v 15.01677 2.374694 -7.570491

vn -1 0 0
vn -1 0 0
vn -1 0 0
vn -1 0 0
vn -0.505489 0 0.8628331
vn -0.505489 0 0.8628331
vn -0.505489 0 0.8628331
vn -0.505489 0 0.8628331
vn -0.6406697 0.7678167 0
vn -0.6406697 0.7678167 0
vn -0.6406697 0.7678167 0
vn -0.6406697 0.7678167 0
vn -0.505489 0 -0.8628331
vn -0.505489 0 -0.8628331
vn -0.505489 0 -0.8628331
vn -0.505489 0 -0.8628331
vn -0.6406697 -0.7678167 0
vn -0.6406697 -0.7678167 0
vn -0.6406697 -0.7678167 0
vn -0.6406697 -0.7678167 0
vn 0 0 -1
vn 0 0 -1
vn 0 0 -1
vn 0 0 -1
vn 0 0 -1
vn 0 0 -1
vn 0 -1 0
vn 0 -1 0
vn 0 -1 0
vn 0 -1 0
vn 0 -1 0
vn 0 -1 0
vn 0 -1 0
vn 0 -1 0
vn 0 0 1
vn 0 0 1
vn 0 0 1
vn 0 0 1
vn 0 0 1
vn 0 0 1
vn 0 1 0
vn 0 1 0
vn 0 1 0
vn 0 1 0
vn 0 1 0
vn 0 1 0
vn 0 1 0
vn 0 1 0
vn -1 0 0
vn -1 0 0
vn -1 0 0
vn -1 0 0
vn -1 0 0
vn -1 0 0
vn -1 0 0
vn -1 0 0

vt 0.573394 0.615787
vt 0.932251 0.617305
vt 0.933302 0.075436
vt 0.57458 0.07402
vt 0.57458 0.07402
vt 0.547483 0.041947
vt 0.546999 0.648915
vt 0.573394 0.615787
vt 0.933302 0.075436
vt 0.95969 0.042298
vt 0.547483 0.041947
vt 0.57458 0.07402
vt 0.932251 0.617305
vt 0.959431 0.649328
vt 0.95969 0.042298
vt 0.933302 0.075436
vt 0.573394 0.615787
vt 0.546999 0.648915
vt 0.959431 0.649328
vt 0.932251 0.617305
vt 0.52671 0.657583
vt 0.529218 0.661044
vt 0.528709 0.030839
vt 0.525715 0.034777
vt 0.538059 0.035773
vt 0.537321 0.654635
vt 0.525715 0.034777
vt 0.528709 0.030839
vt 0.977481 0.030133
vt 0.979994 0.033567
vt 0.528709 0.030839
vt 0.538059 0.035773
vt 0.969381 0.036559
vt 0.977481 0.030133
vt 0.979994 0.033567
vt 0.977481 0.030133
vt 0.978214 0.660401
vt 0.981219 0.656435
vt 0.968858 0.655484
vt 0.969381 0.036559
vt 0.981219 0.656435
vt 0.978214 0.660401
vt 0.529218 0.661044
vt 0.52671 0.657583
vt 0.978214 0.660401
vt 0.968858 0.655484
vt 0.537321 0.654635
vt 0.529218 0.661044
vt 0.547483 0.041947
vt 0.538059 0.035773
vt 0.537321 0.654635
vt 0.546999 0.648915
vt 0.95969 0.042298
vt 0.969381 0.036559
vt 0.959431 0.649328
vt 0.968858 0.655484
f 1/1/1 3/3/3 2/2/2
f 1/1/1 4/4/4 3/3/3
f 5/5/5 7/7/7 6/6/6
f 5/5/5 8/8/8 7/7/7
f 9/9/9 11/11/11 10/10/10
f 9/9/9 12/12/12 11/11/11
f 13/13/13 15/15/15 14/14/14
f 13/13/13 16/16/16 15/15/15
f 17/17/17 19/19/19 18/18/18
f 17/17/17 20/20/20 19/19/19
f 21/21/21 23/23/23 22/22/22
f 21/21/21 24/24/24 23/23/23
f 22/22/22 23/23/23 25/25/25
f 22/22/22 25/25/25 26/26/26
f 27/27/27 29/29/29 28/28/28
f 27/27/27 30/30/30 29/29/29
f 31/31/31 33/33/33 32/32/32
f 31/31/31 34/34/34 33/33/33
f 35/35/35 37/37/37 36/36/36
f 35/35/35 38/38/38 37/37/37
f 36/36/36 37/37/37 39/39/39
f 36/36/36 39/39/39 40/40/40
f 41/41/41 43/43/43 42/42/42
f 41/41/41 44/44/44 43/43/43
f 45/45/45 47/47/47 46/46/46
f 45/45/45 48/48/48 47/47/47
f 49/49/49 51/51/51 50/50/50
f 49/49/49 52/52/52 51/51/51
f 53/53/53 49/49/49 50/50/50
f 53/53/53 50/50/50 54/54/54
f 55/55/55 53/53/53 54/54/54
f 55/55/55 54/54/54 56/56/56
f 52/52/52 56/56/56 51/51/51
f 52/52/52 55/55/55 56/56/56
