mtllib Kitchen_GEO_GRP1_Kitchen_87.mtl
usemtl Kitchen_GEO_GRP1_Kitchen_87

g Kitchen_GEO_GRP1_Kitchen_87
v 8.608929 0.986712 -1.673186
v 8.600895 2.308548 -1.673186
v 8.598538 2.324233 -2.623953
v 8.606473 1.025438 -2.623953
v 8.612775 0.017232 -2.623953
v 8.591675 0.019673 -1.673185
v 10.45569 -0.01193 -2.623951
v 10.45842 -0.012673 -1.673185
v 8.638471 -0.002514 -1.673186
v 8.647707 -0.003221 -2.623953
v 10.4531 1.460509 -1.673186
v 10.47342 1.369476 -2.623953
v 10.47651 2.311835 -2.623952
v 10.4529 2.335568 -1.673186
v 10.466 0.071921 -1.673186
v 10.46584 0.102914 -2.623953
v 10.47651 2.311835 -2.623952
v 10.10791 2.475952 -2.623952
v 10.13317 2.46382 -1.673186
v 10.4529 2.335568 -1.673186
v 10.10791 2.475952 -2.623952
v 9.562626 2.561385 -2.623952
v 9.569891 2.547155 -1.673186
v 10.13317 2.46382 -1.673186
v 8.986204 2.47692 -1.673186
v 9.569891 2.547155 -1.673186
v 9.562626 2.561385 -2.623952
v 8.989064 2.484046 -2.623952
v 8.600895 2.308548 -1.673186
v 8.986204 2.47692 -1.673186
v 8.989064 2.484046 -2.623952
v 8.598538 2.324233 -2.623953
v 8.612775 0.017232 -2.623953
v 8.647707 -0.003221 -2.623953
v 8.638471 -0.002514 -1.673186
v 8.591675 0.019673 -1.673185
v 10.45569 -0.01193 -2.623951
v 10.46584 0.102914 -2.623953
v 10.466 0.071921 -1.673186
v 10.45842 -0.012673 -1.673185

vn 0.9999787 0.006092998 -0.002355999
vn 0.9999787 0.006092998 -0.002355999
vn 0.9999787 0.006092998 -0.002355999
vn 0.9999787 0.006092998 -0.002355999
vn 0.9999377 -0.005543998 0.009697997
vn 0.9999377 -0.005543998 0.009697997
vn 0.005201003 0.9999865 3.700002E-05
vn 0.005200997 0.9999865 3.699998E-05
vn 0.005200997 0.9999865 3.699998E-05
vn 0.005200997 0.9999865 3.699998E-05
vn -0.9997298 0.001593 -0.023188
vn -0.9997298 0.001593 -0.023188
vn -0.9997298 0.001593 -0.023188
vn -0.9997298 0.001593 -0.023188
vn -0.9999425 -0.002002999 -0.01053399
vn -0.9999425 -0.002002999 -0.01053399
vn -0.3909358 -0.9203987 0.005954998
vn -0.3909358 -0.9203987 0.005954998
vn -0.3909358 -0.9203987 0.005954998
vn -0.3909358 -0.9203987 0.005954998
vn -0.150497 -0.9885478 -0.01113
vn -0.150497 -0.9885478 -0.01113
vn -0.150497 -0.9885478 -0.01113
vn -0.150498 -0.9885477 -0.01113
vn 0.126489 -0.9919022 -0.011433
vn 0.126489 -0.9919022 -0.011433
vn 0.126489 -0.9919022 -0.011433
vn 0.126489 -0.9919022 -0.011433
vn 0.3895638 -0.9209345 -0.01094499
vn 0.3895641 -0.9209343 -0.010945
vn 0.3895641 -0.9209343 -0.010945
vn 0.3895638 -0.9209345 -0.01094499
vn 0.4625538 0.8865716 0.005911997
vn 0.4625542 0.8865713 0.005912002
vn 0.4625538 0.8865716 0.005911997
vn 0.4625542 0.8865713 0.005912002
vn -0.9960665 0.08855797 0.002993999
vn -0.9960665 0.08855797 0.002993999
vn -0.9960665 0.08855797 0.002993999
vn -0.9960665 0.08855797 0.002993999

vt 0.25993 0.258904
vt 0.25993 0.60919
vt 0.511883 0.613347
vt 0.511883 0.269166
vt 0.511883 0.001992
vt 0.25993 0.002639
vt 0.66523 0.997285
vt 0.917183 0.998008
vt 0.917182 0.515723
vt 0.665229 0.51817
vt 0.001831 0.233883
vt 0.253784 0.258006
vt 0.253784 0.008281
vt 0.001831 0.001992
vt 0.001831 0.601858
vt 0.253784 0.593645
vt 0.769804 0.499654
vt 0.769804 0.401974
vt 0.517851 0.408669
vt 0.517851 0.493398
vt 0.769804 0.401974
vt 0.769804 0.257475
vt 0.517851 0.2594
vt 0.517851 0.408669
vt 0.517851 0.104723
vt 0.517851 0.2594
vt 0.769804 0.257475
vt 0.769804 0.105481
vt 0.517851 0.002616
vt 0.517851 0.104723
vt 0.769804 0.105481
vt 0.769804 0.001992
vt 0.665229 0.508913
vt 0.665229 0.51817
vt 0.917182 0.515723
vt 0.917182 0.503322
vt 0.253784 0.624079
vt 0.253784 0.593645
vt 0.001831 0.601858
vt 0.001831 0.624276
f 1/1/1 3/3/3 2/2/2
f 1/1/1 4/4/4 3/3/3
f 1/1/1 5/5/5 4/4/4
f 1/1/1 6/6/6 5/5/5
f 7/7/7 9/9/9 8/8/8
f 7/7/7 10/10/10 9/9/9
f 11/11/11 13/13/13 12/12/12
f 11/11/11 14/14/14 13/13/13
f 15/15/15 11/11/11 12/12/12
f 15/15/15 12/12/12 16/16/16
f 17/17/17 19/19/19 18/18/18
f 17/17/17 20/20/20 19/19/19
f 21/21/21 23/23/23 22/22/22
f 21/21/21 24/24/24 23/23/23
f 25/25/25 27/27/27 26/26/26
f 25/25/25 28/28/28 27/27/27
f 29/29/29 31/31/31 30/30/30
f 29/29/29 32/32/32 31/31/31
f 33/33/33 35/35/35 34/34/34
f 33/33/33 36/36/36 35/35/35
f 37/37/37 39/39/39 38/38/38
f 37/37/37 40/40/40 39/39/39
