mtllib Kitchen_GEO_GRP1_Top.mtl
usemtl Kitchen_GEO_GRP1_Top

g Kitchen_GEO_GRP1_Top
v 11.49534 4.635756 -7.715032
v 11.49879 3.766287 -8.844158
v 9.369595 3.766287 -8.844158
v 9.105476 4.635756 -7.715032
v 13.68917 3.766287 -8.844158
v 13.95387 4.635756 -7.715032
v 9.105476 4.635756 -7.715032
v 7.952311 3.766287 -8.844158
v 8.967772 4.635756 -7.658486
v 13.95387 4.635756 -7.715032
v 15.1471 3.766287 -8.844158
v 14.09157 4.635756 -7.658486
v 8.910734 4.635756 -5.77826
v 8.910734 4.635756 -7.521978
v 7.952311 3.766287 -7.331788
v 7.952311 3.766287 -5.77826
v 7.952311 3.766287 -4.224732
v 8.910734 4.635756 -4.034542
v 8.967772 4.635756 -7.658486
v 7.952311 3.766287 -8.844158
v 8.910734 4.635756 -7.521978
v 8.967772 4.635756 -3.898035
v 8.910734 4.635756 -4.034542
v 7.952311 3.766287 -2.712362
v 14.14861 4.635756 -5.77826
v 15.1471 3.766287 -5.77826
v 15.1471 3.766287 -7.331788
v 14.14861 4.635756 -7.521978
v 15.1471 3.766287 -4.224732
v 14.14861 4.635756 -4.034542
v 14.09157 4.635756 -7.658486
v 14.14861 4.635756 -7.521978
v 15.1471 3.766287 -8.844158
v 14.09157 4.635756 -3.898035
v 15.1471 3.766287 -2.712362
v 14.14861 4.635756 -4.034542
v 11.49534 4.635756 -3.841488
v 9.105476 4.635756 -3.841488
v 9.369595 3.766287 -2.712362
v 11.49879 3.766287 -2.712362
v 13.68917 3.766287 -2.712362
v 13.95387 4.635756 -3.841488
v 9.105476 4.635756 -3.841488
v 7.952311 3.766287 -2.712362
v 8.967772 4.635756 -3.898035
v 13.95387 4.635756 -3.841488
v 15.1471 3.766287 -2.712362
v 14.09157 4.635756 -3.898035
v 9.105476 4.635756 -7.715032
v 9.425584 4.635756 -7.375236
v 11.49987 4.635756 -7.375236
v 11.49534 4.635756 -7.715032
v 8.967772 4.635756 -7.658486
v 9.306062 4.635756 -7.32861
v 13.63376 4.635756 -7.375236
v 13.95387 4.635756 -7.715032
v 13.75328 4.635756 -7.32861
v 14.09157 4.635756 -7.658486
v 8.910734 4.635756 -5.77826
v 9.256557 4.635756 -5.77826
v 9.256557 4.635756 -7.216052
v 8.910734 4.635756 -7.521978
v 9.306062 4.635756 -7.32861
v 8.967772 4.635756 -7.658486
v 8.910734 4.635756 -4.034542
v 9.256557 4.635756 -4.340468
v 8.967772 4.635756 -3.898035
v 9.306062 4.635756 -4.22791
v 14.14861 4.635756 -7.521978
v 13.80279 4.635756 -7.216052
v 13.80279 4.635756 -5.77826
v 14.14861 4.635756 -5.77826
v 14.09157 4.635756 -7.658486
v 13.75328 4.635756 -7.32861
v 13.80279 4.635756 -4.340468
v 14.14861 4.635756 -4.034542
v 13.75328 4.635756 -4.22791
v 14.09157 4.635756 -3.898035
v 11.49534 4.635756 -3.841488
v 11.49987 4.635756 -4.181284
v 9.425584 4.635756 -4.181284
v 9.105476 4.635756 -3.841488
v 9.306062 4.635756 -4.22791
v 8.967772 4.635756 -3.898035
v 13.95387 4.635756 -3.841488
v 13.63376 4.635756 -4.181284
v 14.09157 4.635756 -3.898035
v 13.75328 4.635756 -4.22791
v 11.49879 3.766287 -8.844158
v 11.49879 3.645667 -8.844158
v 9.369595 3.645667 -8.844158
v 9.369595 3.766287 -8.844158
v 7.952311 3.645667 -8.844158
v 7.952311 3.766287 -8.844158
v 13.68917 3.766287 -8.844158
v 13.68917 3.645667 -8.844158
v 15.1471 3.766287 -8.844158
v 15.1471 3.645667 -8.844158
v 7.952311 3.766287 -7.331788
v 7.952311 3.645667 -7.331788
v 7.952311 3.645667 -5.77826
v 7.952311 3.766287 -5.77826
v 7.952311 3.766287 -8.844158
v 7.952311 3.645667 -8.844158
v 7.952311 3.645667 -4.224732
v 7.952311 3.766287 -4.224732
v 7.952311 3.645667 -2.712362
v 7.952311 3.766287 -2.712362
v 15.1471 3.766287 -5.77826
v 15.1471 3.645667 -5.77826
v 15.1471 3.645667 -7.331788
v 15.1471 3.766287 -7.331788
v 15.1471 3.645667 -8.844158
v 15.1471 3.766287 -8.844158
v 15.1471 3.766287 -4.224732
v 15.1471 3.645667 -4.224732
v 15.1471 3.766287 -2.712362
v 15.1471 3.645667 -2.712362
v 9.369595 3.766287 -2.712362
v 9.369595 3.645667 -2.712362
v 11.49879 3.645667 -2.712362
v 11.49879 3.766287 -2.712362
v 7.952311 3.766287 -2.712362
v 7.952311 3.645667 -2.712362
v 13.68917 3.645667 -2.712362
v 13.68917 3.766287 -2.712362
v 15.1471 3.645667 -2.712362
v 15.1471 3.766287 -2.712362

vn 0 -0.7923151 0.6101121
vn 0 -0.7923151 0.6101121
vn 0 -0.7923151 0.6101121
vn 0 -0.7923151 0.6101121
vn 0 -0.7923151 0.6101121
vn 0 -0.7923151 0.6101121
vn 0.021673 -0.8027059 0.5959809
vn 0.3442061 -0.8635232 0.368578
vn 0.3794531 -0.8615903 0.3371611
vn -0.02111699 -0.8028018 0.5958719
vn -0.3404981 -0.8674431 0.362772
vn -0.3664119 -0.8664628 0.3390939
vn 0.6718999 -0.740642 0
vn 0.6718999 -0.740642 0
vn 0.6718999 -0.740642 0
vn 0.6718999 -0.740642 0
vn 0.6718999 -0.740642 0
vn 0.6718999 -0.740642 0
vn 0.3794531 -0.8615903 0.3371611
vn 0.3442061 -0.8635232 0.368578
vn 0.6544175 -0.7557945 0.02263802
vn 0.3794522 -0.8615906 -0.3371612
vn 0.6544181 -0.755794 -0.022638
vn 0.3442061 -0.8635232 -0.368578
vn -0.6567026 -0.7541496 0
vn -0.6567026 -0.7541496 0
vn -0.6567026 -0.7541496 0
vn -0.6567026 -0.7541496 0
vn -0.6567026 -0.7541496 0
vn -0.6567026 -0.7541496 0
vn -0.3664119 -0.8664628 0.3390939
vn -0.6397159 -0.7682928 0.02212899
vn -0.3404981 -0.8674431 0.362772
vn -0.366411 -0.866463 -0.339094
vn -0.3404981 -0.8674431 -0.362772
vn -0.6397159 -0.7682928 -0.02212899
vn 0 -0.7923151 -0.6101121
vn 0 -0.7923151 -0.6101121
vn 0 -0.7923151 -0.6101121
vn 0 -0.7923151 -0.6101121
vn 0 -0.7923151 -0.6101121
vn 0 -0.7923151 -0.6101121
vn 0.021672 -0.8027069 -0.5959799
vn 0.3442061 -0.8635232 -0.368578
vn 0.3794522 -0.8615906 -0.3371612
vn -0.021116 -0.8028019 -0.5958719
vn -0.3404981 -0.8674431 -0.362772
vn -0.366411 -0.866463 -0.339094
vn 0 -1 0
vn 0 -1 0
vn 0 -1 0
vn 0 -1 0
vn 0 -1 0
vn 0 -1 0
vn 0 -1 0
vn 0 -1 0
vn 0 -1 0
vn 0 -1 0
vn 0 -1 0
vn 0 -1 0
vn 0 -1 0
vn 0 -1 0
vn 0 -1 0
vn 0 -1 0
vn 0 -1 0
vn 0 -1 0
vn 0 -1 0
vn 0 -1 0
vn 0 -1 0
vn 0 -1 0
vn 0 -1 0
vn 0 -1 0
vn 0 -1 0
vn 0 -1 0
vn 0 -1 0
vn 0 -1 0
vn 0 -1 0
vn 0 -1 0
vn 0 -1 0
vn 0 -1 0
vn 0 -1 0
vn 0 -1 0
vn 0 -1 0
vn 0 -1 0
vn 0 -1 0
vn 0 -1 0
vn 0 -1 0
vn 0 -1 0
vn 0 0 1
vn 0 0 1
vn 0 0 1
vn 0 0 1
vn 0 0 1
vn 0 0 1
vn 0 0 1
vn 0 0 1
vn 0 0 1
vn 0 0 1
vn 1 0 0
vn 1 0 0
vn 1 0 0
vn 1 0 0
vn 1 0 0
vn 1 0 0
vn 1 0 0
vn 1 0 0
vn 1 0 0
vn 1 0 0
vn -1 0 0
vn -1 0 0
vn -1 0 0
vn -1 0 0
vn -1 0 0
vn -1 0 0
vn -1 0 0
vn -1 0 0
vn -1 0 0
vn -1 0 0
vn 0 0 -1
vn 0 0 -1
vn 0 0 -1
vn 0 0 -1
vn 0 0 -1
vn 0 0 -1
vn 0 0 -1
vn 0 0 -1
vn 0 0 -1
vn 0 0 -1

vt 0.84516 0.476211
vt 0.845235 0.155654
vt 0.799152 0.155654
vt 0.793436 0.476211
vt 0.892642 0.155654
vt 0.898371 0.476211
vt 0.793436 0.476211
vt 0.768478 0.155654
vt 0.790456 0.492265
vt 0.898371 0.476211
vt 0.924196 0.155654
vt 0.901351 0.492265
vt 0.848894 0.46935
vt 0.897364 0.46935
vt 0.892078 0.168787
vt 0.848894 0.168787
vt 0.80571 0.168787
vt 0.800423 0.469349
vt 0.901159 0.487237
vt 0.934118 0.168787
vt 0.897364 0.46935
vt 0.796629 0.487236
vt 0.800423 0.469349
vt 0.76367 0.168787
vt 0.852447 0.474045
vt 0.852447 0.160918
vt 0.809263 0.160918
vt 0.803976 0.474044
vt 0.89563 0.160918
vt 0.900917 0.474045
vt 0.800181 0.491931
vt 0.803976 0.474044
vt 0.767223 0.160918
vt 0.904712 0.491931
vt 0.93767 0.160918
vt 0.900917 0.474045
vt 0.847924 0.473811
vt 0.899649 0.473811
vt 0.893932 0.153253
vt 0.847849 0.153253
vt 0.800443 0.153253
vt 0.794713 0.473811
vt 0.899649 0.473811
vt 0.924607 0.153253
vt 0.902629 0.489864
vt 0.794713 0.473811
vt 0.768888 0.153253
vt 0.791733 0.489864
vt 0.793436 0.476211
vt 0.800364 0.572679
vt 0.845258 0.572679
vt 0.84516 0.476211
vt 0.790456 0.492265
vt 0.797777 0.585917
vt 0.891443 0.572679
vt 0.898371 0.476211
vt 0.894029 0.585916
vt 0.901351 0.492265
vt 0.848894 0.46935
vt 0.848894 0.5778
vt 0.88886 0.5778
vt 0.897364 0.46935
vt 0.891989 0.593325
vt 0.901159 0.487237
vt 0.800423 0.469349
vt 0.808927 0.5778
vt 0.796629 0.487236
vt 0.805798 0.593325
vt 0.803976 0.474044
vt 0.81248 0.582495
vt 0.852446 0.582495
vt 0.852447 0.474045
vt 0.800181 0.491931
vt 0.809351 0.59802
vt 0.892413 0.582495
vt 0.900917 0.474045
vt 0.895542 0.59802
vt 0.904712 0.491931
vt 0.847924 0.473811
vt 0.847826 0.570279
vt 0.89272 0.570279
vt 0.899649 0.473811
vt 0.895307 0.583516
vt 0.902629 0.489864
vt 0.794713 0.473811
vt 0.801642 0.570279
vt 0.791733 0.489864
vt 0.799055 0.583516
vt 0.845235 0.155654
vt 0.845235 0.155654
vt 0.799152 0.155654
vt 0.799152 0.155654
vt 0.768478 0.155654
vt 0.768478 0.155654
vt 0.892642 0.155654
vt 0.892642 0.155654
vt 0.924196 0.155654
vt 0.924196 0.155654
vt 0.892078 0.168787
vt 0.892078 0.168787
vt 0.848894 0.168787
vt 0.848894 0.168787
vt 0.934118 0.168787
vt 0.934118 0.168787
vt 0.80571 0.168787
vt 0.80571 0.168787
vt 0.76367 0.168787
vt 0.76367 0.168787
vt 0.852447 0.160918
vt 0.852447 0.160918
vt 0.809263 0.160918
vt 0.809263 0.160918
vt 0.767223 0.160918
vt 0.767223 0.160918
vt 0.89563 0.160918
vt 0.89563 0.160918
vt 0.93767 0.160918
vt 0.93767 0.160918
vt 0.893932 0.153253
vt 0.893932 0.153253
vt 0.847849 0.153253
vt 0.847849 0.153253
vt 0.924607 0.153253
vt 0.924607 0.153253
vt 0.800443 0.153253
vt 0.800443 0.153253
vt 0.768888 0.153253
vt 0.768888 0.153253
f 1/1/1 3/3/3 2/2/2
f 1/1/1 4/4/4 3/3/3
f 1/1/1 2/2/2 5/5/5
f 1/1/1 5/5/5 6/6/6
f 7/7/7 8/8/8 3/3/3
f 7/7/7 9/9/9 8/8/8
f 10/10/10 5/5/5 11/11/11
f 10/10/10 11/11/11 12/12/12
f 13/13/13 15/15/15 14/14/14
f 13/13/13 16/16/16 15/15/15
f 13/13/13 17/17/17 16/16/16
f 13/13/13 18/18/18 17/17/17
f 19/19/19 15/15/15 20/20/20
f 19/19/19 21/21/21 15/15/15
f 22/22/22 17/17/17 23/23/23
f 22/22/22 24/24/24 17/17/17
f 25/25/25 27/27/27 26/26/26
f 25/25/25 28/28/28 27/27/27
f 25/25/25 26/26/26 29/29/29
f 25/25/25 29/29/29 30/30/30
f 31/31/31 27/27/27 32/32/32
f 31/31/31 33/33/33 27/27/27
f 34/34/34 29/29/29 35/35/35
f 34/34/34 36/36/36 29/29/29
f 37/37/37 39/39/39 38/38/38
f 37/37/37 40/40/40 39/39/39
f 37/37/37 41/41/41 40/40/40
f 37/37/37 42/42/42 41/41/41
f 43/43/43 39/39/39 44/44/44
f 43/43/43 44/44/44 45/45/45
f 46/46/46 47/47/47 41/41/41
f 46/46/46 48/48/48 47/47/47
f 49/49/49 51/51/51 50/50/50
f 49/49/49 52/52/52 51/51/51
f 53/53/53 49/49/49 50/50/50
f 53/53/53 50/50/50 54/54/54
f 52/52/52 55/55/55 51/51/51
f 52/52/52 56/56/56 55/55/55
f 56/56/56 57/57/57 55/55/55
f 56/56/56 58/58/58 57/57/57
f 59/59/59 61/61/61 60/60/60
f 59/59/59 62/62/62 61/61/61
f 62/62/62 63/63/63 61/61/61
f 62/62/62 64/64/64 63/63/63
f 65/65/65 59/59/59 60/60/60
f 65/65/65 60/60/60 66/66/66
f 67/67/67 65/65/65 66/66/66
f 67/67/67 66/66/66 68/68/68
f 69/69/69 71/71/71 70/70/70
f 69/69/69 72/72/72 71/71/71
f 73/73/73 69/69/69 70/70/70
f 73/73/73 70/70/70 74/74/74
f 72/72/72 75/75/75 71/71/71
f 72/72/72 76/76/76 75/75/75
f 76/76/76 77/77/77 75/75/75
f 76/76/76 78/78/78 77/77/77
f 79/79/79 81/81/81 80/80/80
f 79/79/79 82/82/82 81/81/81
f 82/82/82 83/83/83 81/81/81
f 82/82/82 84/84/84 83/83/83
f 85/85/85 79/79/79 80/80/80
f 85/85/85 80/80/80 86/86/86
f 87/87/87 85/85/85 86/86/86
f 87/87/87 86/86/86 88/88/88
f 89/89/89 91/91/91 90/90/90
f 89/89/89 92/92/92 91/91/91
f 92/92/92 93/93/93 91/91/91
f 92/92/92 94/94/94 93/93/93
f 95/95/95 89/89/89 90/90/90
f 95/95/95 90/90/90 96/96/96
f 97/97/97 95/95/95 96/96/96
f 97/97/97 96/96/96 98/98/98
f 99/99/99 101/101/101 100/100/100
f 99/99/99 102/102/102 101/101/101
f 103/103/103 99/99/99 100/100/100
f 103/103/103 100/100/100 104/104/104
f 102/102/102 105/105/105 101/101/101
f 102/102/102 106/106/106 105/105/105
f 106/106/106 107/107/107 105/105/105
f 106/106/106 108/108/108 107/107/107
f 109/109/109 111/111/111 110/110/110
f 109/109/109 112/112/112 111/111/111
f 112/112/112 113/113/113 111/111/111
f 112/112/112 114/114/114 113/113/113
f 115/115/115 109/109/109 110/110/110
f 115/115/115 110/110/110 116/116/116
f 117/117/117 115/115/115 116/116/116
f 117/117/117 116/116/116 118/118/118
f 119/119/119 121/121/121 120/120/120
f 119/119/119 122/122/122 121/121/121
f 123/123/123 119/119/119 120/120/120
f 123/123/123 120/120/120 124/124/124
f 122/122/122 125/125/125 121/121/121
f 122/122/122 126/126/126 125/125/125
f 126/126/126 127/127/127 125/125/125
f 126/126/126 128/128/128 127/127/127
