mtllib LivingRoom_GEO_GRP_LivingRoom_Wood_01.mtl
usemtl LivingRoom_GEO_GRP_LivingRoom_Wood_01

g LivingRoom_GEO_GRP_LivingRoom_Wood_01
v 7.303884 1.270816 -8.410938
v 7.290357 1.041876 -8.410938
v 7.289664 1.052249 -8.641565
v 7.303937 1.28343 -8.638872
v 7.298451 0.860593 -8.410938
v 7.297716 0.86861 -8.640666
v 7.298069 0.428496 -8.628471
v 7.299861 0.424156 -8.410938
v 7.276215 0.218442 -8.410938
v 7.276601 0.221085 -8.624193
v 7.268988 0.039551 -8.620123
v 7.269239 0.039551 -8.410938
v 7.268737 0.039551 -8.828671
v 7.276987 0.223786 -8.834751
v 7.266105 0.039551 -9.191946
v 7.277394 0.225974 -9.213604
v 7.294203 0.43776 -9.235861
v 7.296277 0.432836 -8.842905
v 7.295621 0.891711 -9.246336
v 7.296981 0.876627 -8.862432
v 7.286188 1.082141 -9.231262
v 7.288972 1.062621 -8.862511
v 7.304 1.318308 -9.257281
v 7.303989 1.296043 -8.863143
v 7.265057 0.039551 -9.375497
v 7.277556 0.227437 -9.375498
v 7.293377 0.439722 -9.375498
v 7.295079 0.897721 -9.375498
v 7.285079 1.089918 -9.375497
v 7.304005 1.327179 -9.375498
v 7.303884 1.270816 -8.410938
v 7.303937 1.28343 -8.183004
v 7.289664 1.052249 -8.180311
v 7.290357 1.041876 -8.410938
v 7.298451 0.860593 -8.410938
v 7.297716 0.86861 -8.181211
v 7.298069 0.428496 -8.193405
v 7.299861 0.424156 -8.410938
v 7.276215 0.218442 -8.410938
v 7.276601 0.221085 -8.197683
v 7.268988 0.039551 -8.201754
v 7.269239 0.039551 -8.410938
v 7.268737 0.039551 -7.993207
v 7.276987 0.223786 -7.987126
v 7.266105 0.039551 -7.62993
v 7.277394 0.225974 -7.608273
v 7.294203 0.43776 -7.586016
v 7.296277 0.432836 -7.978972
v 7.295621 0.891711 -7.575541
v 7.296981 0.876627 -7.959445
v 7.286188 1.082141 -7.590614
v 7.288972 1.062621 -7.959366
v 7.304 1.318308 -7.564596
v 7.303989 1.296043 -7.958734
v 7.265057 0.039551 -7.44638
v 7.277556 0.227437 -7.446379
v 7.293377 0.439722 -7.446379
v 7.295079 0.897721 -7.446379
v 7.285079 1.089918 -7.44638
v 7.304005 1.327179 -7.446379

vn -0.9981717 0.06028098 0.004413999
vn -0.9999169 0.012539 0.003009
vn -0.9998829 0.014973 0.003146
vn -0.9980897 0.06161198 0.004549999
vn -0.9998893 -0.014233 0.004357001
vn -0.9998984 -0.01355201 0.004411002
vn -0.9994748 0.03193999 0.005470999
vn -0.9994286 0.03336199 0.005414998
vn -0.9970246 0.07703797 0.002653999
vn -0.9971831 0.07495701 0.002645
vn -0.999123 0.041871 -5.6E-05
vn -0.9991818 0.04044299 -6.699999E-05
vn -0.9987786 0.04936998 0.001975999
vn -0.9974492 0.07131902 0.002915001
vn -0.9984277 0.05596999 0.003056999
vn -0.9974571 0.07120701 0.003002
vn -0.9995968 0.02809399 0.004133999
vn -0.9995381 0.03005 0.004542
vn -0.9999185 -0.01201999 0.004303998
vn -0.9999224 -0.01170299 0.004265998
vn -0.9997874 0.01975499 0.005905997
vn -0.9998446 0.01697899 0.004745997
vn -0.9973372 0.07249101 0.007972002
vn -0.9976897 0.06762399 0.006493998
vn -0.9979723 0.06358702 0.002830001
vn -0.997526 0.070236 0.00295
vn -0.9995863 0.02841401 0.004475001
vn -0.999898 -0.013503 0.004654
vn -0.9997547 0.02112799 0.006646998
vn -0.996922 0.07786499 0.009134
vn -0.9981717 0.06028098 -0.004413999
vn -0.9980897 0.06161298 -0.004549999
vn -0.9998829 0.014973 -0.003146
vn -0.9999169 0.01254 -0.003009
vn -0.9998893 -0.014232 -0.004357001
vn -0.9998984 -0.01355199 -0.004410997
vn -0.9994748 0.031941 -0.005470999
vn -0.9994286 0.03336298 -0.005414998
vn -0.9970246 0.07703897 -0.002653999
vn -0.9971831 0.074958 -0.002645
vn -0.9991232 0.04186901 5.600001E-05
vn -0.9991818 0.04044199 6.699999E-05
vn -0.9987785 0.04937198 -0.001975999
vn -0.9974491 0.07132101 -0.002915
vn -0.9984275 0.05597397 -0.003056999
vn -0.997457 0.07120899 -0.003002
vn -0.9995968 0.02809399 -0.004133999
vn -0.9995381 0.03005 -0.004542
vn -0.9999185 -0.01201999 -0.004303998
vn -0.9999224 -0.01170299 -0.004265998
vn -0.9997874 0.01975499 -0.005905997
vn -0.9998446 0.01697799 -0.004745997
vn -0.9973372 0.07249101 -0.007972002
vn -0.9976897 0.06762399 -0.006493998
vn -0.9979722 0.06358901 -0.00283
vn -0.997526 0.070237 -0.00295
vn -0.9995863 0.02841401 -0.004475001
vn -0.9998981 -0.013502 -0.004655
vn -0.9997546 0.02112899 -0.006646997
vn -0.996922 0.077866 -0.009134

vt 0.329679 0.541135
vt 0.365869 0.54218
vt 0.363665 0.577224
vt 0.326877 0.576253
vt 0.394429 0.542659
vt 0.392628 0.577567
vt 0.461618 0.576681
vt 0.4626 0.543083
vt 0.492758 0.542722
vt 0.49211 0.576276
vt 0.516125 0.575898
vt 0.516557 0.542638
vt 0.515487 0.609102
vt 0.49122 0.609686
vt 0.514226 0.667113
vt 0.48982 0.669866
vt 0.458763 0.672152
vt 0.460565 0.61042
vt 0.387455 0.673006
vt 0.390829 0.612504
vt 0.357386 0.670578
vt 0.361458 0.612127
vt 0.319465 0.673389
vt 0.32429 0.611455
vt 0.513191 0.691192
vt 0.488673 0.693959
vt 0.457869 0.696192
vt 0.38648 0.696913
vt 0.355727 0.694715
vt 0.317205 0.697441
vt 0.329679 0.541135
vt 0.326877 0.576253
vt 0.363665 0.577224
vt 0.365869 0.54218
vt 0.394429 0.542659
vt 0.392628 0.577567
vt 0.461618 0.576681
vt 0.4626 0.543083
vt 0.492758 0.542722
vt 0.49211 0.576276
vt 0.516125 0.575898
vt 0.516557 0.542638
vt 0.515487 0.609102
vt 0.49122 0.609686
vt 0.514226 0.667113
vt 0.48982 0.669866
vt 0.458763 0.672152
vt 0.460565 0.61042
vt 0.387455 0.673006
vt 0.390829 0.612504
vt 0.357386 0.670578
vt 0.361458 0.612127
vt 0.319465 0.673389
vt 0.32429 0.611455
vt 0.513191 0.691192
vt 0.488673 0.693959
vt 0.457869 0.696192
vt 0.38648 0.696913
vt 0.355727 0.694715
vt 0.317205 0.697441
f 1/1/1 3/3/3 2/2/2
f 1/1/1 4/4/4 3/3/3
f 3/3/3 5/5/5 2/2/2
f 3/3/3 6/6/6 5/5/5
f 5/5/5 6/6/6 7/7/7
f 5/5/5 7/7/7 8/8/8
f 9/9/9 8/8/8 7/7/7
f 9/9/9 7/7/7 10/10/10
f 11/11/11 9/9/9 10/10/10
f 11/11/11 12/12/12 9/9/9
f 13/13/13 11/11/11 10/10/10
f 13/13/13 10/10/10 14/14/14
f 7/7/7 14/14/14 10/10/10
f 15/15/15 13/13/13 14/14/14
f 15/15/15 14/14/14 16/16/16
f 14/14/14 17/17/17 16/16/16
f 14/14/14 18/18/18 17/17/17
f 7/7/7 18/18/18 14/14/14
f 6/6/6 18/18/18 7/7/7
f 18/18/18 19/19/19 17/17/17
f 18/18/18 20/20/20 19/19/19
f 6/6/6 20/20/20 18/18/18
f 21/21/21 19/19/19 20/20/20
f 21/21/21 20/20/20 22/22/22
f 23/23/23 21/21/21 22/22/22
f 23/23/23 22/22/22 24/24/24
f 25/25/25 15/15/15 16/16/16
f 25/25/25 16/16/16 26/26/26
f 17/17/17 26/26/26 16/16/16
f 17/17/17 27/27/27 26/26/26
f 19/19/19 27/27/27 17/17/17
f 19/19/19 28/28/28 27/27/27
f 29/29/29 19/19/19 21/21/21
f 29/29/29 28/28/28 19/19/19
f 30/30/30 21/21/21 23/23/23
f 30/30/30 29/29/29 21/21/21
f 22/22/22 20/20/20 6/6/6
f 22/22/22 6/6/6 3/3/3
f 4/4/4 22/22/22 3/3/3
f 4/4/4 24/24/24 22/22/22
f 31/31/31 33/33/33 32/32/32
f 31/31/31 34/34/34 33/33/33
f 33/33/33 34/34/34 35/35/35
f 33/33/33 35/35/35 36/36/36
f 35/35/35 37/37/37 36/36/36
f 35/35/35 38/38/38 37/37/37
f 39/39/39 37/37/37 38/38/38
f 39/39/39 40/40/40 37/37/37
f 41/41/41 40/40/40 39/39/39
f 41/41/41 39/39/39 42/42/42
f 43/43/43 40/40/40 41/41/41
f 43/43/43 44/44/44 40/40/40
f 37/37/37 40/40/40 44/44/44
f 45/45/45 44/44/44 43/43/43
f 45/45/45 46/46/46 44/44/44
f 44/44/44 46/46/46 47/47/47
f 44/44/44 47/47/47 48/48/48
f 37/37/37 44/44/44 48/48/48
f 36/36/36 37/37/37 48/48/48
f 48/48/48 47/47/47 49/49/49
f 48/48/48 49/49/49 50/50/50
f 36/36/36 48/48/48 50/50/50
f 51/51/51 50/50/50 49/49/49
f 51/51/51 52/52/52 50/50/50
f 53/53/53 52/52/52 51/51/51
f 53/53/53 54/54/54 52/52/52
f 55/55/55 46/46/46 45/45/45
f 55/55/55 56/56/56 46/46/46
f 47/47/47 46/46/46 56/56/56
f 47/47/47 56/56/56 57/57/57
f 49/49/49 47/47/47 57/57/57
f 49/49/49 57/57/57 58/58/58
f 59/59/59 49/49/49 58/58/58
f 59/59/59 51/51/51 49/49/49
f 60/60/60 51/51/51 59/59/59
f 60/60/60 53/53/53 51/51/51
f 52/52/52 36/36/36 50/50/50
f 52/52/52 33/33/33 36/36/36
f 32/32/32 52/52/52 54/54/54
f 32/32/32 33/33/33 52/52/52
