mtllib LivingRoom_Center_Table_LivingRoom_GEO_GRP.mtl
usemtl LivingRoom_Center_Table_LivingRoom_GEO_GRP

g LivingRoom_Center_Table_LivingRoom_GEO_GRP
v 3.715234 0.968136 -5.179978
v 3.71713 0.901994 -5.231152
v 3.35697 0.901994 -5.396219
v 3.319442 0.968136 -5.361373
v 4.123368 0.968136 -5.331578
v 4.088522 0.901994 -5.369106
v 4.30476 0.968136 -5.727369
v 4.25359 0.901994 -5.729265
v 4.153164 0.968136 -6.135501
v 4.115635 0.901994 -6.100657
v 3.757371 0.968136 -6.316898
v 3.755474 0.901994 -6.265723
v 3.349237 0.968136 -6.165297
v 3.384083 0.901994 -6.12777
v 3.167843 0.968136 -5.769506
v 3.219017 0.901994 -5.767609
v 3.543857 0.901994 -5.569747
v 3.726576 0.901994 -5.486005
v 3.914991 0.901994 -5.555992
v 3.998734 0.901994 -5.738711
v 3.928747 0.901994 -5.927128
v 3.746029 0.901994 -6.01087
v 3.557612 0.901994 -5.940883
v 3.47387 0.901994 -5.758164
v 3.610138 0.751077 -5.631291
v 3.729926 0.751077 -5.57639
v 3.853448 0.751077 -5.622273
v 3.908349 0.751077 -5.742061
v 3.862466 0.751077 -5.865584
v 3.742679 0.751077 -5.920485
v 3.619156 0.751077 -5.874602
v 3.564256 0.751077 -5.754814
v 3.729926 0.751077 -5.57639
v 3.733222 0.729403 -5.665331
v 3.675359 0.729403 -5.691851
v 3.610138 0.751077 -5.631291
v 3.853448 0.751077 -5.622273
v 3.79289 0.729403 -5.687495
v 3.908349 0.751077 -5.742061
v 3.819408 0.729403 -5.745357
v 3.862466 0.751077 -5.865584
v 3.797246 0.729403 -5.805026
v 3.742679 0.751077 -5.920485
v 3.739382 0.729403 -5.831545
v 3.619156 0.751077 -5.874602
v 3.679715 0.729403 -5.809382
v 3.564256 0.751077 -5.754814
v 3.653195 0.729403 -5.751518
v 3.733222 0.729403 -5.665331
v 3.733222 0.424083 -5.665331
v 3.675359 0.424083 -5.691851
v 3.675359 0.729403 -5.691851
v 3.79289 0.729403 -5.687495
v 3.79289 0.424083 -5.687495
v 3.819408 0.729403 -5.745357
v 3.819408 0.424083 -5.745357
v 3.653195 0.424083 -5.751518
v 3.653195 0.729403 -5.751518
v 3.679715 0.424083 -5.809382
v 3.679715 0.729403 -5.809382
v 3.739382 0.424083 -5.831545
v 3.739382 0.729403 -5.831545
v 3.797246 0.424083 -5.805026
v 3.797246 0.729403 -5.805026
v 3.819408 0.424083 -5.745357
v 3.819408 0.729403 -5.745357
v 3.843925 0.379171 -5.63253
v 3.730444 0.379171 -5.590377
v 3.620395 0.379171 -5.640815
v 3.894362 0.379171 -5.742579
v 3.894362 0.379171 -5.742579
v 3.85221 0.379171 -5.856062
v 3.74216 0.379171 -5.906498
v 3.628679 0.379171 -5.864347
v 3.578242 0.379171 -5.754295
v 3.620395 0.010288 -5.640815
v 3.730444 0.010288 -5.590377
v 3.843925 0.010288 -5.63253
v 3.894362 0.010288 -5.742579
v 3.894362 0.010288 -5.742579
v 3.85221 0.010288 -5.856062
v 3.74216 0.010288 -5.906498
v 3.628679 0.010288 -5.864347
v 3.578242 0.010288 -5.754295
v 3.319442 1.015817 -5.361373
v 3.167843 1.015817 -5.769506
v 3.226333 1.048316 -5.767338
v 3.362334 1.048316 -5.4012
v 3.715234 1.015817 -5.179978
v 3.717401 1.048316 -5.238469
v 4.123368 1.015817 -5.331578
v 4.083542 1.048316 -5.37447
v 4.30476 1.015817 -5.727369
v 4.246271 1.048316 -5.729537
v 4.153164 1.015817 -6.135501
v 4.110272 1.048316 -6.095676
v 3.757371 1.015817 -6.316898
v 3.755203 1.048316 -6.258408
v 3.349237 1.015817 -6.165297
v 3.389064 1.048316 -6.122406
v 3.319442 0.968136 -5.361373
v 3.715234 0.968136 -5.179978
v 4.123368 0.968136 -5.331578
v 4.30476 0.968136 -5.727369
v 4.153164 0.968136 -6.135501
v 3.757371 0.968136 -6.316898
v 3.349237 0.968136 -6.165297
v 3.167843 0.968136 -5.769506
v 3.736302 1.036249 -5.748437

vn -0.03426898 -0.3793108 0.9246345
vn -0.013389 -0.9323757 0.3612429
vn -0.264904 -0.9323758 0.2459699
vn -0.6780468 -0.3793109 0.6295838
vn 0.6295858 -0.3793039 0.6780488
vn 0.245969 -0.9323761 0.264904
vn 0.9246389 -0.3793 0.034269
vn 0.3612429 -0.9323757 0.013389
vn 0.678052 -0.379303 -0.629583
vn 0.2649029 -0.9323758 -0.2459709
vn 0.03426901 -0.3793091 -0.9246352
vn 0.013389 -0.9323757 -0.3612429
vn -0.6295859 -0.379309 -0.6780459
vn -0.2459689 -0.9323757 -0.2649049
vn -0.924634 -0.379312 -0.03426901
vn -0.361242 -0.932376 -0.013389
vn -0.145481 -0.980096 0.135082
vn -0.007353 -0.980096 0.198388
vn 0.135083 -0.9800959 0.145481
vn 0.198387 -0.9800962 0.007353001
vn 0.145481 -0.980096 -0.135082
vn 0.007353 -0.980096 -0.198388
vn -0.135083 -0.980096 -0.14548
vn -0.1983889 -0.9800957 -0.007352998
vn -0.5756944 -0.6187384 0.5345454
vn -0.02909599 -0.6187378 0.7850586
vn 0.5345481 -0.6187372 0.5756932
vn 0.7850592 -0.6187371 0.02909601
vn 0.5756967 -0.6187377 -0.5345438
vn 0.02909599 -0.6187378 -0.7850586
vn -0.5345467 -0.6187387 -0.5756927
vn -0.7850583 -0.6187382 -0.02909601
vn -0.02909599 -0.6187378 0.7850586
vn -0.03326299 -0.4398018 0.8974786
vn -0.6581337 -0.4397948 0.6110978
vn -0.5756944 -0.6187384 0.5345454
vn 0.5345481 -0.6187372 0.5756932
vn 0.611096 -0.4398 0.658132
vn 0.7850592 -0.6187371 0.02909601
vn 0.8974816 -0.4397958 0.03326299
vn 0.5756967 -0.6187377 -0.5345438
vn 0.6581382 -0.4398001 -0.6110892
vn 0.02909599 -0.6187378 -0.7850586
vn 0.03326302 -0.4397962 -0.8974814
vn -0.5345467 -0.6187387 -0.5756927
vn -0.6110938 -0.4397959 -0.6581368
vn -0.7850583 -0.6187382 -0.02909601
vn -0.8974814 -0.4397962 -0.03326302
vn -0.03326299 -0.4398018 0.8974786
vn -0.035029 0.324817 0.945128
vn -0.6930742 0.3248121 0.6435412
vn -0.6581337 -0.4397948 0.6110978
vn 0.611096 -0.4398 0.658132
vn 0.64354 0.324815 0.6930739
vn 0.8974816 -0.4397958 0.03326299
vn 0.9451287 0.3248149 0.03502899
vn -0.9451287 0.3248149 -0.03502899
vn -0.8974814 -0.4397962 -0.03326302
vn -0.6435371 0.324816 -0.6930761
vn -0.6110938 -0.4397959 -0.6581368
vn 0.03502899 0.3248149 -0.9451287
vn 0.03326302 -0.4397962 -0.8974814
vn 0.6930792 0.3248191 -0.6435322
vn 0.6581382 -0.4398001 -0.6110892
vn 0.9451287 0.3248149 0.03502899
vn 0.8974816 -0.4397958 0.03326299
vn 0.6760727 0.113038 0.7281127
vn -0.0368 0.113038 0.992909
vn -0.7281141 0.113038 0.6760711
vn 0.992909 0.113038 0.0368
vn 0.992909 0.113038 0.0368
vn 0.728116 0.113039 -0.676069
vn 0.03679999 0.113039 -0.9929088
vn -0.6760733 0.113038 -0.7281122
vn -0.992909 0.113038 -0.0368
vn -0.7328111 0 0.6804321
vn -0.03703699 0 0.9993138
vn 0.6804336 0 0.7328097
vn 0.9993138 0 0.03703699
vn 0.9993138 0 0.03703699
vn 0.732813 0 -0.68043
vn 0.03703699 0 -0.9993138
vn -0.6804342 0 -0.7328092
vn -0.9993138 0 -0.03703699
vn -0.6269354 0.5177664 0.5821254
vn -0.8549355 0.5177657 -0.03168598
vn -0.138407 0.9903622 -0.005130001
vn -0.101496 0.9903622 0.09424102
vn -0.03168599 0.5177669 0.8549348
vn -0.005130001 0.9903622 0.138407
vn 0.582126 0.5177639 0.6269369
vn 0.09424201 0.990362 0.101496
vn 0.8549383 0.5177612 0.03168601
vn 0.138407 0.9903622 0.005130001
vn 0.6269411 0.51776 -0.5821251
vn 0.101496 0.990362 -0.09424201
vn 0.031686 0.5177599 -0.8549389
vn 0.005130001 0.9903622 -0.138407
vn -0.5821282 0.5177622 -0.6269363
vn -0.09424102 0.9903622 -0.101496
vn -0.6780468 -0.3793109 0.6295838
vn -0.03426898 -0.3793108 0.9246345
vn 0.6295858 -0.3793039 0.6780488
vn 0.9246389 -0.3793 0.034269
vn 0.678052 -0.379303 -0.629583
vn 0.03426901 -0.3793091 -0.9246352
vn -0.6295859 -0.379309 -0.6780459
vn -0.924634 -0.379312 -0.03426901
vn 0 1 0

vt 0.589163 0.295486
vt 0.562734 0.295486
vt 0.484486 0.484394
vt 0.503175 0.503083
vt 0.503175 0.087889
vt 0.484486 0.106578
vt 0.295578 0.001902
vt 0.295578 0.028329
vt 0.087982 0.087889
vt 0.10667 0.106578
vt 0.001992 0.295486
vt 0.028422 0.295486
vt 0.087982 0.503083
vt 0.10667 0.484394
vt 0.295578 0.589072
vt 0.295578 0.562643
vt 0.391416 0.391324
vt 0.431113 0.295486
vt 0.391416 0.199649
vt 0.295578 0.159951
vt 0.19974 0.199649
vt 0.160043 0.295486
vt 0.19974 0.391324
vt 0.295578 0.431021
vt 0.358408 0.358316
vt 0.384434 0.295486
vt 0.358408 0.232656
vt 0.295578 0.206632
vt 0.232748 0.232656
vt 0.206723 0.295486
vt 0.232748 0.358316
vt 0.295578 0.384341
vt 0.918093 0.27219
vt 0.918093 0.313503
vt 0.945389 0.32481
vt 0.974601 0.295597
vt 0.861584 0.295597
vt 0.890796 0.32481
vt 0.838177 0.352106
vt 0.879489 0.352106
vt 0.861584 0.408615
vt 0.890796 0.379403
vt 0.918093 0.432022
vt 0.918093 0.390709
vt 0.974601 0.408615
vt 0.945389 0.379403
vt 0.998008 0.352106
vt 0.956696 0.352106
vt 0.186904 0.597621
vt 0.17702 0.74007
vt 0.213934 0.742356
vt 0.216919 0.598768
vt 0.157089 0.59569
vt 0.1418 0.735778
vt 0.127191 0.593644
vt 0.110633 0.728448
vt 0.251507 0.742739
vt 0.247034 0.598868
vt 0.289054 0.741168
vt 0.277057 0.597816
vt 0.325838 0.737528
vt 0.306792 0.595615
vt 0.360683 0.731547
vt 0.336105 0.592386
vt 0.391338 0.722592
vt 0.36504 0.588441
vt 0.119441 0.769419
vt 0.1639 0.77773
vt 0.206727 0.781621
vt 0.07145 0.753305
vt 0.431437 0.75274
vt 0.380768 0.76895
vt 0.334867 0.776877
vt 0.291445 0.781042
vt 0.249006 0.782573
vt 0.19473 0.951593
vt 0.13929 0.946656
vt 0.083417 0.93807
vt 0.02739 0.926445
vt 0.469315 0.926571
vt 0.414907 0.935883
vt 0.359822 0.944786
vt 0.304784 0.9506
vt 0.249818 0.952888
vt 0.479583 0.761811
vt 0.616216 0.911208
vt 0.628364 0.88466
vt 0.506946 0.751628
vt 0.488609 0.559557
vt 0.515158 0.571705
vt 0.638008 0.422923
vt 0.648191 0.450286
vt 0.840262 0.431952
vt 0.828113 0.4585
vt 0.976894 0.581349
vt 0.949531 0.591532
vt 0.967867 0.783603
vt 0.941318 0.771455
vt 0.818469 0.920235
vt 0.808286 0.892872
vt 0.459464 0.769265
vt 0.469113 0.550601
vt 0.630555 0.402804
vt 0.849218 0.412456
vt 0.997013 0.573896
vt 0.987363 0.792559
vt 0.825922 0.940354
vt 0.60726 0.930705
vt 0.728238 0.671579
f 1/1/1 3/3/3 2/2/2
f 1/1/1 4/4/4 3/3/3
f 5/5/5 1/1/1 2/2/2
f 5/5/5 2/2/2 6/6/6
f 7/7/7 5/5/5 6/6/6
f 7/7/7 6/6/6 8/8/8
f 9/9/9 7/7/7 8/8/8
f 9/9/9 8/8/8 10/10/10
f 11/11/11 9/9/9 10/10/10
f 11/11/11 10/10/10 12/12/12
f 13/13/13 11/11/11 12/12/12
f 13/13/13 12/12/12 14/14/14
f 15/15/15 13/13/13 14/14/14
f 15/15/15 14/14/14 16/16/16
f 4/4/4 16/16/16 3/3/3
f 4/4/4 15/15/15 16/16/16
f 2/2/2 3/3/3 17/17/17
f 2/2/2 17/17/17 18/18/18
f 6/6/6 18/18/18 19/19/19
f 8/8/8 6/6/6 19/19/19
f 6/6/6 2/2/2 18/18/18
f 8/8/8 19/19/19 20/20/20
f 10/10/10 8/8/8 20/20/20
f 10/10/10 20/20/20 21/21/21
f 12/12/12 10/10/10 21/21/21
f 12/12/12 21/21/21 22/22/22
f 14/14/14 12/12/12 22/22/22
f 14/14/14 22/22/22 23/23/23
f 16/16/16 14/14/14 23/23/23
f 16/16/16 23/23/23 24/24/24
f 3/3/3 24/24/24 17/17/17
f 3/3/3 16/16/16 24/24/24
f 18/18/18 17/17/17 25/25/25
f 18/18/18 25/25/25 26/26/26
f 19/19/19 18/18/18 26/26/26
f 19/19/19 26/26/26 27/27/27
f 20/20/20 19/19/19 27/27/27
f 20/20/20 27/27/27 28/28/28
f 21/21/21 20/20/20 28/28/28
f 21/21/21 28/28/28 29/29/29
f 22/22/22 21/21/21 29/29/29
f 22/22/22 29/29/29 30/30/30
f 23/23/23 22/22/22 30/30/30
f 23/23/23 30/30/30 31/31/31
f 24/24/24 23/23/23 31/31/31
f 24/24/24 31/31/31 32/32/32
f 17/17/17 32/32/32 25/25/25
f 17/17/17 24/24/24 32/32/32
f 33/33/33 35/35/35 34/34/34
f 33/33/33 36/36/36 35/35/35
f 37/37/37 33/33/33 34/34/34
f 37/37/37 34/34/34 38/38/38
f 39/39/39 37/37/37 38/38/38
f 39/39/39 38/38/38 40/40/40
f 41/41/41 39/39/39 40/40/40
f 41/41/41 40/40/40 42/42/42
f 43/43/43 41/41/41 42/42/42
f 43/43/43 42/42/42 44/44/44
f 45/45/45 43/43/43 44/44/44
f 45/45/45 44/44/44 46/46/46
f 47/47/47 45/45/45 46/46/46
f 47/47/47 46/46/46 48/48/48
f 36/36/36 48/48/48 35/35/35
f 36/36/36 47/47/47 48/48/48
f 49/49/49 51/51/51 50/50/50
f 49/49/49 52/52/52 51/51/51
f 53/53/53 49/49/49 50/50/50
f 53/53/53 50/50/50 54/54/54
f 55/55/55 53/53/53 54/54/54
f 55/55/55 54/54/54 56/56/56
f 52/52/52 57/57/57 51/51/51
f 52/52/52 58/58/58 57/57/57
f 58/58/58 59/59/59 57/57/57
f 58/58/58 60/60/60 59/59/59
f 60/60/60 61/61/61 59/59/59
f 60/60/60 62/62/62 61/61/61
f 62/62/62 63/63/63 61/61/61
f 62/62/62 64/64/64 63/63/63
f 64/64/64 65/65/65 63/63/63
f 64/64/64 66/66/66 65/65/65
f 56/56/56 54/54/54 67/67/67
f 54/54/54 68/68/68 67/67/67
f 54/54/54 50/50/50 68/68/68
f 50/50/50 69/69/69 68/68/68
f 50/50/50 51/51/51 69/69/69
f 56/56/56 67/67/67 70/70/70
f 63/63/63 65/65/65 71/71/71
f 63/63/63 71/71/71 72/72/72
f 61/61/61 63/63/63 72/72/72
f 61/61/61 72/72/72 73/73/73
f 59/59/59 61/61/61 73/73/73
f 59/59/59 73/73/73 74/74/74
f 57/57/57 59/59/59 74/74/74
f 57/57/57 74/74/74 75/75/75
f 51/51/51 75/75/75 69/69/69
f 51/51/51 57/57/57 75/75/75
f 68/68/68 69/69/69 76/76/76
f 68/68/68 76/76/76 77/77/77
f 67/67/67 68/68/68 77/77/77
f 67/67/67 77/77/77 78/78/78
f 70/70/70 67/67/67 78/78/78
f 70/70/70 78/78/78 79/79/79
f 72/72/72 71/71/71 80/80/80
f 72/72/72 80/80/80 81/81/81
f 73/73/73 72/72/72 81/81/81
f 73/73/73 81/81/81 82/82/82
f 74/74/74 73/73/73 82/82/82
f 74/74/74 82/82/82 83/83/83
f 75/75/75 74/74/74 83/83/83
f 75/75/75 83/83/83 84/84/84
f 69/69/69 84/84/84 76/76/76
f 69/69/69 75/75/75 84/84/84
f 85/85/85 87/87/87 86/86/86
f 85/85/85 88/88/88 87/87/87
f 88/88/88 85/85/85 89/89/89
f 88/88/88 89/89/89 90/90/90
f 90/90/90 89/89/89 91/91/91
f 90/90/90 91/91/91 92/92/92
f 92/92/92 91/91/91 93/93/93
f 92/92/92 93/93/93 94/94/94
f 94/94/94 93/93/93 95/95/95
f 94/94/94 95/95/95 96/96/96
f 96/96/96 95/95/95 97/97/97
f 96/96/96 97/97/97 98/98/98
f 98/98/98 97/97/97 99/99/99
f 98/98/98 99/99/99 100/100/100
f 100/100/100 86/86/86 87/87/87
f 100/100/100 99/99/99 86/86/86
f 101/101/101 89/89/89 85/85/85
f 101/101/101 102/102/102 89/89/89
f 102/102/102 91/91/91 89/89/89
f 102/102/102 103/103/103 91/91/91
f 103/103/103 93/93/93 91/91/91
f 103/103/103 104/104/104 93/93/93
f 104/104/104 95/95/95 93/93/93
f 104/104/104 105/105/105 95/95/95
f 105/105/105 97/97/97 95/95/95
f 105/105/105 106/106/106 97/97/97
f 106/106/106 99/99/99 97/97/97
f 106/106/106 107/107/107 99/99/99
f 107/107/107 86/86/86 99/99/99
f 107/107/107 108/108/108 86/86/86
f 108/108/108 85/85/85 86/86/86
f 108/108/108 101/101/101 85/85/85
f 96/96/96 98/98/98 109/109/109
f 98/98/98 100/100/100 109/109/109
f 94/94/94 96/96/96 109/109/109
f 92/92/92 94/94/94 109/109/109
f 90/90/90 92/92/92 109/109/109
f 88/88/88 90/90/90 109/109/109
f 87/87/87 88/88/88 109/109/109
f 100/100/100 87/87/87 109/109/109
