# This file uses centimeters as units for non-parametric coordinates.

mtllib Ramp_Mesh.mtl
g default
v -14.416770 1.391991 7.158671
v -14.669729 1.391991 7.053892
v -14.922688 1.391991 7.158671
v -15.027467 1.391991 7.411630
v -14.922688 1.391991 7.664589
v -14.669729 1.391991 7.769368
v -14.416770 1.391991 7.664589
v -14.311991 1.391991 7.411630
v -14.500946 2.067801 7.242847
v -14.669729 2.067801 7.172936
v -14.838511 2.067801 7.242847
v -14.908422 2.067801 7.411630
v -14.838511 2.067801 7.580412
v -14.669729 2.067801 7.650323
v -14.500946 2.067801 7.580412
v -14.431035 2.067801 7.411630
vt 0.354417 0.757600
vt 0.364663 0.828118
vt 0.186613 0.842008
vt 0.179777 0.794956
vt 0.365477 0.899371
vt 0.187156 0.889550
vt 0.356843 0.970104
vt 0.181395 0.936746
vt 0.173581 0.457900
vt 0.225126 0.507102
vt 0.093510 0.627816
vt 0.059117 0.594987
vt 0.269699 0.562699
vt 0.123250 0.664912
vt 0.306512 0.623711
vt 0.147813 0.705621
vt 0.334919 0.689062
vt 0.166767 0.749225
vn 0.696385 0.173479 -0.696386
vn 0.000000 0.173479 -0.984838
vn -0.000000 0.173479 -0.984838
vn 0.696385 0.173479 -0.696385
vn -0.696387 0.173479 -0.696384
vn -0.696386 0.173479 -0.696384
vn -0.984838 0.173479 -0.000000
vn -0.984838 0.173479 0.000000
vn -0.696385 0.173480 0.696385
vn -0.696385 0.173480 0.696385
vn 0.000000 0.173480 0.984837
vn -0.000000 0.173480 0.984838
vn 0.696384 0.173480 0.696387
vn 0.696384 0.173480 0.696386
vn 0.984838 0.173479 -0.000000
vn 0.984838 0.173479 -0.000000
s 1
g polySurface7 group9 Ramp Kitchen_GEO_GRP1
usemtl lambert58SG
f 1/1/1 2/2/2 10/3/3 9/4/4
f 2/2/2 3/5/5 11/6/6 10/3/3
f 3/5/5 4/7/7 12/8/8 11/6/6
f 4/9/7 5/10/9 13/11/10 12/12/8
f 5/10/9 6/13/11 14/14/12 13/11/10
f 6/13/11 7/15/13 15/16/14 14/14/12
f 7/15/13 8/17/15 16/18/16 15/16/14
f 8/17/15 1/1/1 9/4/4 16/18/16
g default
v -14.587558 1.605414 7.442371
v -14.587558 0.825109 7.442371
v -14.587558 0.044803 7.442371
v -14.611984 1.605414 7.417276
v -14.611984 0.825109 7.417276
v -14.611984 0.044803 7.417276
v -14.636410 1.605414 7.392183
v -14.636410 0.825109 7.392183
v -14.636410 0.044803 7.392183
v -14.636410 0.178712 7.392183
v -14.611984 0.178712 7.417276
v -14.587558 0.178712 7.442371
v -14.798372 0.127817 7.225791
v -14.798372 0.006597 7.225791
v -14.425596 0.127817 7.608761
v -14.425596 0.006597 7.608761
v -14.425596 0.067207 7.608761
v -14.587558 0.111757 7.442371
v -14.611984 0.111757 7.417276
v -14.636410 0.111757 7.392183
v -14.798372 0.067207 7.225791
vt 0.537677 0.763771
vt 0.549977 0.591234
vt 0.568301 0.592521
vt 0.554272 0.764937
vt 0.558100 0.407025
vt 0.563169 0.374445
vt 0.587718 0.376462
vt 0.584922 0.403076
vt 0.586624 0.593807
vt 0.570867 0.766102
vt 0.613404 0.371093
vt 0.609472 0.408219
vt 0.650484 0.320185
vt 0.653581 0.352600
vt 0.497599 0.375789
vt 0.500163 0.338487
vt 0.556306 0.341296
vt 0.525992 0.329197
vt 0.585969 0.344734
vt 0.606541 0.344763
vt 0.624414 0.307367
vn 0.716579 0.000000 -0.697506
vn 0.716578 0.000000 -0.697507
vn 0.716581 0.000000 -0.697504
vn 0.716582 0.000000 -0.697503
vn 0.716578 0.000000 -0.697507
vn 0.716579 0.000000 -0.697506
vn 0.716580 0.000000 -0.697505
vn 0.716580 0.000000 -0.697505
vn 0.716585 0.000000 -0.697500
vn 0.716584 0.000000 -0.697500
vn 0.716579 0.000000 -0.697506
vn 0.716582 0.000000 -0.697503
vn 0.716579 0.000000 -0.697505
vn 0.716579 0.000000 -0.697506
vn 0.716579 0.000000 -0.697506
vn 0.716579 0.000000 -0.697506
vn 0.716579 0.000000 -0.697506
vn 0.716579 0.000000 -0.697506
vn 0.716580 0.000000 -0.697505
vn 0.716580 0.000000 -0.697505
vn 0.716580 0.000000 -0.697505
s 1
g group9 Ramp Kitchen_GEO_GRP1 polySurface8
usemtl lambert58SG
f 17/19/17 18/20/18 21/21/19 20/22/20
f 28/23/21 34/24/22 35/25/23 27/26/24
f 20/22/20 21/21/19 24/27/25 23/28/26
f 27/26/24 35/25/23 36/29/27 26/30/28
f 21/21/19 27/26/24 26/30/28 24/27/25
f 18/20/18 28/23/21 27/26/24 21/21/19
f 26/30/28 36/29/27 37/31/29 29/32/30
f 34/24/22 28/23/21 31/33/31 33/34/32
f 19/35/33 34/24/22 33/34/32 32/36/34
f 35/25/23 34/24/22 19/35/33 22/37/35
f 36/29/27 35/25/23 22/37/35 25/38/36
f 37/31/29 36/29/27 25/38/36 30/39/37
g default
v -14.635974 1.605414 7.442791
v -14.635974 0.825109 7.442791
v -14.635974 0.044803 7.442791
v -14.611982 1.605414 7.417280
v -14.611982 0.825109 7.417280
v -14.611982 0.044803 7.417280
v -14.587993 1.605414 7.391769
v -14.587993 0.825109 7.391769
v -14.587993 0.044803 7.391769
v -14.587993 0.178712 7.391769
v -14.611982 0.178712 7.417280
v -14.635974 0.178712 7.442791
v -14.428920 0.127817 7.222613
v -14.428920 0.006597 7.222613
v -14.795046 0.127817 7.611946
v -14.795046 0.006597 7.611946
v -14.795046 0.067207 7.611946
v -14.635974 0.111757 7.442791
v -14.611982 0.111757 7.417280
v -14.587993 0.111757 7.391769
v -14.428920 0.067207 7.222613
vt 0.537677 0.763771
vt 0.549977 0.591234
vt 0.568301 0.592521
vt 0.554272 0.764937
vt 0.558100 0.407025
vt 0.563169 0.374445
vt 0.587718 0.376462
vt 0.584922 0.403076
vt 0.586624 0.593807
vt 0.570867 0.766102
vt 0.613404 0.371093
vt 0.609472 0.408219
vt 0.650484 0.320185
vt 0.653581 0.352600
vt 0.497599 0.375789
vt 0.500163 0.338487
vt 0.556306 0.341296
vt 0.525992 0.329197
vt 0.585969 0.344734
vt 0.606541 0.344763
vt 0.624414 0.307367
vn 0.728470 0.000000 0.685078
vn 0.728469 0.000000 0.685079
vn 0.728479 0.000000 0.685068
vn 0.728479 0.000000 0.685068
vn 0.728473 0.000000 0.685074
vn 0.728483 0.000000 0.685064
vn 0.728482 0.000000 0.685065
vn 0.728479 0.000000 0.685069
vn 0.728489 0.000000 0.685057
vn 0.728489 0.000000 0.685058
vn 0.728485 0.000000 0.685061
vn 0.728488 0.000000 0.685059
vn 0.728484 0.000000 0.685062
vn 0.728484 0.000000 0.685063
vn 0.728485 0.000000 0.685062
vn 0.728485 0.000000 0.685062
vn 0.728483 0.000000 0.685064
vn 0.728485 0.000000 0.685062
vn 0.728482 0.000000 0.685065
vn 0.728485 0.000000 0.685061
vn 0.728484 0.000000 0.685062
s 1
g group9 Ramp Kitchen_GEO_GRP1 polySurface9
usemtl lambert58SG
f 38/40/38 39/41/39 42/42/40 41/43/41
f 49/44/42 55/45/43 56/46/44 48/47/45
f 41/43/41 42/42/40 45/48/46 44/49/47
f 48/47/45 56/46/44 57/50/48 47/51/49
f 42/42/40 48/47/45 47/51/49 45/48/46
f 39/41/39 49/44/42 48/47/45 42/42/40
f 47/51/49 57/50/48 58/52/50 50/53/51
f 55/45/43 49/44/42 52/54/52 54/55/53
f 40/56/54 55/45/43 54/55/53 53/57/55
f 56/46/44 55/45/43 40/56/54 43/58/56
f 57/50/48 56/46/44 43/58/56 46/59/57
f 58/52/50 57/50/48 46/59/57 51/60/58
